<svg width="232" height="114" viewBox="0 0 232 114" fill="none" xmlns="http://www.w3.org/2000/svg">
<rect x="12.2873" y="58.2873" width="37.4253" height="19.4253" fill="#6C757D" stroke="black" stroke-width="0.574684"/>
<rect x="119.287" y="58.2873" width="91.4253" height="19.4253" fill="white" stroke="black" stroke-width="0.574684"/>
<rect x="60.2873" y="58.2873" width="60.4253" height="19.4253" fill="#E7FFE4" stroke="black" stroke-width="0.574684"/>
<line x1="11.7127" y1="51" x2="11.7127" y2="43" stroke="black" stroke-width="0.574684"/>
<line x1="59.7127" y1="27" x2="59.7127" y2="18" stroke="black" stroke-width="0.574684"/>
<line x1="120.713" y1="51" x2="120.713" y2="43" stroke="black" stroke-width="0.574684"/>
<line x1="210.713" y1="27" x2="210.713" y2="18" stroke="black" stroke-width="0.574684"/>
<line x1="12" y1="42.7127" x2="121" y2="42.7127" stroke="black" stroke-width="0.574684"/>
<line x1="60" y1="17.7127" x2="211" y2="17.7127" stroke="black" stroke-width="0.574684"/>
<path d="M37.5234 33.8945C37.5234 34.7773 37.3203 35.4258 36.9141 35.8398C36.5117 36.2539 35.9141 36.4609 35.1211 36.4609H34.5117V40H33.9375V31.4336H35.1094C35.9453 31.4336 36.5566 31.6309 36.9434 32.0254C37.3301 32.4199 37.5234 33.043 37.5234 33.8945ZM34.5117 35.9336H35.0859C35.7578 35.9336 36.2344 35.7754 36.5156 35.459C36.7969 35.1426 36.9375 34.6211 36.9375 33.8945C36.9375 33.2031 36.791 32.709 36.498 32.4121C36.209 32.1113 35.7598 31.9609 35.1504 31.9609H34.5117V35.9336ZM40.5352 33.5195C40.7344 33.5195 40.9199 33.5469 41.0918 33.6016L40.957 34.1582C40.8164 34.0996 40.6719 34.0703 40.5234 34.0703C40.3086 34.0703 40.1074 34.1816 39.9199 34.4043C39.7363 34.623 39.5918 34.9297 39.4863 35.3242C39.3809 35.7188 39.3281 36.1543 39.3281 36.6309V40H38.7715V33.6426H39.2285L39.2871 34.7559H39.3281C39.625 33.9316 40.0273 33.5195 40.5352 33.5195ZM42.6094 40H42.0527V33.6426H42.6094V40ZM41.9707 31.8789C41.9707 31.7031 42.0059 31.5664 42.0762 31.4688C42.1504 31.3711 42.2441 31.3223 42.3574 31.3223C42.4629 31.3223 42.5469 31.3711 42.6094 31.4688C42.6719 31.5664 42.7031 31.7031 42.7031 31.8789C42.7031 32.0469 42.6719 32.1816 42.6094 32.2832C42.5469 32.3809 42.4629 32.4297 42.3574 32.4297C42.2441 32.4297 42.1504 32.3809 42.0762 32.2832C42.0059 32.1816 41.9707 32.0469 41.9707 31.8789ZM47.8945 36.8066C47.8945 37.877 47.7246 38.6973 47.3848 39.2676C47.0488 39.834 46.5664 40.1172 45.9375 40.1172C45.3164 40.1172 44.8398 39.834 44.5078 39.2676C44.1797 38.6973 44.0156 37.877 44.0156 36.8066C44.0156 34.6152 44.6641 33.5195 45.9609 33.5195C46.5703 33.5195 47.0449 33.8066 47.3848 34.3809C47.7246 34.9551 47.8945 35.7637 47.8945 36.8066ZM44.5957 36.8066C44.5957 37.7246 44.7051 38.418 44.9238 38.8867C45.1426 39.3555 45.4844 39.5898 45.9492 39.5898C46.8594 39.5898 47.3145 38.6621 47.3145 36.8066C47.3145 34.9668 46.8594 34.0469 45.9492 34.0469C45.4727 34.0469 45.127 34.2773 44.9121 34.7383C44.7012 35.1992 44.5957 35.8887 44.5957 36.8066ZM51.0586 33.5195C51.2578 33.5195 51.4434 33.5469 51.6152 33.6016L51.4805 34.1582C51.3398 34.0996 51.1953 34.0703 51.0469 34.0703C50.832 34.0703 50.6309 34.1816 50.4434 34.4043C50.2598 34.623 50.1152 34.9297 50.0098 35.3242C49.9043 35.7188 49.8516 36.1543 49.8516 36.6309V40H49.2949V33.6426H49.752L49.8105 34.7559H49.8516C50.1484 33.9316 50.5508 33.5195 51.0586 33.5195ZM55.4062 36.8535L55.7637 36.209L57.334 33.6426H57.9375L56.4727 35.9805L58.0664 40H57.4805L56.0977 36.4961L55.3945 37.4219V40H54.8379V30.8828H55.3945V35.7871L55.3535 36.8535H55.4062ZM61.8809 40V35.6172C61.8809 34.5625 61.5684 34.0352 60.9434 34.0352C60.4668 34.0352 60.1172 34.2324 59.8945 34.627C59.6758 35.0215 59.5664 35.6484 59.5664 36.5078V40H59.0098V33.6426H59.4785L59.5254 34.5273H59.5781C59.7109 34.207 59.9023 33.959 60.1523 33.7832C60.4023 33.6074 60.6699 33.5195 60.9551 33.5195C61.4473 33.5195 61.8164 33.6855 62.0625 34.0176C62.3086 34.3457 62.4316 34.875 62.4316 35.6055V40H61.8809ZM67.6875 36.8066C67.6875 37.877 67.5176 38.6973 67.1777 39.2676C66.8418 39.834 66.3594 40.1172 65.7305 40.1172C65.1094 40.1172 64.6328 39.834 64.3008 39.2676C63.9727 38.6973 63.8086 37.877 63.8086 36.8066C63.8086 34.6152 64.457 33.5195 65.7539 33.5195C66.3633 33.5195 66.8379 33.8066 67.1777 34.3809C67.5176 34.9551 67.6875 35.7637 67.6875 36.8066ZM64.3887 36.8066C64.3887 37.7246 64.498 38.418 64.7168 38.8867C64.9355 39.3555 65.2773 39.5898 65.7422 39.5898C66.6523 39.5898 67.1074 38.6621 67.1074 36.8066C67.1074 34.9668 66.6523 34.0469 65.7422 34.0469C65.2656 34.0469 64.9199 34.2773 64.7051 34.7383C64.4941 35.1992 64.3887 35.8887 64.3887 36.8066ZM72.6211 40L71.7422 35.6934C71.7344 35.6621 71.7266 35.6289 71.7188 35.5938C71.7148 35.5586 71.6543 35.1836 71.5371 34.4688H71.5254L71.4434 34.9668L71.3086 35.6934L70.4004 40H69.7383L68.3555 33.6426H68.9121L69.7031 37.3457L70.0723 39.2793H70.1074C70.1777 38.7207 70.291 38.0723 70.4473 37.334L71.2383 33.6426H71.8242L72.6211 37.3457C72.6836 37.623 72.7949 38.2676 72.9551 39.2793H72.9902C73.002 39.1504 73.0586 38.8262 73.1602 38.3066C73.2656 37.7871 73.5977 36.2324 74.1562 33.6426H74.707L73.2773 40H72.6211ZM76.2305 40H75.6738V30.8828H76.2305V40ZM79.7402 40.1172C79.0684 40.1172 78.5508 39.832 78.1875 39.2617C77.8281 38.6875 77.6484 37.8887 77.6484 36.8652C77.6484 35.7793 77.8086 34.9512 78.1289 34.3809C78.4531 33.8066 78.918 33.5195 79.5234 33.5195C80.0508 33.5195 80.4668 33.7715 80.7715 34.2754C81.0762 34.7754 81.2285 35.4512 81.2285 36.3027V36.8184H78.2168C78.2246 37.7441 78.3555 38.4375 78.6094 38.8984C78.8633 39.3594 79.248 39.5898 79.7637 39.5898C80.1621 39.5898 80.582 39.459 81.0234 39.1973V39.7363C80.6172 39.9902 80.1895 40.1172 79.7402 40.1172ZM79.4883 34.0234C78.7227 34.0234 78.3027 34.7871 78.2285 36.3145H80.6719C80.6719 35.6152 80.5645 35.0586 80.3496 34.6445C80.1387 34.2305 79.8516 34.0234 79.4883 34.0234ZM84.1992 40.1172C82.9648 40.1172 82.3477 39.0215 82.3477 36.8301C82.3477 35.752 82.502 34.9316 82.8105 34.3691C83.1191 33.8027 83.5742 33.5195 84.1758 33.5195C84.4609 33.5195 84.7305 33.6016 84.9844 33.7656C85.2422 33.9297 85.4473 34.1562 85.5996 34.4453H85.6465L85.623 33.7363V30.8828H86.1797V40H85.7227L85.6758 39.1094H85.623C85.4707 39.4336 85.2734 39.6836 85.0312 39.8594C84.7891 40.0312 84.5117 40.1172 84.1992 40.1172ZM84.2344 39.6309C84.6797 39.6309 85.0215 39.4258 85.2598 39.0156C85.502 38.6016 85.623 37.9941 85.623 37.1934V36.8301C85.623 35.8691 85.5059 35.166 85.2715 34.7207C85.041 34.2715 84.6875 34.0469 84.2109 34.0469C83.7539 34.0469 83.4258 34.2871 83.2266 34.7676C83.0273 35.2441 82.9277 35.9355 82.9277 36.8418C82.9277 37.7559 83.0312 38.4492 83.2383 38.9219C83.4453 39.3945 83.7773 39.6309 84.2344 39.6309ZM91.2129 33.6426V34.0352L90.3457 34.1348C90.4629 34.2871 90.5586 34.5059 90.6328 34.791C90.707 35.0723 90.7441 35.3613 90.7441 35.6582C90.7441 36.2754 90.6035 36.7754 90.3223 37.1582C90.0449 37.541 89.6777 37.7324 89.2207 37.7324H89.0801L88.957 37.7207C88.7695 37.8535 88.6211 37.9863 88.5117 38.1191C88.4062 38.252 88.3535 38.4062 88.3535 38.582C88.3535 38.7617 88.4238 38.9023 88.5645 39.0039C88.7051 39.1016 88.8945 39.1504 89.1328 39.1504H89.5312C90.0977 39.1504 90.5371 39.2969 90.8496 39.5898C91.1621 39.8828 91.3184 40.3066 91.3184 40.8613C91.3184 41.4824 91.1074 41.9746 90.6855 42.3379C90.2676 42.7012 89.7148 42.8828 89.0273 42.8828C88.4531 42.8828 88.0117 42.7363 87.7031 42.4434C87.3945 42.1543 87.2402 41.7363 87.2402 41.1895C87.2402 40.791 87.3418 40.4492 87.5449 40.1641C87.748 39.8828 88.0664 39.6602 88.5 39.4961C88.3047 39.4102 88.1465 39.291 88.0254 39.1387C87.9082 38.9863 87.8496 38.8047 87.8496 38.5938C87.8496 38.4023 87.9121 38.2324 88.0371 38.084C88.166 37.9316 88.3477 37.7695 88.582 37.5977C88.2578 37.4492 88.0117 37.209 87.8438 36.877C87.6797 36.5449 87.5977 36.1543 87.5977 35.7051C87.5977 35.0293 87.7402 34.4961 88.0254 34.1055C88.3105 33.7148 88.7012 33.5195 89.1973 33.5195C89.4629 33.5195 89.6855 33.5605 89.8652 33.6426H91.2129ZM87.791 41.1426C87.791 41.5449 87.8945 41.8594 88.1016 42.0859C88.3125 42.3125 88.6289 42.4258 89.0508 42.4258C89.5742 42.4258 89.9883 42.2891 90.293 42.0156C90.6016 41.7422 90.7559 41.3672 90.7559 40.8906C90.7559 40.5078 90.6504 40.2109 90.4395 40C90.2324 39.793 89.9297 39.6895 89.5312 39.6895H89.1211C88.7383 39.6895 88.4199 39.8223 88.166 40.0879C87.916 40.3574 87.791 40.709 87.791 41.1426ZM88.1367 35.7168C88.1367 36.2363 88.2324 36.6309 88.4238 36.9004C88.6152 37.166 88.8691 37.2988 89.1855 37.2988C89.8652 37.2988 90.2051 36.752 90.2051 35.6582C90.2051 35.1309 90.1172 34.7188 89.9414 34.4219C89.7695 34.125 89.5176 33.9766 89.1855 33.9766C88.8457 33.9766 88.5859 34.1289 88.4062 34.4336C88.2266 34.7383 88.1367 35.166 88.1367 35.7168ZM94.0371 40.1172C93.3652 40.1172 92.8477 39.832 92.4844 39.2617C92.125 38.6875 91.9453 37.8887 91.9453 36.8652C91.9453 35.7793 92.1055 34.9512 92.4258 34.3809C92.75 33.8066 93.2148 33.5195 93.8203 33.5195C94.3477 33.5195 94.7637 33.7715 95.0684 34.2754C95.373 34.7754 95.5254 35.4512 95.5254 36.3027V36.8184H92.5137C92.5215 37.7441 92.6523 38.4375 92.9062 38.8984C93.1602 39.3594 93.5449 39.5898 94.0605 39.5898C94.459 39.5898 94.8789 39.459 95.3203 39.1973V39.7363C94.9141 39.9902 94.4863 40.1172 94.0371 40.1172ZM93.7852 34.0234C93.0195 34.0234 92.5996 34.7871 92.5254 36.3145H94.9688C94.9688 35.6152 94.8613 35.0586 94.6465 34.6445C94.4355 34.2305 94.1484 34.0234 93.7852 34.0234Z" fill="black"/>
<path d="M7.76367 91H7.03125L3.79102 83.3184H3.74414C3.79102 83.8496 3.81445 84.3613 3.81445 84.8535V91H3.25195V82.4336H3.99609L7.21289 90.0273H7.24805C7.2168 89.3867 7.20117 88.8516 7.20117 88.4219V82.4336H7.76367V91ZM13.1309 87.8066C13.1309 88.877 12.9609 89.6973 12.6211 90.2676C12.2852 90.834 11.8027 91.1172 11.1738 91.1172C10.5527 91.1172 10.0762 90.834 9.74414 90.2676C9.41602 89.6973 9.25195 88.877 9.25195 87.8066C9.25195 85.6152 9.90039 84.5195 11.1973 84.5195C11.8066 84.5195 12.2812 84.8066 12.6211 85.3809C12.9609 85.9551 13.1309 86.7637 13.1309 87.8066ZM9.83203 87.8066C9.83203 88.7246 9.94141 89.418 10.1602 89.8867C10.3789 90.3555 10.7207 90.5898 11.1855 90.5898C12.0957 90.5898 12.5508 89.6621 12.5508 87.8066C12.5508 85.9668 12.0957 85.0469 11.1855 85.0469C10.709 85.0469 10.3633 85.2773 10.1484 85.7383C9.9375 86.1992 9.83203 86.8887 9.83203 87.8066ZM17.4023 91V86.6172C17.4023 85.5625 17.0898 85.0352 16.4648 85.0352C15.9883 85.0352 15.6387 85.2324 15.416 85.627C15.1973 86.0215 15.0879 86.6484 15.0879 87.5078V91H14.5312V84.6426H15L15.0469 85.5273H15.0996C15.2324 85.207 15.4238 84.959 15.6738 84.7832C15.9238 84.6074 16.1914 84.5195 16.4766 84.5195C16.9688 84.5195 17.3379 84.6855 17.584 85.0176C17.8301 85.3457 17.9531 85.875 17.9531 86.6055V91H17.4023ZM27.293 91V86.6699C27.293 85.6035 26.9805 85.0703 26.3555 85.0703C25.9258 85.0703 25.6152 85.2578 25.4238 85.6328C25.2363 86.0039 25.1426 86.5527 25.1426 87.2793V91H24.5918V86.6699C24.5918 86.1309 24.5156 85.7305 24.3633 85.4688C24.2109 85.2031 23.9746 85.0703 23.6543 85.0703C23.2324 85.0703 22.9258 85.2617 22.7344 85.6445C22.543 86.0273 22.4473 86.6484 22.4473 87.5078V91H21.8906V84.6426H22.3594L22.4062 85.5273H22.459C22.7129 84.8555 23.1445 84.5195 23.7539 84.5195C24.1055 84.5195 24.3828 84.6133 24.5859 84.8008C24.7891 84.9883 24.9355 85.2617 25.0254 85.6211C25.1777 85.2305 25.3652 84.9492 25.5879 84.7773C25.8105 84.6055 26.0996 84.5195 26.4551 84.5195C26.9355 84.5195 27.2871 84.7051 27.5098 85.0762C27.7324 85.4434 27.8438 86.0332 27.8438 86.8457V91H27.293ZM31.9922 91L31.9219 90.1094H31.8984C31.5938 90.7812 31.1328 91.1172 30.5156 91.1172C30.1016 91.1172 29.7676 90.9531 29.5137 90.625C29.2637 90.293 29.1387 89.8496 29.1387 89.2949C29.1387 88.6895 29.3203 88.2109 29.6836 87.8594C30.0469 87.5039 30.5566 87.3105 31.2129 87.2793L31.8984 87.2441V86.7168C31.8984 86.123 31.8242 85.6914 31.6758 85.4219C31.5273 85.1484 31.2812 85.0117 30.9375 85.0117C30.5742 85.0117 30.2031 85.1309 29.8242 85.3691L29.584 84.9297C30.0254 84.6562 30.4883 84.5195 30.9727 84.5195C31.4961 84.5195 31.873 84.6855 32.1035 85.0176C32.334 85.3457 32.4492 85.8965 32.4492 86.6699V91H31.9922ZM30.6387 90.6426C31.0371 90.6426 31.3457 90.4473 31.5645 90.0566C31.7871 89.6621 31.8984 89.1055 31.8984 88.3867V87.7246L31.2363 87.7598C30.7246 87.7871 30.3438 87.9297 30.0938 88.1875C29.8477 88.4414 29.7246 88.8145 29.7246 89.3066C29.7246 89.7676 29.8066 90.1055 29.9707 90.3203C30.1348 90.5352 30.3574 90.6426 30.6387 90.6426ZM35.291 90.6016C35.4629 90.6016 35.6152 90.5781 35.748 90.5312V91C35.5762 91.0781 35.3555 91.1172 35.0859 91.1172C34.4297 91.1172 34.1016 90.627 34.1016 89.6465V85.1348H33.5273V84.8066L34.0898 84.6426L34.2715 83.1309H34.6582V84.6426H35.666V85.1348H34.6582V89.4883C34.6582 89.918 34.7051 90.2109 34.7988 90.3672C34.8926 90.5234 35.0566 90.6016 35.291 90.6016ZM38.3965 91.1172C37.7598 91.1172 37.2793 90.8418 36.9551 90.291C36.6348 89.7363 36.4746 88.9238 36.4746 87.8535C36.4746 86.7676 36.6367 85.9414 36.9609 85.375C37.2891 84.8047 37.7715 84.5195 38.4082 84.5195C38.8027 84.5195 39.1309 84.5918 39.3926 84.7363L39.1758 85.2285C38.9141 85.1074 38.6738 85.0469 38.4551 85.0469C37.5215 85.0469 37.0547 85.9785 37.0547 87.8418C37.0547 89.6895 37.5215 90.6133 38.4551 90.6133C38.7324 90.6133 39.0332 90.5508 39.3574 90.4258V90.8945C39.2285 90.9648 39.0703 91.0195 38.8828 91.0586C38.6953 91.0977 38.5332 91.1172 38.3965 91.1172ZM43.3594 91V86.6172C43.3594 86.043 43.2832 85.6367 43.1309 85.3984C42.9824 85.1562 42.7383 85.0352 42.3984 85.0352C41.9492 85.0352 41.6113 85.2344 41.3848 85.6328C41.1582 86.0312 41.0449 86.6602 41.0449 87.5195V91H40.4883V81.8828H41.0449V84.8418C41.0449 85.1113 41.0371 85.3359 41.0215 85.5156H41.0684C41.1934 85.1992 41.3809 84.9551 41.6309 84.7832C41.8848 84.6074 42.1484 84.5195 42.4219 84.5195C42.9609 84.5195 43.3438 84.6953 43.5703 85.0469C43.7969 85.3984 43.9102 85.9219 43.9102 86.6172V91H43.3594ZM47.3906 91.1172C46.7188 91.1172 46.2012 90.832 45.8379 90.2617C45.4785 89.6875 45.2988 88.8887 45.2988 87.8652C45.2988 86.7793 45.459 85.9512 45.7793 85.3809C46.1035 84.8066 46.5684 84.5195 47.1738 84.5195C47.7012 84.5195 48.1172 84.7715 48.4219 85.2754C48.7266 85.7754 48.8789 86.4512 48.8789 87.3027V87.8184H45.8672C45.875 88.7441 46.0059 89.4375 46.2598 89.8984C46.5137 90.3594 46.8984 90.5898 47.4141 90.5898C47.8125 90.5898 48.2324 90.459 48.6738 90.1973V90.7363C48.2676 90.9902 47.8398 91.1172 47.3906 91.1172ZM47.1387 85.0234C46.373 85.0234 45.9531 85.7871 45.8789 87.3145H48.3223C48.3223 86.6152 48.2148 86.0586 48 85.6445C47.7891 85.2305 47.502 85.0234 47.1387 85.0234ZM51.8496 91.1172C50.6152 91.1172 49.998 90.0215 49.998 87.8301C49.998 86.752 50.1523 85.9316 50.4609 85.3691C50.7695 84.8027 51.2246 84.5195 51.8262 84.5195C52.1113 84.5195 52.3809 84.6016 52.6348 84.7656C52.8926 84.9297 53.0977 85.1562 53.25 85.4453H53.2969L53.2734 84.7363V81.8828H53.8301V91H53.373L53.3262 90.1094H53.2734C53.1211 90.4336 52.9238 90.6836 52.6816 90.8594C52.4395 91.0312 52.1621 91.1172 51.8496 91.1172ZM51.8848 90.6309C52.3301 90.6309 52.6719 90.4258 52.9102 90.0156C53.1523 89.6016 53.2734 88.9941 53.2734 88.1934V87.8301C53.2734 86.8691 53.1562 86.166 52.9219 85.7207C52.6914 85.2715 52.3379 85.0469 51.8613 85.0469C51.4043 85.0469 51.0762 85.2871 50.877 85.7676C50.6777 86.2441 50.5781 86.9355 50.5781 87.8418C50.5781 88.7559 50.6816 89.4492 50.8887 89.9219C51.0957 90.3945 51.4277 90.6309 51.8848 90.6309ZM17.8242 107.117C17.5039 107.117 17.2109 107.029 16.9453 106.854C16.6836 106.674 16.4844 106.43 16.3477 106.121H16.2949L16.3359 106.818V109.883H15.7793V100.643H16.2363L16.2949 101.516H16.3477C16.5039 101.195 16.7031 100.949 16.9453 100.777C17.1914 100.605 17.459 100.52 17.748 100.52C18.9902 100.52 19.6113 101.615 19.6113 103.807C19.6113 104.865 19.459 105.682 19.1543 106.256C18.8496 106.83 18.4062 107.117 17.8242 107.117ZM17.7129 101.047C17.248 101.047 16.9023 101.252 16.6758 101.662C16.4492 102.072 16.3359 102.715 16.3359 103.59V103.771C16.3359 104.748 16.4512 105.467 16.6816 105.928C16.9121 106.385 17.2637 106.613 17.7363 106.613C18.1738 106.613 18.498 106.387 18.709 105.934C18.9238 105.477 19.0312 104.768 19.0312 103.807C19.0312 102.889 18.9316 102.199 18.7324 101.738C18.5332 101.277 18.1934 101.047 17.7129 101.047ZM22.8223 107.117C22.1504 107.117 21.6328 106.832 21.2695 106.262C20.9102 105.688 20.7305 104.889 20.7305 103.865C20.7305 102.779 20.8906 101.951 21.2109 101.381C21.5352 100.807 22 100.52 22.6055 100.52C23.1328 100.52 23.5488 100.771 23.8535 101.275C24.1582 101.775 24.3105 102.451 24.3105 103.303V103.818H21.2988C21.3066 104.744 21.4375 105.438 21.6914 105.898C21.9453 106.359 22.3301 106.59 22.8457 106.59C23.2441 106.59 23.6641 106.459 24.1055 106.197V106.736C23.6992 106.99 23.2715 107.117 22.8223 107.117ZM22.5703 101.023C21.8047 101.023 21.3848 101.787 21.3105 103.314H23.7539C23.7539 102.615 23.6465 102.059 23.4316 101.645C23.2207 101.23 22.9336 101.023 22.5703 101.023ZM29.3086 103.807C29.3086 104.877 29.1387 105.697 28.7988 106.268C28.4629 106.834 27.9805 107.117 27.3516 107.117C26.7305 107.117 26.2539 106.834 25.9219 106.268C25.5938 105.697 25.4297 104.877 25.4297 103.807C25.4297 101.615 26.0781 100.52 27.375 100.52C27.9844 100.52 28.459 100.807 28.7988 101.381C29.1387 101.955 29.3086 102.764 29.3086 103.807ZM26.0098 103.807C26.0098 104.725 26.1191 105.418 26.3379 105.887C26.5566 106.355 26.8984 106.59 27.3633 106.59C28.2734 106.59 28.7285 105.662 28.7285 103.807C28.7285 101.967 28.2734 101.047 27.3633 101.047C26.8867 101.047 26.541 101.277 26.3262 101.738C26.1152 102.199 26.0098 102.889 26.0098 103.807ZM32.7539 107.117C32.4336 107.117 32.1406 107.029 31.875 106.854C31.6133 106.674 31.4141 106.43 31.2773 106.121H31.2246L31.2656 106.818V109.883H30.709V100.643H31.166L31.2246 101.516H31.2773C31.4336 101.195 31.6328 100.949 31.875 100.777C32.1211 100.605 32.3887 100.52 32.6777 100.52C33.9199 100.52 34.541 101.615 34.541 103.807C34.541 104.865 34.3887 105.682 34.084 106.256C33.7793 106.83 33.3359 107.117 32.7539 107.117ZM32.6426 101.047C32.1777 101.047 31.832 101.252 31.6055 101.662C31.3789 102.072 31.2656 102.715 31.2656 103.59V103.771C31.2656 104.748 31.3809 105.467 31.6113 105.928C31.8418 106.385 32.1934 106.613 32.666 106.613C33.1035 106.613 33.4277 106.387 33.6387 105.934C33.8535 105.477 33.9609 104.768 33.9609 103.807C33.9609 102.889 33.8613 102.199 33.6621 101.738C33.4629 101.277 33.123 101.047 32.6426 101.047ZM36.5039 107H35.9473V97.8828H36.5039V107ZM40.0137 107.117C39.3418 107.117 38.8242 106.832 38.4609 106.262C38.1016 105.688 37.9219 104.889 37.9219 103.865C37.9219 102.779 38.082 101.951 38.4023 101.381C38.7266 100.807 39.1914 100.52 39.7969 100.52C40.3242 100.52 40.7402 100.771 41.0449 101.275C41.3496 101.775 41.502 102.451 41.502 103.303V103.818H38.4902C38.498 104.744 38.6289 105.438 38.8828 105.898C39.1367 106.359 39.5215 106.59 40.0371 106.59C40.4355 106.59 40.8555 106.459 41.2969 106.197V106.736C40.8906 106.99 40.4629 107.117 40.0137 107.117ZM39.7617 101.023C38.9961 101.023 38.5762 101.787 38.502 103.314H40.9453C40.9453 102.615 40.8379 102.059 40.623 101.645C40.4121 101.23 40.125 101.023 39.7617 101.023Z" fill="black"/>
<path d="M75.6641 91L73.3848 83.2012H73.3379C73.377 84.0215 73.3965 84.541 73.3965 84.7598V91H72.8457V82.4336H73.6953L75.6172 88.9844C75.7891 89.5625 75.9004 90.0547 75.9512 90.4609H75.998C76.0371 90.1719 76.1582 89.6836 76.3613 88.9961L78.2656 82.4336H79.1445V91H78.5703V84.8066C78.5703 84.5645 78.5898 84.0332 78.6289 83.2129H78.582L76.3145 91H75.6641ZM83.3984 91L83.3281 90.1094H83.3047C83 90.7812 82.5391 91.1172 81.9219 91.1172C81.5078 91.1172 81.1738 90.9531 80.9199 90.625C80.6699 90.293 80.5449 89.8496 80.5449 89.2949C80.5449 88.6895 80.7266 88.2109 81.0898 87.8594C81.4531 87.5039 81.9629 87.3105 82.6191 87.2793L83.3047 87.2441V86.7168C83.3047 86.123 83.2305 85.6914 83.082 85.4219C82.9336 85.1484 82.6875 85.0117 82.3438 85.0117C81.9805 85.0117 81.6094 85.1309 81.2305 85.3691L80.9902 84.9297C81.4316 84.6562 81.8945 84.5195 82.3789 84.5195C82.9023 84.5195 83.2793 84.6855 83.5098 85.0176C83.7402 85.3457 83.8555 85.8965 83.8555 86.6699V91H83.3984ZM82.0449 90.6426C82.4434 90.6426 82.752 90.4473 82.9707 90.0566C83.1934 89.6621 83.3047 89.1055 83.3047 88.3867V87.7246L82.6426 87.7598C82.1309 87.7871 81.75 87.9297 81.5 88.1875C81.2539 88.4414 81.1309 88.8145 81.1309 89.3066C81.1309 89.7676 81.2129 90.1055 81.377 90.3203C81.541 90.5352 81.7637 90.6426 82.0449 90.6426ZM86.6973 90.6016C86.8691 90.6016 87.0215 90.5781 87.1543 90.5312V91C86.9824 91.0781 86.7617 91.1172 86.4922 91.1172C85.8359 91.1172 85.5078 90.627 85.5078 89.6465V85.1348H84.9336V84.8066L85.4961 84.6426L85.6777 83.1309H86.0645V84.6426H87.0723V85.1348H86.0645V89.4883C86.0645 89.918 86.1113 90.2109 86.2051 90.3672C86.2988 90.5234 86.4629 90.6016 86.6973 90.6016ZM89.8027 91.1172C89.166 91.1172 88.6855 90.8418 88.3613 90.291C88.041 89.7363 87.8809 88.9238 87.8809 87.8535C87.8809 86.7676 88.043 85.9414 88.3672 85.375C88.6953 84.8047 89.1777 84.5195 89.8145 84.5195C90.209 84.5195 90.5371 84.5918 90.7988 84.7363L90.582 85.2285C90.3203 85.1074 90.0801 85.0469 89.8613 85.0469C88.9277 85.0469 88.4609 85.9785 88.4609 87.8418C88.4609 89.6895 88.9277 90.6133 89.8613 90.6133C90.1387 90.6133 90.4395 90.5508 90.7637 90.4258V90.8945C90.6348 90.9648 90.4766 91.0195 90.2891 91.0586C90.1016 91.0977 89.9395 91.1172 89.8027 91.1172ZM94.7656 91V86.6172C94.7656 86.043 94.6895 85.6367 94.5371 85.3984C94.3887 85.1562 94.1445 85.0352 93.8047 85.0352C93.3555 85.0352 93.0176 85.2344 92.791 85.6328C92.5645 86.0312 92.4512 86.6602 92.4512 87.5195V91H91.8945V81.8828H92.4512V84.8418C92.4512 85.1113 92.4434 85.3359 92.4277 85.5156H92.4746C92.5996 85.1992 92.7871 84.9551 93.0371 84.7832C93.291 84.6074 93.5547 84.5195 93.8281 84.5195C94.3672 84.5195 94.75 84.6953 94.9766 85.0469C95.2031 85.3984 95.3164 85.9219 95.3164 86.6172V91H94.7656ZM98.7969 91.1172C98.125 91.1172 97.6074 90.832 97.2441 90.2617C96.8848 89.6875 96.7051 88.8887 96.7051 87.8652C96.7051 86.7793 96.8652 85.9512 97.1855 85.3809C97.5098 84.8066 97.9746 84.5195 98.5801 84.5195C99.1074 84.5195 99.5234 84.7715 99.8281 85.2754C100.133 85.7754 100.285 86.4512 100.285 87.3027V87.8184H97.2734C97.2812 88.7441 97.4121 89.4375 97.666 89.8984C97.9199 90.3594 98.3047 90.5898 98.8203 90.5898C99.2188 90.5898 99.6387 90.459 100.08 90.1973V90.7363C99.6738 90.9902 99.2461 91.1172 98.7969 91.1172ZM98.5449 85.0234C97.7793 85.0234 97.3594 85.7871 97.2852 87.3145H99.7285C99.7285 86.6152 99.6211 86.0586 99.4062 85.6445C99.1953 85.2305 98.9082 85.0234 98.5449 85.0234ZM103.256 91.1172C102.021 91.1172 101.404 90.0215 101.404 87.8301C101.404 86.752 101.559 85.9316 101.867 85.3691C102.176 84.8027 102.631 84.5195 103.232 84.5195C103.518 84.5195 103.787 84.6016 104.041 84.7656C104.299 84.9297 104.504 85.1562 104.656 85.4453H104.703L104.68 84.7363V81.8828H105.236V91H104.779L104.732 90.1094H104.68C104.527 90.4336 104.33 90.6836 104.088 90.8594C103.846 91.0312 103.568 91.1172 103.256 91.1172ZM103.291 90.6309C103.736 90.6309 104.078 90.4258 104.316 90.0156C104.559 89.6016 104.68 88.9941 104.68 88.1934V87.8301C104.68 86.8691 104.562 86.166 104.328 85.7207C104.098 85.2715 103.744 85.0469 103.268 85.0469C102.811 85.0469 102.482 85.2871 102.283 85.7676C102.084 86.2441 101.984 86.9355 101.984 87.8418C101.984 88.7559 102.088 89.4492 102.295 89.9219C102.502 90.3945 102.834 90.6309 103.291 90.6309ZM78.3242 107.117C78.0039 107.117 77.7109 107.029 77.4453 106.854C77.1836 106.674 76.9844 106.43 76.8477 106.121H76.7949L76.8359 106.818V109.883H76.2793V100.643H76.7363L76.7949 101.516H76.8477C77.0039 101.195 77.2031 100.949 77.4453 100.777C77.6914 100.605 77.959 100.52 78.248 100.52C79.4902 100.52 80.1113 101.615 80.1113 103.807C80.1113 104.865 79.959 105.682 79.6543 106.256C79.3496 106.83 78.9062 107.117 78.3242 107.117ZM78.2129 101.047C77.748 101.047 77.4023 101.252 77.1758 101.662C76.9492 102.072 76.8359 102.715 76.8359 103.59V103.771C76.8359 104.748 76.9512 105.467 77.1816 105.928C77.4121 106.385 77.7637 106.613 78.2363 106.613C78.6738 106.613 78.998 106.387 79.209 105.934C79.4238 105.477 79.5312 104.768 79.5312 103.807C79.5312 102.889 79.4316 102.199 79.2324 101.738C79.0332 101.277 78.6934 101.047 78.2129 101.047ZM83.3223 107.117C82.6504 107.117 82.1328 106.832 81.7695 106.262C81.4102 105.688 81.2305 104.889 81.2305 103.865C81.2305 102.779 81.3906 101.951 81.7109 101.381C82.0352 100.807 82.5 100.52 83.1055 100.52C83.6328 100.52 84.0488 100.771 84.3535 101.275C84.6582 101.775 84.8105 102.451 84.8105 103.303V103.818H81.7988C81.8066 104.744 81.9375 105.438 82.1914 105.898C82.4453 106.359 82.8301 106.59 83.3457 106.59C83.7441 106.59 84.1641 106.459 84.6055 106.197V106.736C84.1992 106.99 83.7715 107.117 83.3223 107.117ZM83.0703 101.023C82.3047 101.023 81.8848 101.787 81.8105 103.314H84.2539C84.2539 102.615 84.1465 102.059 83.9316 101.645C83.7207 101.23 83.4336 101.023 83.0703 101.023ZM89.8086 103.807C89.8086 104.877 89.6387 105.697 89.2988 106.268C88.9629 106.834 88.4805 107.117 87.8516 107.117C87.2305 107.117 86.7539 106.834 86.4219 106.268C86.0938 105.697 85.9297 104.877 85.9297 103.807C85.9297 101.615 86.5781 100.52 87.875 100.52C88.4844 100.52 88.959 100.807 89.2988 101.381C89.6387 101.955 89.8086 102.764 89.8086 103.807ZM86.5098 103.807C86.5098 104.725 86.6191 105.418 86.8379 105.887C87.0566 106.355 87.3984 106.59 87.8633 106.59C88.7734 106.59 89.2285 105.662 89.2285 103.807C89.2285 101.967 88.7734 101.047 87.8633 101.047C87.3867 101.047 87.041 101.277 86.8262 101.738C86.6152 102.199 86.5098 102.889 86.5098 103.807ZM93.2539 107.117C92.9336 107.117 92.6406 107.029 92.375 106.854C92.1133 106.674 91.9141 106.43 91.7773 106.121H91.7246L91.7656 106.818V109.883H91.209V100.643H91.666L91.7246 101.516H91.7773C91.9336 101.195 92.1328 100.949 92.375 100.777C92.6211 100.605 92.8887 100.52 93.1777 100.52C94.4199 100.52 95.041 101.615 95.041 103.807C95.041 104.865 94.8887 105.682 94.584 106.256C94.2793 106.83 93.8359 107.117 93.2539 107.117ZM93.1426 101.047C92.6777 101.047 92.332 101.252 92.1055 101.662C91.8789 102.072 91.7656 102.715 91.7656 103.59V103.771C91.7656 104.748 91.8809 105.467 92.1113 105.928C92.3418 106.385 92.6934 106.613 93.166 106.613C93.6035 106.613 93.9277 106.387 94.1387 105.934C94.3535 105.477 94.4609 104.768 94.4609 103.807C94.4609 102.889 94.3613 102.199 94.1621 101.738C93.9629 101.277 93.623 101.047 93.1426 101.047ZM97.0039 107H96.4473V97.8828H97.0039V107ZM100.514 107.117C99.8418 107.117 99.3242 106.832 98.9609 106.262C98.6016 105.688 98.4219 104.889 98.4219 103.865C98.4219 102.779 98.582 101.951 98.9023 101.381C99.2266 100.807 99.6914 100.52 100.297 100.52C100.824 100.52 101.24 100.771 101.545 101.275C101.85 101.775 102.002 102.451 102.002 103.303V103.818H98.9902C98.998 104.744 99.1289 105.438 99.3828 105.898C99.6367 106.359 100.021 106.59 100.537 106.59C100.936 106.59 101.355 106.459 101.797 106.197V106.736C101.391 106.99 100.963 107.117 100.514 107.117ZM100.262 101.023C99.4961 101.023 99.0762 101.787 99.002 103.314H101.445C101.445 102.615 101.338 102.059 101.123 101.645C100.912 101.23 100.625 101.023 100.262 101.023Z" fill="black"/>
<path d="M159.104 86.7051C159.104 88.123 158.891 89.2129 158.465 89.9746C158.043 90.7363 157.432 91.1172 156.631 91.1172C155.822 91.1172 155.209 90.7344 154.791 89.9688C154.373 89.1992 154.164 88.1074 154.164 86.6934C154.164 85.2168 154.371 84.1172 154.785 83.3945C155.199 82.6719 155.82 82.3105 156.648 82.3105C157.445 82.3105 158.053 82.6914 158.471 83.4531C158.893 84.2109 159.104 85.2949 159.104 86.7051ZM154.762 86.7051C154.762 87.9785 154.92 88.9414 155.236 89.5938C155.557 90.2422 156.021 90.5664 156.631 90.5664C157.244 90.5664 157.709 90.2441 158.025 89.5996C158.346 88.9551 158.506 87.9902 158.506 86.7051C158.506 85.4355 158.35 84.4785 158.037 83.834C157.725 83.1855 157.262 82.8613 156.648 82.8613C156.02 82.8613 155.547 83.1895 155.23 83.8457C154.918 84.498 154.762 85.4512 154.762 86.7051ZM161.775 90.6016C161.947 90.6016 162.1 90.5781 162.232 90.5312V91C162.061 91.0781 161.84 91.1172 161.57 91.1172C160.914 91.1172 160.586 90.627 160.586 89.6465V85.1348H160.012V84.8066L160.574 84.6426L160.756 83.1309H161.143V84.6426H162.15V85.1348H161.143V89.4883C161.143 89.918 161.189 90.2109 161.283 90.3672C161.377 90.5234 161.541 90.6016 161.775 90.6016ZM166.117 91V86.6172C166.117 86.043 166.041 85.6367 165.889 85.3984C165.74 85.1562 165.496 85.0352 165.156 85.0352C164.707 85.0352 164.369 85.2344 164.143 85.6328C163.916 86.0312 163.803 86.6602 163.803 87.5195V91H163.246V81.8828H163.803V84.8418C163.803 85.1113 163.795 85.3359 163.779 85.5156H163.826C163.951 85.1992 164.139 84.9551 164.389 84.7832C164.643 84.6074 164.906 84.5195 165.18 84.5195C165.719 84.5195 166.102 84.6953 166.328 85.0469C166.555 85.3984 166.668 85.9219 166.668 86.6172V91H166.117ZM170.148 91.1172C169.477 91.1172 168.959 90.832 168.596 90.2617C168.236 89.6875 168.057 88.8887 168.057 87.8652C168.057 86.7793 168.217 85.9512 168.537 85.3809C168.861 84.8066 169.326 84.5195 169.932 84.5195C170.459 84.5195 170.875 84.7715 171.18 85.2754C171.484 85.7754 171.637 86.4512 171.637 87.3027V87.8184H168.625C168.633 88.7441 168.764 89.4375 169.018 89.8984C169.271 90.3594 169.656 90.5898 170.172 90.5898C170.57 90.5898 170.99 90.459 171.432 90.1973V90.7363C171.025 90.9902 170.598 91.1172 170.148 91.1172ZM169.896 85.0234C169.131 85.0234 168.711 85.7871 168.637 87.3145H171.08C171.08 86.6152 170.973 86.0586 170.758 85.6445C170.547 85.2305 170.26 85.0234 169.896 85.0234ZM174.818 84.5195C175.018 84.5195 175.203 84.5469 175.375 84.6016L175.24 85.1582C175.1 85.0996 174.955 85.0703 174.807 85.0703C174.592 85.0703 174.391 85.1816 174.203 85.4043C174.02 85.623 173.875 85.9297 173.77 86.3242C173.664 86.7188 173.611 87.1543 173.611 87.6309V91H173.055V84.6426H173.512L173.57 85.7559H173.611C173.908 84.9316 174.311 84.5195 174.818 84.5195ZM153.824 107.117C153.504 107.117 153.211 107.029 152.945 106.854C152.684 106.674 152.484 106.43 152.348 106.121H152.295L152.336 106.818V109.883H151.779V100.643H152.236L152.295 101.516H152.348C152.504 101.195 152.703 100.949 152.945 100.777C153.191 100.605 153.459 100.52 153.748 100.52C154.99 100.52 155.611 101.615 155.611 103.807C155.611 104.865 155.459 105.682 155.154 106.256C154.85 106.83 154.406 107.117 153.824 107.117ZM153.713 101.047C153.248 101.047 152.902 101.252 152.676 101.662C152.449 102.072 152.336 102.715 152.336 103.59V103.771C152.336 104.748 152.451 105.467 152.682 105.928C152.912 106.385 153.264 106.613 153.736 106.613C154.174 106.613 154.498 106.387 154.709 105.934C154.924 105.477 155.031 104.768 155.031 103.807C155.031 102.889 154.932 102.199 154.732 101.738C154.533 101.277 154.193 101.047 153.713 101.047ZM158.822 107.117C158.15 107.117 157.633 106.832 157.27 106.262C156.91 105.688 156.73 104.889 156.73 103.865C156.73 102.779 156.891 101.951 157.211 101.381C157.535 100.807 158 100.52 158.605 100.52C159.133 100.52 159.549 100.771 159.854 101.275C160.158 101.775 160.311 102.451 160.311 103.303V103.818H157.299C157.307 104.744 157.438 105.438 157.691 105.898C157.945 106.359 158.33 106.59 158.846 106.59C159.244 106.59 159.664 106.459 160.105 106.197V106.736C159.699 106.99 159.271 107.117 158.822 107.117ZM158.57 101.023C157.805 101.023 157.385 101.787 157.311 103.314H159.754C159.754 102.615 159.646 102.059 159.432 101.645C159.221 101.23 158.934 101.023 158.57 101.023ZM165.309 103.807C165.309 104.877 165.139 105.697 164.799 106.268C164.463 106.834 163.98 107.117 163.352 107.117C162.73 107.117 162.254 106.834 161.922 106.268C161.594 105.697 161.43 104.877 161.43 103.807C161.43 101.615 162.078 100.52 163.375 100.52C163.984 100.52 164.459 100.807 164.799 101.381C165.139 101.955 165.309 102.764 165.309 103.807ZM162.01 103.807C162.01 104.725 162.119 105.418 162.338 105.887C162.557 106.355 162.898 106.59 163.363 106.59C164.273 106.59 164.729 105.662 164.729 103.807C164.729 101.967 164.273 101.047 163.363 101.047C162.887 101.047 162.541 101.277 162.326 101.738C162.115 102.199 162.01 102.889 162.01 103.807ZM168.754 107.117C168.434 107.117 168.141 107.029 167.875 106.854C167.613 106.674 167.414 106.43 167.277 106.121H167.225L167.266 106.818V109.883H166.709V100.643H167.166L167.225 101.516H167.277C167.434 101.195 167.633 100.949 167.875 100.777C168.121 100.605 168.389 100.52 168.678 100.52C169.92 100.52 170.541 101.615 170.541 103.807C170.541 104.865 170.389 105.682 170.084 106.256C169.779 106.83 169.336 107.117 168.754 107.117ZM168.643 101.047C168.178 101.047 167.832 101.252 167.605 101.662C167.379 102.072 167.266 102.715 167.266 103.59V103.771C167.266 104.748 167.381 105.467 167.611 105.928C167.842 106.385 168.193 106.613 168.666 106.613C169.104 106.613 169.428 106.387 169.639 105.934C169.854 105.477 169.961 104.768 169.961 103.807C169.961 102.889 169.861 102.199 169.662 101.738C169.463 101.277 169.123 101.047 168.643 101.047ZM172.504 107H171.947V97.8828H172.504V107ZM176.014 107.117C175.342 107.117 174.824 106.832 174.461 106.262C174.102 105.688 173.922 104.889 173.922 103.865C173.922 102.779 174.082 101.951 174.402 101.381C174.727 100.807 175.191 100.52 175.797 100.52C176.324 100.52 176.74 100.771 177.045 101.275C177.35 101.775 177.502 102.451 177.502 103.303V103.818H174.49C174.498 104.744 174.629 105.438 174.883 105.898C175.137 106.359 175.521 106.59 176.037 106.59C176.436 106.59 176.855 106.459 177.297 106.197V106.736C176.891 106.99 176.463 107.117 176.014 107.117ZM175.762 101.023C174.996 101.023 174.576 101.787 174.502 103.314H176.945C176.945 102.615 176.838 102.059 176.623 101.645C176.412 101.23 176.125 101.023 175.762 101.023Z" fill="black"/>
<path d="M53.3574 4.84961C52.7129 4.84961 52.1992 5.19141 51.8164 5.875C51.4375 6.55469 51.248 7.49805 51.248 8.70508C51.248 9.49023 51.3359 10.1738 51.5117 10.7559C51.6875 11.3379 51.9395 11.7852 52.2676 12.0977C52.5957 12.4102 52.9766 12.5664 53.4102 12.5664C53.8555 12.5664 54.2383 12.4863 54.5586 12.3262V12.8535C54.2539 13.0293 53.8535 13.1172 53.3574 13.1172C52.8145 13.1172 52.3379 12.9414 51.9277 12.5898C51.5215 12.2383 51.207 11.7305 50.9844 11.0664C50.7617 10.3984 50.6504 9.60742 50.6504 8.69336C50.6504 7.32617 50.8926 6.25195 51.377 5.4707C51.8652 4.68945 52.5293 4.29883 53.3691 4.29883C53.8926 4.29883 54.3496 4.41992 54.7402 4.66211L54.4766 5.16602C54.1484 4.95508 53.7754 4.84961 53.3574 4.84961ZM56.4453 13H55.8887V3.88281H56.4453V13ZM58.6836 6.64258V10.791C58.6836 11.4199 58.7578 11.8789 58.9062 12.168C59.0586 12.457 59.291 12.6016 59.6035 12.6016C60.084 12.6016 60.4355 12.4082 60.6582 12.0215C60.8848 11.6309 60.998 11.002 60.998 10.1348V6.64258H61.5488V13H61.0801L61.0098 12.1094H60.9629C60.8262 12.4336 60.6367 12.6836 60.3945 12.8594C60.1523 13.0312 59.8887 13.1172 59.6035 13.1172C59.0918 13.1172 58.7168 12.9355 58.4785 12.5723C58.2441 12.209 58.127 11.6152 58.127 10.791V6.64258H58.6836ZM65.7441 11.4062C65.7441 11.9414 65.6035 12.3613 65.3223 12.666C65.041 12.9668 64.6348 13.1172 64.1035 13.1172C63.8145 13.1172 63.5605 13.0801 63.3418 13.0059C63.123 12.9316 62.9531 12.8496 62.832 12.7598V12.1094C62.9766 12.2539 63.168 12.3711 63.4062 12.4609C63.6445 12.5469 63.8887 12.5898 64.1387 12.5898C64.4668 12.5898 64.7246 12.4824 64.9121 12.2676C65.0996 12.0527 65.1934 11.7656 65.1934 11.4062C65.1934 11.125 65.125 10.8887 64.9883 10.6973C64.8555 10.502 64.5996 10.2812 64.2207 10.0352C63.7871 9.76172 63.4902 9.54297 63.3301 9.37891C63.1738 9.21484 63.0508 9.03125 62.9609 8.82812C62.875 8.625 62.832 8.38281 62.832 8.10156C62.832 7.64453 62.9863 7.26758 63.2949 6.9707C63.6035 6.66992 63.9961 6.51953 64.4727 6.51953C64.9844 6.51953 65.4121 6.64062 65.7559 6.88281L65.4688 7.36914C65.1484 7.1543 64.8086 7.04688 64.4492 7.04688C64.1211 7.04688 63.8594 7.14453 63.6641 7.33984C63.4688 7.53125 63.3711 7.78516 63.3711 8.10156C63.3711 8.38281 63.4375 8.61914 63.5703 8.81055C63.7031 8.99805 63.9844 9.22656 64.4141 9.49609C64.8359 9.77344 65.125 9.99609 65.2812 10.1641C65.4375 10.3281 65.5527 10.5117 65.627 10.7148C65.7051 10.9141 65.7441 11.1445 65.7441 11.4062ZM68.1992 12.6016C68.3711 12.6016 68.5234 12.5781 68.6562 12.5312V13C68.4844 13.0781 68.2637 13.1172 67.9941 13.1172C67.3379 13.1172 67.0098 12.627 67.0098 11.6465V7.13477H66.4355V6.80664L66.998 6.64258L67.1797 5.13086H67.5664V6.64258H68.5742V7.13477H67.5664V11.4883C67.5664 11.918 67.6133 12.2109 67.707 12.3672C67.8008 12.5234 67.9648 12.6016 68.1992 12.6016ZM71.4746 13.1172C70.8027 13.1172 70.2852 12.832 69.9219 12.2617C69.5625 11.6875 69.3828 10.8887 69.3828 9.86523C69.3828 8.7793 69.543 7.95117 69.8633 7.38086C70.1875 6.80664 70.6523 6.51953 71.2578 6.51953C71.7852 6.51953 72.2012 6.77148 72.5059 7.27539C72.8105 7.77539 72.9629 8.45117 72.9629 9.30273V9.81836H69.9512C69.959 10.7441 70.0898 11.4375 70.3438 11.8984C70.5977 12.3594 70.9824 12.5898 71.498 12.5898C71.8965 12.5898 72.3164 12.459 72.7578 12.1973V12.7363C72.3516 12.9902 71.9238 13.1172 71.4746 13.1172ZM71.2227 7.02344C70.457 7.02344 70.0371 7.78711 69.9629 9.31445H72.4062C72.4062 8.61523 72.2988 8.05859 72.084 7.64453C71.873 7.23047 71.5859 7.02344 71.2227 7.02344ZM76.1445 6.51953C76.3438 6.51953 76.5293 6.54688 76.7012 6.60156L76.5664 7.1582C76.4258 7.09961 76.2812 7.07031 76.1328 7.07031C75.918 7.07031 75.7168 7.18164 75.5293 7.4043C75.3457 7.62305 75.2012 7.92969 75.0957 8.32422C74.9902 8.71875 74.9375 9.1543 74.9375 9.63086V13H74.3809V6.64258H74.8379L74.8965 7.75586H74.9375C75.2344 6.93164 75.6367 6.51953 76.1445 6.51953ZM83.457 13L82.5781 8.69336C82.5703 8.66211 82.5625 8.62891 82.5547 8.59375C82.5508 8.55859 82.4902 8.18359 82.373 7.46875H82.3613L82.2793 7.9668L82.1445 8.69336L81.2363 13H80.5742L79.1914 6.64258H79.748L80.5391 10.3457L80.9082 12.2793H80.9434C81.0137 11.7207 81.127 11.0723 81.2832 10.334L82.0742 6.64258H82.6602L83.457 10.3457C83.5195 10.623 83.6309 11.2676 83.791 12.2793H83.8262C83.8379 12.1504 83.8945 11.8262 83.9961 11.3066C84.1016 10.7871 84.4336 9.23242 84.9922 6.64258H85.543L84.1133 13H83.457ZM89.3809 13V8.61719C89.3809 8.04297 89.3047 7.63672 89.1523 7.39844C89.0039 7.15625 88.7598 7.03516 88.4199 7.03516C87.9707 7.03516 87.6328 7.23438 87.4062 7.63281C87.1797 8.03125 87.0664 8.66016 87.0664 9.51953V13H86.5098V3.88281H87.0664V6.8418C87.0664 7.11133 87.0586 7.33594 87.043 7.51562H87.0898C87.2148 7.19922 87.4023 6.95508 87.6523 6.7832C87.9062 6.60742 88.1699 6.51953 88.4434 6.51953C88.9824 6.51953 89.3652 6.69531 89.5918 7.04688C89.8184 7.39844 89.9316 7.92188 89.9316 8.61719V13H89.3809ZM92.1641 13H91.6074V6.64258H92.1641V13ZM91.5254 4.87891C91.5254 4.70312 91.5605 4.56641 91.6309 4.46875C91.7051 4.37109 91.7988 4.32227 91.9121 4.32227C92.0176 4.32227 92.1016 4.37109 92.1641 4.46875C92.2266 4.56641 92.2578 4.70312 92.2578 4.87891C92.2578 5.04688 92.2266 5.18164 92.1641 5.2832C92.1016 5.38086 92.0176 5.42969 91.9121 5.42969C91.7988 5.42969 91.7051 5.38086 91.6309 5.2832C91.5605 5.18164 91.5254 5.04688 91.5254 4.87891ZM95.5039 13.1172C94.8672 13.1172 94.3867 12.8418 94.0625 12.291C93.7422 11.7363 93.582 10.9238 93.582 9.85352C93.582 8.76758 93.7441 7.94141 94.0684 7.375C94.3965 6.80469 94.8789 6.51953 95.5156 6.51953C95.9102 6.51953 96.2383 6.5918 96.5 6.73633L96.2832 7.22852C96.0215 7.10742 95.7812 7.04688 95.5625 7.04688C94.6289 7.04688 94.1621 7.97852 94.1621 9.8418C94.1621 11.6895 94.6289 12.6133 95.5625 12.6133C95.8398 12.6133 96.1406 12.5508 96.4648 12.4258V12.8945C96.3359 12.9648 96.1777 13.0195 95.9902 13.0586C95.8027 13.0977 95.6406 13.1172 95.5039 13.1172ZM100.467 13V8.61719C100.467 8.04297 100.391 7.63672 100.238 7.39844C100.09 7.15625 99.8457 7.03516 99.5059 7.03516C99.0566 7.03516 98.7188 7.23438 98.4922 7.63281C98.2656 8.03125 98.1523 8.66016 98.1523 9.51953V13H97.5957V3.88281H98.1523V6.8418C98.1523 7.11133 98.1445 7.33594 98.1289 7.51562H98.1758C98.3008 7.19922 98.4883 6.95508 98.7383 6.7832C98.9922 6.60742 99.2559 6.51953 99.5293 6.51953C100.068 6.51953 100.451 6.69531 100.678 7.04688C100.904 7.39844 101.018 7.92188 101.018 8.61719V13H100.467ZM106.924 6.53125C108.166 6.53125 108.787 7.62305 108.787 9.80664C108.787 10.8848 108.633 11.707 108.324 12.2734C108.016 12.8359 107.57 13.1172 106.988 13.1172C106.684 13.1172 106.406 13.0332 106.156 12.8652C105.906 12.6973 105.699 12.4492 105.535 12.1211H105.488L105.412 13H104.955V3.88281H105.512V6.71289L105.488 7.48047H105.535C105.871 6.84766 106.334 6.53125 106.924 6.53125ZM106.9 7.04688C106.412 7.04688 106.059 7.26172 105.84 7.69141C105.621 8.12109 105.512 8.82617 105.512 9.80664V9.95312C105.512 11.7266 105.982 12.6133 106.924 12.6133C107.354 12.6133 107.674 12.3848 107.885 11.9277C108.1 11.4707 108.207 10.7637 108.207 9.80664C108.207 8.88867 108.104 8.19922 107.896 7.73828C107.689 7.27734 107.357 7.04688 106.9 7.04688ZM111.998 13.1172C111.326 13.1172 110.809 12.832 110.445 12.2617C110.086 11.6875 109.906 10.8887 109.906 9.86523C109.906 8.7793 110.066 7.95117 110.387 7.38086C110.711 6.80664 111.176 6.51953 111.781 6.51953C112.309 6.51953 112.725 6.77148 113.029 7.27539C113.334 7.77539 113.486 8.45117 113.486 9.30273V9.81836H110.475C110.482 10.7441 110.613 11.4375 110.867 11.8984C111.121 12.3594 111.506 12.5898 112.021 12.5898C112.42 12.5898 112.84 12.459 113.281 12.1973V12.7363C112.875 12.9902 112.447 13.1172 111.998 13.1172ZM111.746 7.02344C110.98 7.02344 110.561 7.78711 110.486 9.31445H112.93C112.93 8.61523 112.822 8.05859 112.607 7.64453C112.396 7.23047 112.109 7.02344 111.746 7.02344ZM117.4 11.4062C117.4 11.9414 117.26 12.3613 116.979 12.666C116.697 12.9668 116.291 13.1172 115.76 13.1172C115.471 13.1172 115.217 13.0801 114.998 13.0059C114.779 12.9316 114.609 12.8496 114.488 12.7598V12.1094C114.633 12.2539 114.824 12.3711 115.062 12.4609C115.301 12.5469 115.545 12.5898 115.795 12.5898C116.123 12.5898 116.381 12.4824 116.568 12.2676C116.756 12.0527 116.85 11.7656 116.85 11.4062C116.85 11.125 116.781 10.8887 116.645 10.6973C116.512 10.502 116.256 10.2812 115.877 10.0352C115.443 9.76172 115.146 9.54297 114.986 9.37891C114.83 9.21484 114.707 9.03125 114.617 8.82812C114.531 8.625 114.488 8.38281 114.488 8.10156C114.488 7.64453 114.643 7.26758 114.951 6.9707C115.26 6.66992 115.652 6.51953 116.129 6.51953C116.641 6.51953 117.068 6.64062 117.412 6.88281L117.125 7.36914C116.805 7.1543 116.465 7.04688 116.105 7.04688C115.777 7.04688 115.516 7.14453 115.32 7.33984C115.125 7.53125 115.027 7.78516 115.027 8.10156C115.027 8.38281 115.094 8.61914 115.227 8.81055C115.359 8.99805 115.641 9.22656 116.07 9.49609C116.492 9.77344 116.781 9.99609 116.938 10.1641C117.094 10.3281 117.209 10.5117 117.283 10.7148C117.361 10.9141 117.4 11.1445 117.4 11.4062ZM119.855 12.6016C120.027 12.6016 120.18 12.5781 120.312 12.5312V13C120.141 13.0781 119.92 13.1172 119.65 13.1172C118.994 13.1172 118.666 12.627 118.666 11.6465V7.13477H118.092V6.80664L118.654 6.64258L118.836 5.13086H119.223V6.64258H120.23V7.13477H119.223V11.4883C119.223 11.918 119.27 12.2109 119.363 12.3672C119.457 12.5234 119.621 12.6016 119.855 12.6016ZM128.99 13V8.66992C128.99 7.60352 128.678 7.07031 128.053 7.07031C127.623 7.07031 127.312 7.25781 127.121 7.63281C126.934 8.00391 126.84 8.55273 126.84 9.2793V13H126.289V8.66992C126.289 8.13086 126.213 7.73047 126.061 7.46875C125.908 7.20312 125.672 7.07031 125.352 7.07031C124.93 7.07031 124.623 7.26172 124.432 7.64453C124.24 8.02734 124.145 8.64844 124.145 9.50781V13H123.588V6.64258H124.057L124.104 7.52734H124.156C124.41 6.85547 124.842 6.51953 125.451 6.51953C125.803 6.51953 126.08 6.61328 126.283 6.80078C126.486 6.98828 126.633 7.26172 126.723 7.62109C126.875 7.23047 127.062 6.94922 127.285 6.77734C127.508 6.60547 127.797 6.51953 128.152 6.51953C128.633 6.51953 128.984 6.70508 129.207 7.07617C129.43 7.44336 129.541 8.0332 129.541 8.8457V13H128.99ZM133.689 13L133.619 12.1094H133.596C133.291 12.7812 132.83 13.1172 132.213 13.1172C131.799 13.1172 131.465 12.9531 131.211 12.625C130.961 12.293 130.836 11.8496 130.836 11.2949C130.836 10.6895 131.018 10.2109 131.381 9.85938C131.744 9.50391 132.254 9.31055 132.91 9.2793L133.596 9.24414V8.7168C133.596 8.12305 133.521 7.69141 133.373 7.42188C133.225 7.14844 132.979 7.01172 132.635 7.01172C132.271 7.01172 131.9 7.13086 131.521 7.36914L131.281 6.92969C131.723 6.65625 132.186 6.51953 132.67 6.51953C133.193 6.51953 133.57 6.68555 133.801 7.01758C134.031 7.3457 134.146 7.89648 134.146 8.66992V13H133.689ZM132.336 12.6426C132.734 12.6426 133.043 12.4473 133.262 12.0566C133.484 11.6621 133.596 11.1055 133.596 10.3867V9.72461L132.934 9.75977C132.422 9.78711 132.041 9.92969 131.791 10.1875C131.545 10.4414 131.422 10.8145 131.422 11.3066C131.422 11.7676 131.504 12.1055 131.668 12.3203C131.832 12.5352 132.055 12.6426 132.336 12.6426ZM136.988 12.6016C137.16 12.6016 137.312 12.5781 137.445 12.5312V13C137.273 13.0781 137.053 13.1172 136.783 13.1172C136.127 13.1172 135.799 12.627 135.799 11.6465V7.13477H135.225V6.80664L135.787 6.64258L135.969 5.13086H136.355V6.64258H137.363V7.13477H136.355V11.4883C136.355 11.918 136.402 12.2109 136.496 12.3672C136.59 12.5234 136.754 12.6016 136.988 12.6016ZM140.094 13.1172C139.457 13.1172 138.977 12.8418 138.652 12.291C138.332 11.7363 138.172 10.9238 138.172 9.85352C138.172 8.76758 138.334 7.94141 138.658 7.375C138.986 6.80469 139.469 6.51953 140.105 6.51953C140.5 6.51953 140.828 6.5918 141.09 6.73633L140.873 7.22852C140.611 7.10742 140.371 7.04688 140.152 7.04688C139.219 7.04688 138.752 7.97852 138.752 9.8418C138.752 11.6895 139.219 12.6133 140.152 12.6133C140.43 12.6133 140.73 12.5508 141.055 12.4258V12.8945C140.926 12.9648 140.768 13.0195 140.58 13.0586C140.393 13.0977 140.23 13.1172 140.094 13.1172ZM145.057 13V8.61719C145.057 8.04297 144.98 7.63672 144.828 7.39844C144.68 7.15625 144.436 7.03516 144.096 7.03516C143.646 7.03516 143.309 7.23438 143.082 7.63281C142.855 8.03125 142.742 8.66016 142.742 9.51953V13H142.186V3.88281H142.742V6.8418C142.742 7.11133 142.734 7.33594 142.719 7.51562H142.766C142.891 7.19922 143.078 6.95508 143.328 6.7832C143.582 6.60742 143.846 6.51953 144.119 6.51953C144.658 6.51953 145.041 6.69531 145.268 7.04688C145.494 7.39844 145.607 7.92188 145.607 8.61719V13H145.057ZM150.711 12.6016C150.883 12.6016 151.035 12.5781 151.168 12.5312V13C150.996 13.0781 150.775 13.1172 150.506 13.1172C149.85 13.1172 149.521 12.627 149.521 11.6465V7.13477H148.947V6.80664L149.51 6.64258L149.691 5.13086H150.078V6.64258H151.086V7.13477H150.078V11.4883C150.078 11.918 150.125 12.2109 150.219 12.3672C150.312 12.5234 150.477 12.6016 150.711 12.6016ZM155.053 13V8.61719C155.053 8.04297 154.977 7.63672 154.824 7.39844C154.676 7.15625 154.432 7.03516 154.092 7.03516C153.643 7.03516 153.305 7.23438 153.078 7.63281C152.852 8.03125 152.738 8.66016 152.738 9.51953V13H152.182V3.88281H152.738V6.8418C152.738 7.11133 152.73 7.33594 152.715 7.51562H152.762C152.887 7.19922 153.074 6.95508 153.324 6.7832C153.578 6.60742 153.842 6.51953 154.115 6.51953C154.654 6.51953 155.037 6.69531 155.264 7.04688C155.49 7.39844 155.604 7.92188 155.604 8.61719V13H155.053ZM159.084 13.1172C158.412 13.1172 157.895 12.832 157.531 12.2617C157.172 11.6875 156.992 10.8887 156.992 9.86523C156.992 8.7793 157.152 7.95117 157.473 7.38086C157.797 6.80664 158.262 6.51953 158.867 6.51953C159.395 6.51953 159.811 6.77148 160.115 7.27539C160.42 7.77539 160.572 8.45117 160.572 9.30273V9.81836H157.561C157.568 10.7441 157.699 11.4375 157.953 11.8984C158.207 12.3594 158.592 12.5898 159.107 12.5898C159.506 12.5898 159.926 12.459 160.367 12.1973V12.7363C159.961 12.9902 159.533 13.1172 159.084 13.1172ZM158.832 7.02344C158.066 7.02344 157.646 7.78711 157.572 9.31445H160.016C160.016 8.61523 159.908 8.05859 159.693 7.64453C159.482 7.23047 159.195 7.02344 158.832 7.02344ZM166.297 13.1172C165.977 13.1172 165.684 13.0293 165.418 12.8535C165.156 12.6738 164.957 12.4297 164.82 12.1211H164.768L164.809 12.8184V15.8828H164.252V6.64258H164.709L164.768 7.51562H164.82C164.977 7.19531 165.176 6.94922 165.418 6.77734C165.664 6.60547 165.932 6.51953 166.221 6.51953C167.463 6.51953 168.084 7.61523 168.084 9.80664C168.084 10.8652 167.932 11.6816 167.627 12.2559C167.322 12.8301 166.879 13.1172 166.297 13.1172ZM166.186 7.04688C165.721 7.04688 165.375 7.25195 165.148 7.66211C164.922 8.07227 164.809 8.71484 164.809 9.58984V9.77148C164.809 10.748 164.924 11.4668 165.154 11.9277C165.385 12.3848 165.736 12.6133 166.209 12.6133C166.646 12.6133 166.971 12.3867 167.182 11.9336C167.396 11.4766 167.504 10.7676 167.504 9.80664C167.504 8.88867 167.404 8.19922 167.205 7.73828C167.006 7.27734 166.666 7.04688 166.186 7.04688ZM171.254 6.51953C171.453 6.51953 171.639 6.54688 171.811 6.60156L171.676 7.1582C171.535 7.09961 171.391 7.07031 171.242 7.07031C171.027 7.07031 170.826 7.18164 170.639 7.4043C170.455 7.62305 170.311 7.92969 170.205 8.32422C170.1 8.71875 170.047 9.1543 170.047 9.63086V13H169.49V6.64258H169.947L170.006 7.75586H170.047C170.344 6.93164 170.746 6.51953 171.254 6.51953ZM173.328 13H172.771V6.64258H173.328V13ZM172.689 4.87891C172.689 4.70312 172.725 4.56641 172.795 4.46875C172.869 4.37109 172.963 4.32227 173.076 4.32227C173.182 4.32227 173.266 4.37109 173.328 4.46875C173.391 4.56641 173.422 4.70312 173.422 4.87891C173.422 5.04688 173.391 5.18164 173.328 5.2832C173.266 5.38086 173.182 5.42969 173.076 5.42969C172.963 5.42969 172.869 5.38086 172.795 5.2832C172.725 5.18164 172.689 5.04688 172.689 4.87891ZM178.613 9.80664C178.613 10.877 178.443 11.6973 178.104 12.2676C177.768 12.834 177.285 13.1172 176.656 13.1172C176.035 13.1172 175.559 12.834 175.227 12.2676C174.898 11.6973 174.734 10.877 174.734 9.80664C174.734 7.61523 175.383 6.51953 176.68 6.51953C177.289 6.51953 177.764 6.80664 178.104 7.38086C178.443 7.95508 178.613 8.76367 178.613 9.80664ZM175.314 9.80664C175.314 10.7246 175.424 11.418 175.643 11.8867C175.861 12.3555 176.203 12.5898 176.668 12.5898C177.578 12.5898 178.033 11.6621 178.033 9.80664C178.033 7.9668 177.578 7.04688 176.668 7.04688C176.191 7.04688 175.846 7.27734 175.631 7.73828C175.42 8.19922 175.314 8.88867 175.314 9.80664ZM181.777 6.51953C181.977 6.51953 182.162 6.54688 182.334 6.60156L182.199 7.1582C182.059 7.09961 181.914 7.07031 181.766 7.07031C181.551 7.07031 181.35 7.18164 181.162 7.4043C180.979 7.62305 180.834 7.92969 180.729 8.32422C180.623 8.71875 180.57 9.1543 180.57 9.63086V13H180.014V6.64258H180.471L180.529 7.75586H180.57C180.867 6.93164 181.27 6.51953 181.777 6.51953ZM186.125 9.85352L186.482 9.20898L188.053 6.64258H188.656L187.191 8.98047L188.785 13H188.199L186.816 9.49609L186.113 10.4219V13H185.557V3.88281H186.113V8.78711L186.072 9.85352H186.125ZM192.6 13V8.61719C192.6 7.5625 192.287 7.03516 191.662 7.03516C191.186 7.03516 190.836 7.23242 190.613 7.62695C190.395 8.02148 190.285 8.64844 190.285 9.50781V13H189.729V6.64258H190.197L190.244 7.52734H190.297C190.43 7.20703 190.621 6.95898 190.871 6.7832C191.121 6.60742 191.389 6.51953 191.674 6.51953C192.166 6.51953 192.535 6.68555 192.781 7.01758C193.027 7.3457 193.15 7.875 193.15 8.60547V13H192.6ZM198.406 9.80664C198.406 10.877 198.236 11.6973 197.896 12.2676C197.561 12.834 197.078 13.1172 196.449 13.1172C195.828 13.1172 195.352 12.834 195.02 12.2676C194.691 11.6973 194.527 10.877 194.527 9.80664C194.527 7.61523 195.176 6.51953 196.473 6.51953C197.082 6.51953 197.557 6.80664 197.896 7.38086C198.236 7.95508 198.406 8.76367 198.406 9.80664ZM195.107 9.80664C195.107 10.7246 195.217 11.418 195.436 11.8867C195.654 12.3555 195.996 12.5898 196.461 12.5898C197.371 12.5898 197.826 11.6621 197.826 9.80664C197.826 7.9668 197.371 7.04688 196.461 7.04688C195.984 7.04688 195.639 7.27734 195.424 7.73828C195.213 8.19922 195.107 8.88867 195.107 9.80664ZM203.34 13L202.461 8.69336C202.453 8.66211 202.445 8.62891 202.438 8.59375C202.434 8.55859 202.373 8.18359 202.256 7.46875H202.244L202.162 7.9668L202.027 8.69336L201.119 13H200.457L199.074 6.64258H199.631L200.422 10.3457L200.791 12.2793H200.826C200.896 11.7207 201.01 11.0723 201.166 10.334L201.957 6.64258H202.543L203.34 10.3457C203.402 10.623 203.514 11.2676 203.674 12.2793H203.709C203.721 12.1504 203.777 11.8262 203.879 11.3066C203.984 10.7871 204.316 9.23242 204.875 6.64258H205.426L203.996 13H203.34ZM206.949 13H206.393V3.88281H206.949V13ZM210.459 13.1172C209.787 13.1172 209.27 12.832 208.906 12.2617C208.547 11.6875 208.367 10.8887 208.367 9.86523C208.367 8.7793 208.527 7.95117 208.848 7.38086C209.172 6.80664 209.637 6.51953 210.242 6.51953C210.77 6.51953 211.186 6.77148 211.49 7.27539C211.795 7.77539 211.947 8.45117 211.947 9.30273V9.81836H208.936C208.943 10.7441 209.074 11.4375 209.328 11.8984C209.582 12.3594 209.967 12.5898 210.482 12.5898C210.881 12.5898 211.301 12.459 211.742 12.1973V12.7363C211.336 12.9902 210.908 13.1172 210.459 13.1172ZM210.207 7.02344C209.441 7.02344 209.021 7.78711 208.947 9.31445H211.391C211.391 8.61523 211.283 8.05859 211.068 7.64453C210.857 7.23047 210.57 7.02344 210.207 7.02344ZM214.918 13.1172C213.684 13.1172 213.066 12.0215 213.066 9.83008C213.066 8.75195 213.221 7.93164 213.529 7.36914C213.838 6.80273 214.293 6.51953 214.895 6.51953C215.18 6.51953 215.449 6.60156 215.703 6.76562C215.961 6.92969 216.166 7.15625 216.318 7.44531H216.365L216.342 6.73633V3.88281H216.898V13H216.441L216.395 12.1094H216.342C216.189 12.4336 215.992 12.6836 215.75 12.8594C215.508 13.0312 215.23 13.1172 214.918 13.1172ZM214.953 12.6309C215.398 12.6309 215.74 12.4258 215.979 12.0156C216.221 11.6016 216.342 10.9941 216.342 10.1934V9.83008C216.342 8.86914 216.225 8.16602 215.99 7.7207C215.76 7.27148 215.406 7.04688 214.93 7.04688C214.473 7.04688 214.145 7.28711 213.945 7.76758C213.746 8.24414 213.646 8.93555 213.646 9.8418C213.646 10.7559 213.75 11.4492 213.957 11.9219C214.164 12.3945 214.496 12.6309 214.953 12.6309ZM221.932 6.64258V7.03516L221.064 7.13477C221.182 7.28711 221.277 7.50586 221.352 7.79102C221.426 8.07227 221.463 8.36133 221.463 8.6582C221.463 9.27539 221.322 9.77539 221.041 10.1582C220.764 10.541 220.396 10.7324 219.939 10.7324H219.799L219.676 10.7207C219.488 10.8535 219.34 10.9863 219.23 11.1191C219.125 11.252 219.072 11.4062 219.072 11.582C219.072 11.7617 219.143 11.9023 219.283 12.0039C219.424 12.1016 219.613 12.1504 219.852 12.1504H220.25C220.816 12.1504 221.256 12.2969 221.568 12.5898C221.881 12.8828 222.037 13.3066 222.037 13.8613C222.037 14.4824 221.826 14.9746 221.404 15.3379C220.986 15.7012 220.434 15.8828 219.746 15.8828C219.172 15.8828 218.73 15.7363 218.422 15.4434C218.113 15.1543 217.959 14.7363 217.959 14.1895C217.959 13.791 218.061 13.4492 218.264 13.1641C218.467 12.8828 218.785 12.6602 219.219 12.4961C219.023 12.4102 218.865 12.291 218.744 12.1387C218.627 11.9863 218.568 11.8047 218.568 11.5938C218.568 11.4023 218.631 11.2324 218.756 11.084C218.885 10.9316 219.066 10.7695 219.301 10.5977C218.977 10.4492 218.73 10.209 218.562 9.87695C218.398 9.54492 218.316 9.1543 218.316 8.70508C218.316 8.0293 218.459 7.49609 218.744 7.10547C219.029 6.71484 219.42 6.51953 219.916 6.51953C220.182 6.51953 220.404 6.56055 220.584 6.64258H221.932ZM218.51 14.1426C218.51 14.5449 218.613 14.8594 218.82 15.0859C219.031 15.3125 219.348 15.4258 219.77 15.4258C220.293 15.4258 220.707 15.2891 221.012 15.0156C221.32 14.7422 221.475 14.3672 221.475 13.8906C221.475 13.5078 221.369 13.2109 221.158 13C220.951 12.793 220.648 12.6895 220.25 12.6895H219.84C219.457 12.6895 219.139 12.8223 218.885 13.0879C218.635 13.3574 218.51 13.709 218.51 14.1426ZM218.855 8.7168C218.855 9.23633 218.951 9.63086 219.143 9.90039C219.334 10.166 219.588 10.2988 219.904 10.2988C220.584 10.2988 220.924 9.75195 220.924 8.6582C220.924 8.13086 220.836 7.71875 220.66 7.42188C220.488 7.125 220.236 6.97656 219.904 6.97656C219.564 6.97656 219.305 7.12891 219.125 7.43359C218.945 7.73828 218.855 8.16602 218.855 8.7168ZM224.756 13.1172C224.084 13.1172 223.566 12.832 223.203 12.2617C222.844 11.6875 222.664 10.8887 222.664 9.86523C222.664 8.7793 222.824 7.95117 223.145 7.38086C223.469 6.80664 223.934 6.51953 224.539 6.51953C225.066 6.51953 225.482 6.77148 225.787 7.27539C226.092 7.77539 226.244 8.45117 226.244 9.30273V9.81836H223.232C223.24 10.7441 223.371 11.4375 223.625 11.8984C223.879 12.3594 224.264 12.5898 224.779 12.5898C225.178 12.5898 225.598 12.459 226.039 12.1973V12.7363C225.633 12.9902 225.205 13.1172 224.756 13.1172ZM224.504 7.02344C223.738 7.02344 223.318 7.78711 223.244 9.31445H225.688C225.688 8.61523 225.58 8.05859 225.365 7.64453C225.154 7.23047 224.867 7.02344 224.504 7.02344Z" fill="black"/>
<rect x="0.5" y="0.5" width="231" height="113" stroke="white"/>
</svg>
