<svg width="160" height="103" viewBox="0 0 160 103" fill="none" xmlns="http://www.w3.org/2000/svg">
<path d="M46.4492 56.5414H45.7168L42.4766 48.8598H42.4297C42.4766 49.391 42.5 49.9028 42.5 50.395V56.5414H41.9375V47.975H42.6816L45.8984 55.5688H45.9336C45.9023 54.9282 45.8867 54.393 45.8867 53.9633V47.975H46.4492V56.5414ZM51.8164 53.3481C51.8164 54.4184 51.6465 55.2387 51.3066 55.809C50.9707 56.3754 50.4883 56.6586 49.8594 56.6586C49.2383 56.6586 48.7617 56.3754 48.4297 55.809C48.1016 55.2387 47.9375 54.4184 47.9375 53.3481C47.9375 51.1567 48.5859 50.061 49.8828 50.061C50.4922 50.061 50.9668 50.3481 51.3066 50.9223C51.6465 51.4965 51.8164 52.3051 51.8164 53.3481ZM48.5176 53.3481C48.5176 54.266 48.627 54.9594 48.8457 55.4282C49.0645 55.8969 49.4062 56.1313 49.8711 56.1313C50.7812 56.1313 51.2363 55.2035 51.2363 53.3481C51.2363 51.5082 50.7812 50.5883 49.8711 50.5883C49.3945 50.5883 49.0488 50.8188 48.834 51.2797C48.623 51.7407 48.5176 52.4301 48.5176 53.3481ZM56.0879 56.5414V52.1586C56.0879 51.1039 55.7754 50.5766 55.1504 50.5766C54.6738 50.5766 54.3242 50.7739 54.1016 51.1684C53.8828 51.5629 53.7734 52.1899 53.7734 53.0492V56.5414H53.2168V50.184H53.6855L53.7324 51.0688H53.7852C53.918 50.7485 54.1094 50.5004 54.3594 50.3246C54.6094 50.1489 54.877 50.061 55.1621 50.061C55.6543 50.061 56.0234 50.227 56.2695 50.559C56.5156 50.8871 56.6387 51.4164 56.6387 52.1469V56.5414H56.0879ZM65.9785 56.5414V52.2114C65.9785 51.145 65.666 50.6117 65.041 50.6117C64.6113 50.6117 64.3008 50.7992 64.1094 51.1742C63.9219 51.5453 63.8281 52.0942 63.8281 52.8207V56.5414H63.2773V52.2114C63.2773 51.6723 63.2012 51.2719 63.0488 51.0102C62.8965 50.7446 62.6602 50.6117 62.3398 50.6117C61.918 50.6117 61.6113 50.8032 61.4199 51.186C61.2285 51.5688 61.1328 52.1899 61.1328 53.0492V56.5414H60.5762V50.184H61.0449L61.0918 51.0688H61.1445C61.3984 50.3969 61.8301 50.061 62.4395 50.061C62.791 50.061 63.0684 50.1547 63.2715 50.3422C63.4746 50.5297 63.6211 50.8032 63.7109 51.1625C63.8633 50.7719 64.0508 50.4907 64.2734 50.3188C64.4961 50.1469 64.7852 50.061 65.1406 50.061C65.6211 50.061 65.9727 50.2465 66.1953 50.6176C66.418 50.9848 66.5293 51.5746 66.5293 52.3871V56.5414H65.9785ZM70.6777 56.5414L70.6074 55.6508H70.584C70.2793 56.3227 69.8184 56.6586 69.2012 56.6586C68.7871 56.6586 68.4531 56.4946 68.1992 56.1664C67.9492 55.8344 67.8242 55.391 67.8242 54.8364C67.8242 54.2309 68.0059 53.7524 68.3691 53.4008C68.7324 53.0453 69.2422 52.852 69.8984 52.8207L70.584 52.7856V52.2582C70.584 51.6645 70.5098 51.2328 70.3613 50.9633C70.2129 50.6899 69.9668 50.5532 69.623 50.5532C69.2598 50.5532 68.8887 50.6723 68.5098 50.9106L68.2695 50.4711C68.7109 50.1977 69.1738 50.061 69.6582 50.061C70.1816 50.061 70.5586 50.227 70.7891 50.559C71.0195 50.8871 71.1348 51.4379 71.1348 52.2114V56.5414H70.6777ZM69.3242 56.184C69.7227 56.184 70.0312 55.9887 70.25 55.5981C70.4727 55.2035 70.584 54.6469 70.584 53.9282V53.266L69.9219 53.3012C69.4102 53.3285 69.0293 53.4711 68.7793 53.7289C68.5332 53.9828 68.4102 54.3559 68.4102 54.8481C68.4102 55.309 68.4922 55.6469 68.6562 55.8617C68.8203 56.0766 69.043 56.184 69.3242 56.184ZM73.9766 56.143C74.1484 56.143 74.3008 56.1196 74.4336 56.0727V56.5414C74.2617 56.6196 74.041 56.6586 73.7715 56.6586C73.1152 56.6586 72.7871 56.1684 72.7871 55.1879V50.6762H72.2129V50.3481L72.7754 50.184L72.957 48.6723H73.3438V50.184H74.3516V50.6762H73.3438V55.0297C73.3438 55.4594 73.3906 55.7524 73.4844 55.9086C73.5781 56.0649 73.7422 56.143 73.9766 56.143ZM77.082 56.6586C76.4453 56.6586 75.9648 56.3832 75.6406 55.8325C75.3203 55.2778 75.1602 54.4653 75.1602 53.395C75.1602 52.309 75.3223 51.4828 75.6465 50.9164C75.9746 50.3461 76.457 50.061 77.0938 50.061C77.4883 50.061 77.8164 50.1332 78.0781 50.2778L77.8613 50.77C77.5996 50.6489 77.3594 50.5883 77.1406 50.5883C76.207 50.5883 75.7402 51.52 75.7402 53.3832C75.7402 55.2309 76.207 56.1547 77.1406 56.1547C77.418 56.1547 77.7188 56.0922 78.043 55.9672V56.436C77.9141 56.5063 77.7559 56.561 77.5684 56.6C77.3809 56.6391 77.2188 56.6586 77.082 56.6586ZM82.0449 56.5414V52.1586C82.0449 51.5844 81.9688 51.1782 81.8164 50.9399C81.668 50.6977 81.4238 50.5766 81.084 50.5766C80.6348 50.5766 80.2969 50.7758 80.0703 51.1742C79.8438 51.5727 79.7305 52.2016 79.7305 53.061V56.5414H79.1738V47.4242H79.7305V50.3832C79.7305 50.6528 79.7227 50.8774 79.707 51.0571H79.7539C79.8789 50.7407 80.0664 50.4965 80.3164 50.3246C80.5703 50.1489 80.834 50.061 81.1074 50.061C81.6465 50.061 82.0293 50.2367 82.2559 50.5883C82.4824 50.9399 82.5957 51.4633 82.5957 52.1586V56.5414H82.0449ZM86.0762 56.6586C85.4043 56.6586 84.8867 56.3735 84.5234 55.8032C84.1641 55.2289 83.9844 54.4301 83.9844 53.4067C83.9844 52.3207 84.1445 51.4926 84.4648 50.9223C84.7891 50.3481 85.2539 50.061 85.8594 50.061C86.3867 50.061 86.8027 50.3129 87.1074 50.8168C87.4121 51.3168 87.5645 51.9926 87.5645 52.8442V53.3598H84.5527C84.5605 54.2856 84.6914 54.9789 84.9453 55.4399C85.1992 55.9008 85.584 56.1313 86.0996 56.1313C86.498 56.1313 86.918 56.0004 87.3594 55.7387V56.2778C86.9531 56.5317 86.5254 56.6586 86.0762 56.6586ZM85.8242 50.5649C85.0586 50.5649 84.6387 51.3285 84.5645 52.8559H87.0078C87.0078 52.1567 86.9004 51.6 86.6855 51.186C86.4746 50.7719 86.1875 50.5649 85.8242 50.5649ZM90.5352 56.6586C89.3008 56.6586 88.6836 55.5629 88.6836 53.3715C88.6836 52.2934 88.8379 51.4731 89.1465 50.9106C89.4551 50.3442 89.9102 50.061 90.5117 50.061C90.7969 50.061 91.0664 50.143 91.3203 50.3071C91.5781 50.4711 91.7832 50.6977 91.9355 50.9867H91.9824L91.959 50.2778V47.4242H92.5156V56.5414H92.0586L92.0117 55.6508H91.959C91.8066 55.975 91.6094 56.225 91.3672 56.4008C91.125 56.5727 90.8477 56.6586 90.5352 56.6586ZM90.5703 56.1723C91.0156 56.1723 91.3574 55.9672 91.5957 55.5571C91.8379 55.143 91.959 54.5356 91.959 53.7348V53.3715C91.959 52.4106 91.8418 51.7075 91.6074 51.2621C91.377 50.8129 91.0234 50.5883 90.5469 50.5883C90.0898 50.5883 89.7617 50.8285 89.5625 51.309C89.3633 51.7856 89.2637 52.477 89.2637 53.3832C89.2637 54.2973 89.3672 54.9907 89.5742 55.4633C89.7812 55.936 90.1133 56.1723 90.5703 56.1723ZM98.5273 56.6586C98.207 56.6586 97.9141 56.5707 97.6484 56.395C97.3867 56.2153 97.1875 55.9711 97.0508 55.6625H96.998L97.0391 56.3598V59.4242H96.4824V50.184H96.9395L96.998 51.0571H97.0508C97.207 50.7367 97.4062 50.4907 97.6484 50.3188C97.8945 50.1469 98.1621 50.061 98.4512 50.061C99.6934 50.061 100.314 51.1567 100.314 53.3481C100.314 54.4067 100.162 55.2231 99.8574 55.7973C99.5527 56.3715 99.1094 56.6586 98.5273 56.6586ZM98.416 50.5883C97.9512 50.5883 97.6055 50.7934 97.3789 51.2035C97.1523 51.6137 97.0391 52.2563 97.0391 53.1313V53.3129C97.0391 54.2895 97.1543 55.0082 97.3848 55.4692C97.6152 55.9262 97.9668 56.1547 98.4395 56.1547C98.877 56.1547 99.2012 55.9282 99.4121 55.475C99.627 55.018 99.7344 54.309 99.7344 53.3481C99.7344 52.4301 99.6348 51.7407 99.4355 51.2797C99.2363 50.8188 98.8965 50.5883 98.416 50.5883ZM103.525 56.6586C102.854 56.6586 102.336 56.3735 101.973 55.8032C101.613 55.2289 101.434 54.4301 101.434 53.4067C101.434 52.3207 101.594 51.4926 101.914 50.9223C102.238 50.3481 102.703 50.061 103.309 50.061C103.836 50.061 104.252 50.3129 104.557 50.8168C104.861 51.3168 105.014 51.9926 105.014 52.8442V53.3598H102.002C102.01 54.2856 102.141 54.9789 102.395 55.4399C102.648 55.9008 103.033 56.1313 103.549 56.1313C103.947 56.1313 104.367 56.0004 104.809 55.7387V56.2778C104.402 56.5317 103.975 56.6586 103.525 56.6586ZM103.273 50.5649C102.508 50.5649 102.088 51.3285 102.014 52.8559H104.457C104.457 52.1567 104.35 51.6 104.135 51.186C103.924 50.7719 103.637 50.5649 103.273 50.5649ZM110.012 53.3481C110.012 54.4184 109.842 55.2387 109.502 55.809C109.166 56.3754 108.684 56.6586 108.055 56.6586C107.434 56.6586 106.957 56.3754 106.625 55.809C106.297 55.2387 106.133 54.4184 106.133 53.3481C106.133 51.1567 106.781 50.061 108.078 50.061C108.688 50.061 109.162 50.3481 109.502 50.9223C109.842 51.4965 110.012 52.3051 110.012 53.3481ZM106.713 53.3481C106.713 54.266 106.822 54.9594 107.041 55.4282C107.26 55.8969 107.602 56.1313 108.066 56.1313C108.977 56.1313 109.432 55.2035 109.432 53.3481C109.432 51.5082 108.977 50.5883 108.066 50.5883C107.59 50.5883 107.244 50.8188 107.029 51.2797C106.818 51.7407 106.713 52.4301 106.713 53.3481ZM113.457 56.6586C113.137 56.6586 112.844 56.5707 112.578 56.395C112.316 56.2153 112.117 55.9711 111.98 55.6625H111.928L111.969 56.3598V59.4242H111.412V50.184H111.869L111.928 51.0571H111.98C112.137 50.7367 112.336 50.4907 112.578 50.3188C112.824 50.1469 113.092 50.061 113.381 50.061C114.623 50.061 115.244 51.1567 115.244 53.3481C115.244 54.4067 115.092 55.2231 114.787 55.7973C114.482 56.3715 114.039 56.6586 113.457 56.6586ZM113.346 50.5883C112.881 50.5883 112.535 50.7934 112.309 51.2035C112.082 51.6137 111.969 52.2563 111.969 53.1313V53.3129C111.969 54.2895 112.084 55.0082 112.314 55.4692C112.545 55.9262 112.896 56.1547 113.369 56.1547C113.807 56.1547 114.131 55.9282 114.342 55.475C114.557 55.018 114.664 54.309 114.664 53.3481C114.664 52.4301 114.564 51.7407 114.365 51.2797C114.166 50.8188 113.826 50.5883 113.346 50.5883ZM117.207 56.5414H116.65V47.4242H117.207V56.5414ZM120.717 56.6586C120.045 56.6586 119.527 56.3735 119.164 55.8032C118.805 55.2289 118.625 54.4301 118.625 53.4067C118.625 52.3207 118.785 51.4926 119.105 50.9223C119.43 50.3481 119.895 50.061 120.5 50.061C121.027 50.061 121.443 50.3129 121.748 50.8168C122.053 51.3168 122.205 51.9926 122.205 52.8442V53.3598H119.193C119.201 54.2856 119.332 54.9789 119.586 55.4399C119.84 55.9008 120.225 56.1313 120.74 56.1313C121.139 56.1313 121.559 56.0004 122 55.7387V56.2778C121.594 56.5317 121.166 56.6586 120.717 56.6586ZM120.465 50.5649C119.699 50.5649 119.279 51.3285 119.205 52.8559H121.648C121.648 52.1567 121.541 51.6 121.326 51.186C121.115 50.7719 120.828 50.5649 120.465 50.5649Z" fill="black"/>
<path d="M46.5898 83.7879C46.5898 85.2059 46.377 86.2958 45.9512 87.0575C45.5293 87.8192 44.918 88.2001 44.1172 88.2001C43.3086 88.2001 42.6953 87.8172 42.2773 87.0516C41.8594 86.2821 41.6504 85.1903 41.6504 83.7762C41.6504 82.2997 41.8574 81.2001 42.2715 80.4774C42.6855 79.7547 43.3066 79.3934 44.1348 79.3934C44.9316 79.3934 45.5391 79.7743 45.957 80.536C46.3789 81.2938 46.5898 82.3778 46.5898 83.7879ZM42.248 83.7879C42.248 85.0614 42.4062 86.0243 42.7227 86.6766C43.043 87.3251 43.5078 87.6493 44.1172 87.6493C44.7305 87.6493 45.1953 87.327 45.5117 86.6825C45.832 86.0379 45.9922 85.0731 45.9922 83.7879C45.9922 82.5184 45.8359 81.5614 45.5234 80.9169C45.2109 80.2684 44.748 79.9442 44.1348 79.9442C43.5059 79.9442 43.0332 80.2723 42.7168 80.9286C42.4043 81.5809 42.248 82.534 42.248 83.7879ZM49.2617 87.6844C49.4336 87.6844 49.5859 87.661 49.7188 87.6141V88.0829C49.5469 88.161 49.3262 88.2001 49.0566 88.2001C48.4004 88.2001 48.0723 87.7098 48.0723 86.7294V82.2176H47.498V81.8895L48.0605 81.7254L48.2422 80.2137H48.6289V81.7254H49.6367V82.2176H48.6289V86.5712C48.6289 87.0008 48.6758 87.2938 48.7695 87.4501C48.8633 87.6063 49.0273 87.6844 49.2617 87.6844ZM53.6035 88.0829V83.7001C53.6035 83.1258 53.5273 82.7196 53.375 82.4813C53.2266 82.2391 52.9824 82.118 52.6426 82.118C52.1934 82.118 51.8555 82.3172 51.6289 82.7157C51.4023 83.1141 51.2891 83.743 51.2891 84.6024V88.0829H50.7324V78.9657H51.2891V81.9247C51.2891 82.1942 51.2812 82.4188 51.2656 82.5985H51.3125C51.4375 82.2821 51.625 82.0379 51.875 81.8661C52.1289 81.6903 52.3926 81.6024 52.666 81.6024C53.2051 81.6024 53.5879 81.7782 53.8145 82.1297C54.041 82.4813 54.1543 83.0047 54.1543 83.7001V88.0829H53.6035ZM57.6348 88.2001C56.9629 88.2001 56.4453 87.9149 56.082 87.3446C55.7227 86.7704 55.543 85.9715 55.543 84.9481C55.543 83.8622 55.7031 83.034 56.0234 82.4637C56.3477 81.8895 56.8125 81.6024 57.418 81.6024C57.9453 81.6024 58.3613 81.8544 58.666 82.3583C58.9707 82.8583 59.123 83.534 59.123 84.3856V84.9012H56.1113C56.1191 85.827 56.25 86.5204 56.5039 86.9813C56.7578 87.4422 57.1426 87.6727 57.6582 87.6727C58.0566 87.6727 58.4766 87.5419 58.918 87.2801V87.8192C58.5117 88.0731 58.084 88.2001 57.6348 88.2001ZM57.3828 82.1063C56.6172 82.1063 56.1973 82.87 56.123 84.3973H58.5664C58.5664 83.6981 58.459 83.1415 58.2441 82.7274C58.0332 82.3133 57.7461 82.1063 57.3828 82.1063ZM62.3047 81.6024C62.5039 81.6024 62.6895 81.6297 62.8613 81.6844L62.7266 82.2411C62.5859 82.1825 62.4414 82.1532 62.293 82.1532C62.0781 82.1532 61.877 82.2645 61.6895 82.4872C61.5059 82.7059 61.3613 83.0126 61.2559 83.4071C61.1504 83.8016 61.0977 84.2372 61.0977 84.7137V88.0829H60.541V81.7254H60.998L61.0566 82.8387H61.0977C61.3945 82.0145 61.7969 81.6024 62.3047 81.6024ZM68.1289 88.2001C67.8086 88.2001 67.5156 88.1122 67.25 87.9364C66.9883 87.7567 66.7891 87.5126 66.6523 87.204H66.5996L66.6406 87.9012V90.9657H66.084V81.7254H66.541L66.5996 82.5985H66.6523C66.8086 82.2782 67.0078 82.0321 67.25 81.8602C67.4961 81.6883 67.7637 81.6024 68.0527 81.6024C69.2949 81.6024 69.916 82.6981 69.916 84.8895C69.916 85.9481 69.7637 86.7645 69.459 87.3387C69.1543 87.9129 68.7109 88.2001 68.1289 88.2001ZM68.0176 82.1297C67.5527 82.1297 67.207 82.3348 66.9805 82.745C66.7539 83.1551 66.6406 83.7977 66.6406 84.6727V84.8544C66.6406 85.8309 66.7559 86.5497 66.9863 87.0106C67.2168 87.4676 67.5684 87.6962 68.041 87.6962C68.4785 87.6962 68.8027 87.4696 69.0137 87.0165C69.2285 86.5594 69.3359 85.8504 69.3359 84.8895C69.3359 83.9715 69.2363 83.2821 69.0371 82.8212C68.8379 82.3602 68.498 82.1297 68.0176 82.1297ZM73.127 88.2001C72.4551 88.2001 71.9375 87.9149 71.5742 87.3446C71.2148 86.7704 71.0352 85.9715 71.0352 84.9481C71.0352 83.8622 71.1953 83.034 71.5156 82.4637C71.8398 81.8895 72.3047 81.6024 72.9102 81.6024C73.4375 81.6024 73.8535 81.8544 74.1582 82.3583C74.4629 82.8583 74.6152 83.534 74.6152 84.3856V84.9012H71.6035C71.6113 85.827 71.7422 86.5204 71.9961 86.9813C72.25 87.4422 72.6348 87.6727 73.1504 87.6727C73.5488 87.6727 73.9688 87.5419 74.4102 87.2801V87.8192C74.0039 88.0731 73.5762 88.2001 73.127 88.2001ZM72.875 82.1063C72.1094 82.1063 71.6895 82.87 71.6152 84.3973H74.0586C74.0586 83.6981 73.9512 83.1415 73.7363 82.7274C73.5254 82.3133 73.2383 82.1063 72.875 82.1063ZM79.6133 84.8895C79.6133 85.9598 79.4434 86.7801 79.1035 87.3504C78.7676 87.9169 78.2852 88.2001 77.6562 88.2001C77.0352 88.2001 76.5586 87.9169 76.2266 87.3504C75.8984 86.7801 75.7344 85.9598 75.7344 84.8895C75.7344 82.6981 76.3828 81.6024 77.6797 81.6024C78.2891 81.6024 78.7637 81.8895 79.1035 82.4637C79.4434 83.0379 79.6133 83.8465 79.6133 84.8895ZM76.3145 84.8895C76.3145 85.8075 76.4238 86.5008 76.6426 86.9696C76.8613 87.4383 77.2031 87.6727 77.668 87.6727C78.5781 87.6727 79.0332 86.745 79.0332 84.8895C79.0332 83.0497 78.5781 82.1297 77.668 82.1297C77.1914 82.1297 76.8457 82.3602 76.6309 82.8212C76.4199 83.2821 76.3145 83.9715 76.3145 84.8895ZM83.0586 88.2001C82.7383 88.2001 82.4453 88.1122 82.1797 87.9364C81.918 87.7567 81.7188 87.5126 81.582 87.204H81.5293L81.5703 87.9012V90.9657H81.0137V81.7254H81.4707L81.5293 82.5985H81.582C81.7383 82.2782 81.9375 82.0321 82.1797 81.8602C82.4258 81.6883 82.6934 81.6024 82.9824 81.6024C84.2246 81.6024 84.8457 82.6981 84.8457 84.8895C84.8457 85.9481 84.6934 86.7645 84.3887 87.3387C84.084 87.9129 83.6406 88.2001 83.0586 88.2001ZM82.9473 82.1297C82.4824 82.1297 82.1367 82.3348 81.9102 82.745C81.6836 83.1551 81.5703 83.7977 81.5703 84.6727V84.8544C81.5703 85.8309 81.6855 86.5497 81.916 87.0106C82.1465 87.4676 82.498 87.6962 82.9707 87.6962C83.4082 87.6962 83.7324 87.4696 83.9434 87.0165C84.1582 86.5594 84.2656 85.8504 84.2656 84.8895C84.2656 83.9715 84.166 83.2821 83.9668 82.8212C83.7676 82.3602 83.4277 82.1297 82.9473 82.1297ZM86.8086 88.0829H86.252V78.9657H86.8086V88.0829ZM90.3184 88.2001C89.6465 88.2001 89.1289 87.9149 88.7656 87.3446C88.4062 86.7704 88.2266 85.9715 88.2266 84.9481C88.2266 83.8622 88.3867 83.034 88.707 82.4637C89.0312 81.8895 89.4961 81.6024 90.1016 81.6024C90.6289 81.6024 91.0449 81.8544 91.3496 82.3583C91.6543 82.8583 91.8066 83.534 91.8066 84.3856V84.9012H88.7949C88.8027 85.827 88.9336 86.5204 89.1875 86.9813C89.4414 87.4422 89.8262 87.6727 90.3418 87.6727C90.7402 87.6727 91.1602 87.5419 91.6016 87.2801V87.8192C91.1953 88.0731 90.7676 88.2001 90.3184 88.2001ZM90.0664 82.1063C89.3008 82.1063 88.8809 82.87 88.8066 84.3973H91.25C91.25 83.6981 91.1426 83.1415 90.9277 82.7274C90.7168 82.3133 90.4297 82.1063 90.0664 82.1063Z" fill="black"/>
<path d="M33.47 51.5C33.47 57.0018 28.7972 61.5 22.985 61.5C17.1728 61.5 12.5 57.0018 12.5 51.5C12.5 45.9982 17.1728 41.5 22.985 41.5C28.7972 41.5 33.47 45.9982 33.47 51.5Z" fill="#6C757D" stroke="black"/>
<path d="M33.47 83.5C33.47 89.0018 28.7972 93.5 22.985 93.5C17.1728 93.5 12.5 89.0018 12.5 83.5C12.5 77.9982 17.1728 73.5 22.985 73.5C28.7972 73.5 33.47 77.9982 33.47 83.5Z" fill="white" stroke="black"/>
</svg>
