<svg xmlns="http://www.w3.org/2000/svg" data-name="Layer 1" viewBox="0 0 100 100" x="0px" y="0px"><title>Artboard 25</title><path d="M85.35,62.81a10.9,10.9,0,0,0-2.7-5.38,10.41,10.41,0,0,0-1.13-1.06l-1-.8c-.71-.52-1.38-1.11-2.15-1.57s-1.5-1-2.27-1.45l-2.4-1.3a42.75,42.75,0,0,0-10.59-3.63,46.48,46.48,0,0,0-5.72-.79c-1-.06-2-.1-2.94-.1h-.19l-.29-19,0-2.76v-.37l0-.51a8.76,8.76,0,0,0-.15-1A8.44,8.44,0,0,0,39.2,19.17a8.4,8.4,0,0,0-1.95,3.6,9.94,9.94,0,0,0-.2,1c0,.32-.06.73-.07,1l0,1.39C36.6,40.1,36.31,54,36.06,67.24a4.68,4.68,0,0,1-.82-.78l-2.38-4c-.43-.71-.76-1.32-1.37-2.21a13.72,13.72,0,0,0-2-2.19,12.91,12.91,0,0,0-5-2.75,12.38,12.38,0,0,0-2.79-.46,12.66,12.66,0,0,0-1.4,0c-.23,0-.46,0-.7.06l-.35,0-.47.09a5.5,5.5,0,0,0-4.32,5.74,5.24,5.24,0,0,0,.46,1.85l.19.4.13.24.26.48,1,1.91L20.46,73l7.17,13.21A11.86,11.86,0,0,0,30,89.32a11,11,0,0,0,3.2,2c.57.24,1,.4,1.5.59l1.41.53,2.69,1,.09,0h0a4.73,4.73,0,0,1,2.33,1.58,4.87,4.87,0,0,1,.55.85c.07.14.13.27.19.42l.2.52a1.38,1.38,0,0,0,1.81.84h0A1.4,1.4,0,0,0,44.73,96l-.16-.53c-.07-.21-.14-.44-.24-.67a7.29,7.29,0,0,0-.78-1.42,7.42,7.42,0,0,0-3.69-2.75l.11,0-5.34-2.42a7.64,7.64,0,0,1-2.13-1.51,8.33,8.33,0,0,1-1.57-2.31L24.28,71l-3.72-7.46-1-1.93-.24-.49-.12-.24c0-.07,0-.07,0-.1a.61.61,0,0,1-.05-.28.79.79,0,0,1,.64-.78l.09,0,.22,0c.15,0,.29,0,.44,0a7.89,7.89,0,0,1,.88,0,7.58,7.58,0,0,1,1.73.33,8,8,0,0,1,3.08,1.76,8.81,8.81,0,0,1,1.18,1.36c.28.43.73,1.22,1.12,1.9l2.42,4.22a2.51,2.51,0,0,0,.17.25,9.44,9.44,0,0,0,3.23,2.75,6.57,6.57,0,0,0,2.54.72,5.25,5.25,0,0,0,3.2-.83A2.67,2.67,0,0,0,41.23,70c.44-14,.85-28.85,1.21-43.72l0-1.39a3.26,3.26,0,0,1,.1-.77,2.91,2.91,0,0,1,.68-1.26,3,3,0,0,1,4.87.69,3,3,0,0,1,.24.68,3.34,3.34,0,0,1,.05.36l0,.18v.32l.06,2.76L49,49.53a2.74,2.74,0,0,0,0,.28A2.61,2.61,0,0,0,52,52.05c.68-.09,1.62-.13,2.45-.15s1.72,0,2.57,0a42.17,42.17,0,0,1,5.08.62,38.52,38.52,0,0,1,9.45,3l2.15,1.11c.7.39,1.37.83,2,1.23s1.3.9,1.94,1.34l.95.68a5.87,5.87,0,0,1,.69.61,6.57,6.57,0,0,1,1.82,4c0,.15,0,.29,0,.45v.59l0,2.32.16,8.87,0,2.1,0,1v.9a15.52,15.52,0,0,1-.57,3.48,19.11,19.11,0,0,1-3,6c-.32.43-.63.85-1,1.24l-.5.58c-.19.2-.42.47-.61.72a8.7,8.7,0,0,0-1,1.61,8.39,8.39,0,0,0-.34.85l-.23.74a1.42,1.42,0,0,0,.91,1.83,1.44,1.44,0,0,0,1.68-.92l.27-.67a5.71,5.71,0,0,1,.27-.54,5.94,5.94,0,0,1,.73-1c.15-.17.28-.3.47-.48s.42-.41.62-.62c.41-.42.8-.88,1.2-1.35a21.82,21.82,0,0,0,3.87-6.84,18.85,18.85,0,0,0,.92-4.29l.07-1.14,0-1,0-2.1.16-8.87,0-2.32V65c0-.24,0-.49,0-.73A10.79,10.79,0,0,0,85.35,62.81Z"></path><path d="M68.46,7.46c.13,0,.12,0,.12,0l0,0,0,0,0,0,0,0,0,0h0s0,0,0,.12c.06.77.14,1.51.26,2.2a10.27,10.27,0,0,0,1,3.35,5.81,5.81,0,0,0,1.47.1,4.83,4.83,0,0,0,1.28-.1,10.27,10.27,0,0,0,1-3.35c.11-.69.2-1.43.26-2.2a4.3,4.3,0,0,0,0-.46,4.37,4.37,0,0,0,0-.56,5.16,5.16,0,0,0-.28-1.11,5.33,5.33,0,0,0-3.18-3.17,5.14,5.14,0,0,0-1.11-.27,4.34,4.34,0,0,0-.56,0h-.45c-.77.06-1.51.15-2.2.27a10.24,10.24,0,0,0-3.35,1.05,5.7,5.7,0,0,0-.09,1.44,4.68,4.68,0,0,0,.09,1.24,10.24,10.24,0,0,0,3.35,1.05C67,7.31,67.69,7.4,68.46,7.46Z"></path><path d="M17.62,13.31a5.7,5.7,0,0,0,1.44.09,4.68,4.68,0,0,0,1.24-.09A10.24,10.24,0,0,0,21.35,10c.12-.69.21-1.43.27-2.2,0-.13,0-.12,0-.12l0,0,0,0,0,0,0,0,0,0v0s0,0,.12,0c.77-.06,1.51-.14,2.2-.26a10.27,10.27,0,0,0,3.35-1,5.81,5.81,0,0,0,.1-1.47,4.83,4.83,0,0,0-.1-1.28,10.27,10.27,0,0,0-3.35-1c-.69-.11-1.43-.2-2.2-.26h-.46a4.37,4.37,0,0,0-.56,0,5.16,5.16,0,0,0-1.11.28,5.33,5.33,0,0,0-3.17,3.18,5.14,5.14,0,0,0-.27,1.11,4.34,4.34,0,0,0,0,.56,4.12,4.12,0,0,0,0,.45c.06.77.15,1.51.27,2.2A10.24,10.24,0,0,0,17.62,13.31Z"></path><path d="M16.29,35.34a4.37,4.37,0,0,0,0,.56A5.16,5.16,0,0,0,16.61,37a5.33,5.33,0,0,0,3.18,3.17,5.14,5.14,0,0,0,1.11.27,4.34,4.34,0,0,0,.56,0h.45c.77-.06,1.51-.15,2.2-.27a10.24,10.24,0,0,0,3.35-1.05,5.7,5.7,0,0,0,.09-1.44,4.68,4.68,0,0,0-.09-1.24,10.24,10.24,0,0,0-3.35-1.05c-.69-.12-1.43-.21-2.2-.27-.13,0-.12,0-.12,0l0,0,0,0,0,0,0,0,0,0h0s0,0,0-.12c-.06-.77-.14-1.51-.26-2.2a10.27,10.27,0,0,0-1-3.35,5.81,5.81,0,0,0-1.47-.1,4.83,4.83,0,0,0-1.28.1,10.27,10.27,0,0,0-1,3.35c-.11.69-.2,1.43-.26,2.2A4.31,4.31,0,0,0,16.29,35.34Z"></path><path d="M62.91,39.21a10.27,10.27,0,0,0,3.35,1c.69.11,1.43.2,2.2.26h.46a4.39,4.39,0,0,0,.56,0,5.16,5.16,0,0,0,1.11-.28A5.33,5.33,0,0,0,73.76,37,5.14,5.14,0,0,0,74,35.9a4.34,4.34,0,0,0,0-.56,4.15,4.15,0,0,0,0-.45c-.06-.77-.15-1.51-.27-2.2a10.24,10.24,0,0,0-1.05-3.35,5.7,5.7,0,0,0-1.44-.09,4.68,4.68,0,0,0-1.24.09A10.24,10.24,0,0,0,69,32.69c-.12.69-.21,1.43-.27,2.2,0,.13,0,.12,0,.12l0,0,0,0,0,0,0,0,0,0v0s0,0-.12,0c-.77.06-1.51.14-2.2.26a10.27,10.27,0,0,0-3.35,1,5.81,5.81,0,0,0-.1,1.47A4.82,4.82,0,0,0,62.91,39.21Z"></path></svg>