<svg width="384.00000000000006" height="384.00000000000006" xmlns="http://www.w3.org/2000/svg" style="vector-effect: non-scaling-stroke;" stroke="null">

 <g stroke="null">
  <title stroke="null">background</title>
  <rect stroke="null" fill="none" id="canvas_background" height="386" width="386" y="-1" x="-1"/>
 </g>
 <g stroke="null">
  <title stroke="null">Layer 1</title>
  <rect stroke="null" id="svg_14" height="385.61223" width="31.93254" y="0.67016" x="-0.00744" fill-opacity="null" stroke-opacity="null" stroke-width="null" fill="null"/>
  <rect stroke="null" transform="rotate(-90 211.53767395019534,14.2240171432495) " id="svg_17" height="420.98649" width="31.93254" y="-196.26923" x="195.5714" fill-opacity="null" stroke-opacity="null" stroke-width="null" fill="null"/>
  <ellipse ry="7.82315" rx="8.16329" id="svg_19" cy="84.99286" cx="93.70037" fill-opacity="null" stroke-opacity="null" stroke-width="null" stroke="null" fill="null"/>
  <ellipse ry="7.82315" rx="8.16329" id="svg_20" cy="301.32007" cx="110.70723" fill-opacity="null" stroke-opacity="null" stroke-width="null" stroke="null" fill="null"/>
  <ellipse ry="7.82315" rx="8.16329" id="svg_21" cy="110.16301" cx="159.0067" fill-opacity="null" stroke-opacity="null" stroke-width="null" stroke="null" fill="null"/>
  <ellipse ry="7.82315" rx="8.16329" id="svg_22" cy="342.13653" cx="175.33328" fill-opacity="null" stroke-opacity="null" stroke-width="null" stroke="null" fill="null"/>
  <path stroke="#000000" id="svg_30" d="m123.79992,189.84026c0,-63.53591 -22.93857,-120.67086 -18.04654,-102.72783c4.89203,17.94303 17.78246,38.96427 17.78246,102.50018c0,63.53591 -21.80271,116.8603 -18.3947,106.99895c3.408,-9.86135 18.65878,-43.23538 18.65878,-106.7713z" transform="rotate(-4 114.28971862792987,190.78030395507815) " stroke-linecap="null" stroke-linejoin="null" stroke-width="NaN" fill="none"/>
  <path id="svg_33" d="m194.79468,226.50269c0.09491,-66.5506 -31.91958,-138.77597 -25.71726,-119.57061c6.20232,19.20536 26,52.80663 26,118c0,65.19337 -31.04946,132.32694 -26,118c5.04945,-14.32695 25.62236,-49.87878 25.71726,-116.42939z" transform="rotate(-4 181.67866516113372,224.33308410644534) " stroke-linecap="null" stroke-linejoin="null" stroke-width="NaN" stroke="#000000" fill="none"/>
  <rect stroke="null" transform="rotate(-90 211.53767395019534,14.2240171432495) " id="svg_34" height="420.98649" width="31.93254" y="-196.26923" x="195.5714" fill-opacity="null" stroke-opacity="null" stroke-width="null" fill="null"/>
  <ellipse ry="7.82315" rx="8.16329" id="svg_35" cy="110.16301" cx="159.0067" fill-opacity="null" stroke-opacity="null" stroke-width="null" stroke="null" fill="null"/>
  <ellipse ry="7.82315" rx="8.16329" id="svg_36" cy="342.13653" cx="175.33328" fill-opacity="null" stroke-opacity="null" stroke-width="null" stroke="null" fill="null"/>
  <path id="svg_37" d="m194.79468,226.50269c0.09491,-66.5506 -31.91958,-138.77597 -25.71726,-119.57061c6.20232,19.20536 26,52.80663 26,118c0,65.19337 -31.04946,132.32694 -26,118c5.04945,-14.32695 25.62236,-49.87878 25.71726,-116.42939z" transform="rotate(-4 181.67866516113372,224.33308410644534) " stroke-linecap="null" stroke-linejoin="null" stroke-width="NaN" stroke="#000000" fill="none"/>
  <ellipse ry="7.82315" rx="8.16329" id="svg_38" cy="67.98601" cx="223.63275" fill-opacity="null" stroke-opacity="null" stroke-width="null" stroke="null" fill="null"/>
  <ellipse ry="7.82315" rx="8.16329" id="svg_39" cy="299.95953" cx="239.95933" fill-opacity="null" stroke-opacity="null" stroke-width="null" stroke="null" fill="null"/>
  <path id="svg_40" d="m259.42073,184.32568c0.09491,-66.5506 -31.91958,-138.77597 -25.71726,-119.57061c6.20232,19.20536 26,52.80663 26,118c0,65.19337 -31.04946,132.32694 -26,118c5.04945,-14.32695 25.62236,-49.87878 25.71726,-116.42939z" transform="rotate(-4 246.30471801757898,182.15608215332006) " stroke-linecap="null" stroke-linejoin="null" stroke-width="NaN" stroke="#000000" fill="none"/>
  <ellipse ry="7.82315" rx="8.16329" id="svg_41" cy="67.98601" cx="223.63275" fill-opacity="null" stroke-opacity="null" stroke-width="null" stroke="null" fill="null"/>
  <ellipse ry="7.82315" rx="8.16329" id="svg_42" cy="299.95953" cx="239.95933" fill-opacity="null" stroke-opacity="null" stroke-width="null" stroke="null" fill="null"/>
  <path id="svg_43" d="m259.42073,184.32568c0.09491,-66.5506 -31.91958,-138.77597 -25.71726,-119.57061c6.20232,19.20536 26,52.80663 26,118c0,65.19337 -31.04946,132.32694 -26,118c5.04945,-14.32695 25.62236,-49.87878 25.71726,-116.42939z" transform="rotate(-4 246.30471801757898,182.15608215332006) " stroke-linecap="null" stroke-linejoin="null" stroke-width="NaN" stroke="#000000" fill="none"/>
  <ellipse ry="7.82315" rx="8.16329" id="svg_44" cy="135.33316" cx="274.65332" fill-opacity="null" stroke-opacity="null" stroke-width="null" stroke="null" fill="null"/>
  <ellipse ry="7.82315" rx="8.16329" id="svg_45" cy="367.30668" cx="290.9799" fill-opacity="null" stroke-opacity="null" stroke-width="null" stroke="null" fill="null"/>
  <path id="svg_46" d="m310.44131,251.67284c0.09491,-66.5506 -31.91958,-138.77597 -25.71726,-119.57061c6.20232,19.20536 26,52.80663 26,118c0,65.19337 -31.04946,132.32694 -26,118c5.04945,-14.32695 25.62236,-49.87878 25.71726,-116.42939z" transform="rotate(-4 297.3252868652333,249.50323486328088) " stroke-linecap="null" stroke-linejoin="null" stroke-width="NaN" stroke="#000000" fill="none"/>
  <ellipse ry="7.82315" rx="8.16329" id="svg_47" cy="135.33316" cx="274.65332" fill-opacity="null" stroke-opacity="null" stroke-width="null" stroke="null" fill="null"/>
  <ellipse ry="7.82315" rx="8.16329" id="svg_48" cy="367.30668" cx="290.9799" fill-opacity="null" stroke-opacity="null" stroke-width="null" stroke="null" fill="null"/>
  <path id="svg_49" d="m310.44131,251.67284c0.09491,-66.5506 -31.91958,-138.77597 -25.71726,-119.57061c6.20232,19.20536 26,52.80663 26,118c0,65.19337 -31.04946,132.32694 -26,118c5.04945,-14.32695 25.62236,-49.87878 25.71726,-116.42939z" transform="rotate(-4 297.3252868652333,249.50323486328088) " stroke-linecap="null" stroke-linejoin="null" stroke-width="NaN" stroke="#000000" fill="none"/>
  <ellipse ry="7.82315" rx="8.16329" id="svg_50" cy="138.73453" cx="100.50311" fill-opacity="null" stroke-opacity="null" stroke-width="null" stroke="null" fill="null"/>
  <ellipse ry="7.82315" rx="8.16329" id="svg_51" cy="370.70805" cx="116.82969" fill-opacity="null" stroke-opacity="null" stroke-width="null" stroke="null" fill="null"/>
  <path id="svg_52" d="m136.29109,255.07421c0.09491,-66.5506 -31.91958,-138.77597 -25.71726,-119.57061c6.20232,19.20536 26,52.80663 26,118c0,65.19337 -31.04946,132.32694 -26,118c5.04945,-14.32695 25.62236,-49.87878 25.71726,-116.42939z" transform="rotate(-4 123.17507934570469,252.90460205078114) " stroke-linecap="null" stroke-linejoin="null" stroke-width="NaN" stroke="#000000" fill="none"/>
  <ellipse ry="7.82315" rx="8.16329" id="svg_53" cy="138.73453" cx="100.50311" fill-opacity="null" stroke-opacity="null" stroke-width="null" stroke="null" fill="null"/>
  <ellipse ry="7.82315" rx="8.16329" id="svg_54" cy="370.70805" cx="116.82969" fill-opacity="null" stroke-opacity="null" stroke-width="null" stroke="null" fill="null"/>
  <path id="svg_55" d="m136.29109,255.07421c0.09491,-66.5506 -31.91958,-138.77597 -25.71726,-119.57061c6.20232,19.20536 26,52.80663 26,118c0,65.19337 -31.04946,132.32694 -26,118c5.04945,-14.32695 25.62236,-49.87878 25.71726,-116.42939z" transform="rotate(-4 123.17507934570469,252.90460205078114) " stroke-linecap="null" stroke-linejoin="null" stroke-width="NaN" stroke="#000000" fill="none"/>
  <ellipse ry="7.82315" rx="8.16329" id="svg_56" cy="125.80932" cx="229.75522" fill-opacity="null" stroke-opacity="null" stroke-width="null" stroke="null" fill="null"/>
  <ellipse ry="7.82315" rx="8.16329" id="svg_57" cy="357.78284" cx="246.0818" fill-opacity="null" stroke-opacity="null" stroke-width="null" stroke="null" fill="null"/>
  <path id="svg_58" d="m265.5432,242.149c0.09491,-66.5506 -31.91958,-138.77597 -25.71726,-119.57061c6.20232,19.20536 26,52.80663 26,118c0,65.19337 -31.04946,132.32694 -26,118c5.04945,-14.32695 25.62236,-49.87878 25.71726,-116.42939z" transform="rotate(-4 252.42718505859227,239.97938537597696) " stroke-linecap="null" stroke-linejoin="null" stroke-width="NaN" stroke="#000000" fill="none"/>
  <ellipse ry="7.82315" rx="8.16329" id="svg_59" cy="125.80932" cx="229.75522" fill-opacity="null" stroke-opacity="null" stroke-width="null" stroke="null" fill="null"/>
  <ellipse ry="7.82315" rx="8.16329" id="svg_60" cy="357.78284" cx="246.0818" fill-opacity="null" stroke-opacity="null" stroke-width="null" stroke="null" fill="null"/>
  <path id="svg_61" d="m265.5432,242.149c0.09491,-66.5506 -31.91958,-138.77597 -25.71726,-119.57061c6.20232,19.20536 26,52.80663 26,118c0,65.19337 -31.04946,132.32694 -26,118c5.04945,-14.32695 25.62236,-49.87878 25.71726,-116.42939z" transform="rotate(-4 252.42718505859227,239.97938537597696) " stroke-linecap="null" stroke-linejoin="null" stroke-width="NaN" stroke="#000000" fill="none"/>
  <ellipse ry="7.82315" rx="8.16329" id="svg_62" cy="44.17641" cx="278.0547" fill-opacity="null" stroke-opacity="null" stroke-width="null" stroke="null" fill="null"/>
  <ellipse ry="7.82315" rx="8.16329" id="svg_63" cy="276.14993" cx="294.38127" fill-opacity="null" stroke-opacity="null" stroke-width="null" stroke="null" fill="null"/>
  <path id="svg_64" d="m313.84268,160.51609c0.09491,-66.5506 -31.91958,-138.77597 -25.71726,-119.57061c6.20232,19.20536 26,52.80663 26,118c0,65.19337 -31.04946,132.32694 -26,118c5.04945,-14.32695 25.62236,-49.87878 25.71726,-116.42939z" transform="rotate(-4 300.72665405273466,158.34648132324162) " stroke-linecap="null" stroke-linejoin="null" stroke-width="NaN" stroke="#000000" fill="none"/>
  <ellipse ry="7.82315" rx="8.16329" id="svg_65" cy="44.17641" cx="278.0547" fill-opacity="null" stroke-opacity="null" stroke-width="null" stroke="null" fill="null"/>
  <ellipse ry="7.82315" rx="8.16329" id="svg_66" cy="276.14993" cx="294.38127" fill-opacity="null" stroke-opacity="null" stroke-width="null" stroke="null" fill="null"/>
  <path id="svg_67" d="m313.84268,160.51609c0.09491,-66.5506 -31.91958,-138.77597 -25.71726,-119.57061c6.20232,19.20536 26,52.80663 26,118c0,65.19337 -31.04946,132.32694 -26,118c5.04945,-14.32695 25.62236,-49.87878 25.71726,-116.42939z" transform="rotate(-4 300.72665405273466,158.34648132324162) " stroke-linecap="null" stroke-linejoin="null" stroke-width="NaN" stroke="#000000" fill="none"/>
  <ellipse ry="7.82315" rx="8.16329" id="svg_68" cy="119.68685" cx="55.60501" fill-opacity="null" stroke-opacity="null" stroke-width="null" stroke="null" fill="null"/>
  <ellipse ry="7.82315" rx="8.16329" id="svg_69" cy="351.66037" cx="71.93159" fill-opacity="null" stroke-opacity="null" stroke-width="null" stroke="null" fill="null"/>
  <path id="svg_70" d="m91.39299,236.02653c0.09491,-66.5506 -31.91958,-138.77597 -25.71726,-119.57061c6.20232,19.20536 26,52.80663 26,118c0,65.19337 -31.04946,132.32694 -26,118c5.04945,-14.32695 25.62236,-49.87878 25.71726,-116.42939z" transform="rotate(-4 78.27697753906511,233.8569183349611) " stroke-linecap="null" stroke-linejoin="null" stroke-width="NaN" stroke="#000000" fill="none"/>
  <ellipse ry="7.82315" rx="8.16329" id="svg_71" cy="119.68685" cx="55.60501" fill-opacity="null" stroke-opacity="null" stroke-width="null" stroke="null" fill="null"/>
  <ellipse ry="7.82315" rx="8.16329" id="svg_72" cy="351.66037" cx="71.93159" fill-opacity="null" stroke-opacity="null" stroke-width="null" stroke="null" fill="null"/>
  <path id="svg_73" d="m91.39299,236.02653c0.09491,-66.5506 -31.91958,-138.77597 -25.71726,-119.57061c6.20232,19.20536 26,52.80663 26,118c0,65.19337 -31.04946,132.32694 -26,118c5.04945,-14.32695 25.62236,-49.87878 25.71726,-116.42939z" transform="rotate(-4 78.27697753906511,233.8569183349611) " stroke-linecap="null" stroke-linejoin="null" stroke-width="NaN" stroke="#000000" fill="none"/>
 </g>
</svg>