<?xml version="1.0" encoding="UTF-8" standalone="no"?>
<svg
   xmlns:dc="http://purl.org/dc/elements/1.1/"
   xmlns:cc="http://creativecommons.org/ns#"
   xmlns:rdf="http://www.w3.org/1999/02/22-rdf-syntax-ns#"
   xmlns:svg="http://www.w3.org/2000/svg"
   xmlns="http://www.w3.org/2000/svg"
   xmlns:sodipodi="http://sodipodi.sourceforge.net/DTD/sodipodi-0.dtd"
   xmlns:inkscape="http://www.inkscape.org/namespaces/inkscape"
   version="1.1"
   x="0px"
   y="0px"
   viewBox="0 0 100 100"
   enable-background="new 0 0 100 100"
   xml:space="preserve"
   id="svg24"
   sodipodi:docname="bind_node_link.svg"
   inkscape:version="0.92.3 (2405546, 2018-03-11)"><metadata
     id="metadata30"><rdf:RDF><cc:Work
         rdf:about=""><dc:format>image/svg+xml</dc:format><dc:type
           rdf:resource="http://purl.org/dc/dcmitype/StillImage" /><dc:title /></cc:Work></rdf:RDF></metadata><defs
     id="defs28" /><sodipodi:namedview
     pagecolor="#ffffff"
     bordercolor="#666666"
     borderopacity="1"
     objecttolerance="10"
     gridtolerance="10"
     guidetolerance="10"
     inkscape:pageopacity="0"
     inkscape:pageshadow="2"
     inkscape:window-width="1366"
     inkscape:window-height="705"
     id="namedview26"
     showgrid="false"
     inkscape:zoom="3.337544"
     inkscape:cx="-5.2945683"
     inkscape:cy="64.461504"
     inkscape:window-x="-8"
     inkscape:window-y="-8"
     inkscape:window-maximized="1"
     inkscape:current-layer="svg24" /><line
     stroke-miterlimit="10"
     x1="30.059229"
     y1="47.264141"
     x2="77.862"
     y2="28.143032"
     id="line2"
     style="fill:#000000;stroke:#000000;stroke-width:1.91211104;stroke-miterlimit:10" /><line
     stroke-miterlimit="10"
     x1="30.059229"
     y1="56.824696"
     x2="77.971947"
     y2="75.945808"
     id="line4"
     style="fill:#000000;stroke:#000000;stroke-width:1.91211104;stroke-miterlimit:10" /><circle
     cx="25.356392"
     cy="52.110386"
     r="9.5605555"
     id="circle6"
     style="stroke-width:0.95605552" /><circle
     cx="77.939445"
     cy="28.209"
     r="9.5605555"
     id="circle8"
     style="stroke-width:0.95605552" /><circle
     cx="77.939445"
     cy="76.011772"
     r="9.5605555"
     id="circle10"
     style="stroke-width:0.95605552" /><line
     stroke-miterlimit="10"
     x1="25.361172"
     y1="44.956223"
     x2="46.900146"
     y2="18.582476"
     id="line12"
     style="fill:none;stroke:#000000;stroke-width:1.91211104;stroke-miterlimit:10" /><line
     stroke-miterlimit="10"
     x1="25.252182"
     y1="59.352509"
     x2="46.900146"
     y2="85.506363"
     id="line14"
     style="fill:none;stroke:#000000;stroke-width:1.91211104;stroke-miterlimit:10" /><circle
     cx="45.911587"
     cy="20.560555"
     r="9.5605555"
     id="circle16"
     style="stroke-width:0.95605552" /><circle
     cx="45.911587"
     cy="83.660217"
     r="9.5605555"
     id="circle18"
     style="stroke-width:0.95605552" /><line
     stroke-miterlimit="10"
     x1="30.614697"
     y1="52.110386"
     x2="51.647919"
     y2="52.110386"
     id="line20"
     style="fill:none;stroke:#000000;stroke-width:1.91211104;stroke-miterlimit:10" /><circle
     cx="58.340305"
     cy="52.110386"
     r="9.5605555"
     id="circle22"
     style="stroke-width:0.95605552" /><path
     id="path862"
     d="m 5.1571805,11.498975 v 3.635978 H 4.8974682 c -1.5211737,0 -2.7455336,1.224358 -2.7455336,2.745533 v 15.174638 c 0,1.521175 1.2243599,2.745536 2.7455336,2.745536 H 26.045497 c 1.521173,0 2.745534,-1.224361 2.745534,-2.745536 V 17.880486 c 0,-1.521175 -1.224361,-2.745533 -2.745534,-2.745533 h -0.0742 v -3.635978 c 0,-5.7507789 -4.674827,-10.4256066 -10.425606,-10.4256066 -5.7136787,0 -10.388507,4.6748277 -10.3885074,10.4256066 z M 17.141064,26.117087 c -0.22261,0.148407 -0.259712,0.296815 -0.259712,0.556527 0,1.113054 0,2.226109 0,3.339164 v 0 c 0.0371,0.445222 -0.222612,0.927545 -0.630731,1.113053 -0.964647,0.482325 -1.929294,-0.185508 -1.929294,-1.113053 0,0 0,0 0,0 0,-1.113055 0,-2.22611 0,-3.339164 0,-0.222611 -0.0371,-0.371018 -0.259712,-0.519425 -1.00175,-0.742035 -1.335665,-2.003498 -0.853341,-3.116552 0.482323,-1.075952 1.669581,-1.706683 2.819736,-1.484073 1.261461,0.259714 2.114803,1.261463 2.151905,2.522924 0,0.853342 -0.333917,1.558276 -1.038851,2.040599 z M 9.7207036,11.498975 c 0,-3.2278561 2.6342274,-5.8620847 5.8620854,-5.8620847 3.227858,0 5.862084,2.6342286 5.862084,5.8620847 v 3.635978 H 9.7207036 Z"
     inkscape:connector-curvature="0"
     style="stroke-width:0.37101805" /></svg>