<?xml version="1.0" encoding="UTF-8" standalone="no"?>
<svg
   xmlns:dc="http://purl.org/dc/elements/1.1/"
   xmlns:cc="http://creativecommons.org/ns#"
   xmlns:rdf="http://www.w3.org/1999/02/22-rdf-syntax-ns#"
   xmlns:svg="http://www.w3.org/2000/svg"
   xmlns="http://www.w3.org/2000/svg"
   xmlns:sodipodi="http://sodipodi.sourceforge.net/DTD/sodipodi-0.dtd"
   xmlns:inkscape="http://www.inkscape.org/namespaces/inkscape"
   version="1.1"
   x="0px"
   y="0px"
   viewBox="0 0 1024 1024"
   style="enable-background:new 0 0 1024 1024;"
   xml:space="preserve"
   id="svg10"
   sodipodi:docname="filter.svg"
   inkscape:version="0.92.3 (2405546, 2018-03-11)"><metadata
     id="metadata16"><rdf:RDF><cc:Work
         rdf:about=""><dc:format>image/svg+xml</dc:format><dc:type
           rdf:resource="http://purl.org/dc/dcmitype/StillImage" /></cc:Work></rdf:RDF></metadata><defs
     id="defs14" /><sodipodi:namedview
     pagecolor="#ffffff"
     bordercolor="#666666"
     borderopacity="1"
     objecttolerance="10"
     gridtolerance="10"
     guidetolerance="10"
     inkscape:pageopacity="0"
     inkscape:pageshadow="2"
     inkscape:window-width="1366"
     inkscape:window-height="705"
     id="namedview12"
     showgrid="false"
     inkscape:zoom="0.23046875"
     inkscape:cx="512"
     inkscape:cy="512"
     inkscape:window-x="-8"
     inkscape:window-y="-8"
     inkscape:window-maximized="1"
     inkscape:current-layer="svg10" /><g
     id="g8"
     transform="matrix(0.68392312,0,0,0.68392312,365.62338,363.86757)"><path
       d="m 903.7,150.3 c 0,5.2 -1.4,10.1 -3.7,14.3 L 898.5,167 598,548.4 v 260.1 c 0,10.8 -5.9,20.2 -14.6,25.3 l -4.1,2 -110.3,63.9 -1.5,0.7 c -3.7,1.7 -7.8,2.6 -12.2,2.6 -16.2,0 -29.4,-13.1 -29.4,-29.3 V 548.4 L 125.5,167.1 124,164.7 c -2.4,-4.2 -3.7,-9.1 -3.7,-14.3 0,-16.2 13.2,-29.3 29.4,-29.3 h 724.7 c 16.2,-0.1 29.3,13 29.3,29.2 z"
       id="path2"
       inkscape:connector-curvature="0" /><g
       id="g6"><path
         d="m 883.7,150.3 c -0.2,5.3 1.5,-3.5 -0.1,1.4 -0.3,1 -2.4,5.4 -0.2,1.4 -0.6,1.2 -1.5,2.4 -2.1,3.6 1.5,-3.4 4,-5.1 2.7,-3.5 -0.6,0.7 -1.2,1.5 -1.8,2.2 -2.8,3.5 -5.5,7 -8.3,10.5 -10.8,13.7 -21.6,27.4 -32.4,41.2 -34.3,43.5 -68.6,87 -102.9,130.5 -35.1,44.5 -70.2,89 -105.2,133.5 -16.5,21 -33.1,41.9 -49.6,62.9 -5.8,7.4 -5.9,13 -5.9,21.1 0,8 0,16 0,24 0,26.6 0,53.2 0,79.8 0,48.3 0,96.5 0,144.8 0,1.4 0,2.9 0,4.3 0,0.1 0,0.2 0,0.3 0,0 0,0 0,0 0,0.5 0,1 0,1.5 -0.2,2.3 -0.1,2 0.1,-0.8 0.2,0.3 -0.9,3.9 -1.2,4.2 2,-2 1.2,-2.3 0.2,-0.8 -0.2,0.4 -0.5,0.8 -0.7,1.2 -1.2,1.8 -1,1.6 0.6,-0.6 -0.6,0.7 -1.3,1.4 -2,2.1 -1.6,1.4 -1.4,1.3 0.8,-0.4 -1.7,2.2 -5.7,3.1 -8.1,4.5 -3,1.7 -6,3.5 -9,5.2 -23.9,13.8 -47.9,27.7 -71.8,41.5 -8.5,4.9 -16.9,9.8 -25.4,14.7 -0.7,0.4 -1.4,0.8 -2.1,1.2 -0.1,0.1 -0.2,0.1 -0.3,0.2 -0.2,0.1 -1,0.4 -1.1,0.5 3.3,-1.3 3.7,-1.5 1.1,-0.6 -0.8,0.3 -1.7,0.5 -2.6,0.7 -2.5,0.9 4,0.4 -1,0 -0.5,0 -0.9,0 -1.4,0 -2.2,-0.2 -1.8,-0.1 1.3,0.2 0,0.1 -3.6,-0.9 -3.9,-1 -4.1,-1 3.5,2.3 0,-0.1 -0.7,-0.5 -1.5,-0.9 -2.2,-1.3 -3.7,-2.1 2.8,3.1 0,-0.1 -3,-3.5 -0.8,0.3 -0.3,0.2 -0.4,0.1 -2,-3.5 -2.4,-3.8 -1.6,-1.6 1.2,4.4 0.2,0.6 -0.1,-0.3 -1.1,-3.8 -1,-3.9 0.1,0.9 0.2,1.8 0.3,2.6 -0.1,-0.9 -0.1,-1.8 -0.1,-2.7 0,0 0,0 0,0 0,-0.3 0,-0.5 0,-0.8 0,-1.5 0,-3 0,-4.5 0,-6.6 0,-13.1 0,-19.7 0,-53.5 0,-107 0,-160.5 0,-44.8 0,-89.6 0,-134.4 0,-7.5 -0.6,-12.8 -5.9,-19.5 -1.4,-1.8 -2.9,-3.6 -4.3,-5.5 -8.7,-11.1 -17.4,-22.1 -26.2,-33.2 -32.2,-40.9 -64.4,-81.7 -96.6,-122.6 -36.3,-46 -72.5,-92 -108.8,-138.1 -20.9,-26.5 -41.8,-53 -62.6,-79.5 -0.6,-0.7 -1.1,-1.4 -1.7,-2.2 -1.2,-1.5 1,-0.2 2.8,3.5 -0.6,-1.2 -1.5,-2.4 -2.1,-3.6 2.2,4 0.1,-0.4 -0.2,-1.4 -0.4,-2.3 -0.4,-2.2 0,0.3 -0.1,-1 -0.1,-2.1 0,-3.1 -0.2,-4.1 -1.2,2.6 -0.1,0.6 0.4,-0.8 0.6,-2.3 0.9,-3.2 1,-4.2 -2.3,3.5 0.1,0 0.2,-0.3 1.8,-3.4 2.1,-3.3 -0.5,-0.2 -2.7,3.7 0.3,0.2 2.1,-2.4 -0.8,1.5 -1.1,0.6 -0.1,-0.3 3,-1.9 3.3,-2.1 1.9,-1 1.5,-0.8 -1.2,0.4 0.8,-0.3 1.7,-0.6 2.5,-0.8 0.4,-0.1 0.9,-0.2 1.3,-0.3 1.7,-0.3 1.7,-0.4 0,-0.1 -0.4,0.1 -0.9,0.1 -1.3,0.2 0.9,-0.1 1.8,-0.1 2.7,-0.1 0,0 0,0 0.1,0 0.2,0 0.3,0 0.5,0 6.7,-0.1 13.4,0 20.1,0 36.2,0 72.4,0 108.6,0 55.5,0 110.9,0 166.4,0 60.6,0 121.1,0 181.7,0 51.7,0 103.3,0 155,0 28.6,0 57.3,0 85.9,0 2,0 3.9,0 5.9,0 0.1,0 0.3,0 0.4,0 0.5,0 1.3,0 1.4,0 4.5,-0.1 -4.1,-1.4 0,0 0.8,0.3 1.7,0.5 2.5,0.7 4.2,1 -3.5,-2.3 0,0.1 0.3,0.2 3.4,1.8 3.3,2.1 0.2,-0.5 -3.7,-2.7 -0.2,0.3 3,2.6 -1.2,-2.7 -0.3,-0.6 0.4,0.9 1.2,1.9 1.7,2.7 2.4,3.5 -1,-4.2 0.1,0 0.1,0.3 1.1,3.8 1,3.9 -0.1,-0.9 -0.2,-1.8 -0.3,-2.6 0.1,1.3 0.1,2.2 0.1,3.1 0.2,10.5 9,20.5 20,20 10.6,-0.5 20.3,-8.8 20,-20 -0.6,-27.3 -22.1,-48.8 -49.4,-49.3 -1.6,0 -3.3,0 -4.9,0 -10.2,0 -20.4,0 -30.7,0 -42.3,0 -84.6,0 -126.9,0 -58.8,0 -117.6,0 -176.4,0 -60.6,0 -121.3,0 -181.9,0 -47.8,0 -95.5,0 -143.3,0 -20.2,0 -40.4,-0.4 -60.5,0 -26.7,0.5 -48.1,21.3 -49.4,48 -0.6,13 4.7,24.2 12.4,34 7.1,9 14.3,18.1 21.4,27.1 31.3,39.8 62.7,79.5 94,119.3 37.3,47.3 74.5,94.5 111.8,141.8 22.9,29 45.8,58.1 68.6,87.1 1.1,1.4 2.2,2.8 3.3,4.2 -2,-4.7 -3.9,-9.4 -5.9,-14.1 0,14.7 0,29.5 0,44.2 0,33.5 0,66.9 0,100.4 0,35.9 0,71.8 0,107.7 0,22.6 0,45.1 0,67.7 0,14.7 3.5,28.6 14,39.6 12.8,13.4 33.8,18.5 51.2,12.3 4.5,-1.6 8.2,-3.6 12.2,-5.9 27.8,-16.1 55.5,-32.1 83.3,-48.2 7.6,-4.4 15.1,-9.1 22.8,-13.2 14.6,-7.8 25.4,-20.5 27.7,-37.3 0.5,-3.5 0.7,-6.8 0.7,-10.2 0,-23.8 0,-47.5 0,-71.3 0,-36.4 0,-72.8 0,-109.2 0,-24.3 0,-48.6 0,-72.9 0,-1.2 0,-2.5 0,-3.7 -2,4.7 -3.9,9.4 -5.9,14.1 10.4,-13.3 20.9,-26.5 31.3,-39.8 24.7,-31.3 49.4,-62.7 74.1,-94 29.7,-37.7 59.4,-75.3 89.1,-113 24.8,-31.5 49.7,-63 74.5,-94.5 10.5,-13.3 21.1,-26.6 31.5,-40 7.1,-9 10.7,-19.3 11.1,-30.9 0.3,-10.5 -9.4,-20.5 -20,-20 -10.9,0.5 -19.5,8.8 -19.8,20 z"
         id="path4"
         inkscape:connector-curvature="0" /></g></g><path
     inkscape:connector-curvature="0"
     d="m 505.48081,424.6579 a 69.151143,69.151143 0 0 0 -17.12923,-34.13148 66.042512,66.042512 0 0 0 -7.16878,-6.72476 l -6.34425,-5.07532 c -4.50433,-3.29902 -8.75486,-7.04206 -13.63985,-9.96032 -4.88501,-2.91836 -9.51618,-6.34412 -14.40118,-9.19901 l -15.22595,-8.24737 a 271.21204,271.21204 0 0 0 -67.18447,-23.02921 294.87569,294.87569 0 0 0 -36.28854,-5.01196 c -6.34413,-0.38065 -12.68824,-0.63434 -18.6517,-0.63434 h -1.20545 l -1.83978,-120.5387 v -17.50984 -2.34734 -3.23549 a 55.574678,55.574678 0 0 0 -0.95163,-6.34416 53.544553,53.544553 0 0 0 -92.75126,-24.86904 53.290789,53.290789 0 0 0 -12.37106,22.83892 63.060766,63.060766 0 0 0 -1.26882,6.34415 c 0,2.03013 -0.38064,4.63121 -0.44411,6.34414 v 8.81835 c -2.41076,88.43732 -4.25054,176.6209 -5.83664,260.61729 a 29.690581,29.690581 0 0 1 -5.20216,-4.94834 l -15.09911,-25.3766 c -2.72792,-4.50434 -4.82152,-8.37423 -8.69138,-14.02052 a 87.041621,87.041621 0 0 0 -12.68836,-13.89368 81.902866,81.902866 0 0 0 -31.72072,-17.44639 78.540471,78.540471 0 0 0 -17.70007,-2.91838 80.316832,80.316832 0 0 0 -8.881845,0 c -1.459125,0 -2.918372,0 -4.440858,0.38066 h -2.220552 l -2.981732,0.57099 a 34.892778,34.892778 0 0 0 -27.4067,36.41537 33.243301,33.243301 0 0 0 2.918373,11.73661 l 1.205316,2.53772 0.824787,1.52261 1.649452,3.04522 6.344117,12.11725 25.12291,46.81971 45.487422,83.8062 a 75.241517,75.241517 0 0 0 15.03563,19.7303 69.785555,69.785555 0 0 0 20.30128,12.68823 c 3.61607,1.5226 6.34413,2.53772 9.51618,3.74304 l 8.94519,3.36238 17.06574,6.34412 h 0.57097 v 0 a 30.00779,30.00779 0 0 1 14.78183,10.0238 30.895969,30.895969 0 0 1 3.48935,5.39248 c 0.44401,0.88816 0.82467,1.71293 1.20532,2.66457 l 1.26879,3.2989 a 8.7549153,8.7549153 0 0 0 11.48292,5.32912 v 0 a 8.8817981,8.8817981 0 0 0 4.82164,-10.4678 l -1.0151,-3.36239 c -0.44414,-1.33228 -0.88816,-2.7914 -1.52262,-4.25064 a 46.248791,46.248791 0 0 0 -4.94847,-9.0087 47.07353,47.07353 0 0 0 -23.40974,-17.44638 h 0.69783 l -33.87779,-15.3528 a 48.46924,48.46924 0 0 1 -13.51302,-9.57966 52.846697,52.846697 0 0 1 -9.96019,-14.65499 l -42.18864,-84.94801 -23.600182,-47.32733 -6.344119,-12.2441 -1.522609,-3.10871 -0.761303,-1.5226 c 0,-0.44401 0,-0.44401 0,-0.63435 a 3.8699262,3.8699262 0 0 1 -0.31717,-1.77641 5.0118717,5.0118717 0 0 1 4.060207,-4.94834 h 0.570978 1.395764 c 0.951631,0 1.839778,0 2.791408,0 a 50.055277,50.055277 0 0 1 5.582815,0 48.088591,48.088591 0 0 1 10.975421,2.09346 50.753131,50.753131 0 0 1 19.53985,11.16574 55.891885,55.891885 0 0 1 7.4862,8.62805 c 1.7763,2.72791 4.63118,7.73988 7.10543,12.05388 l 15.35279,26.77226 a 15.923796,15.923796 0 0 0 1.07847,1.58596 59.888695,59.888695 0 0 0 20.4916,17.44651 41.681009,41.681009 0 0 0 16.11411,4.56769 33.306743,33.306743 0 0 0 20.30128,-5.26565 16.938857,16.938857 0 0 0 7.23227,-13.83019 c 2.7914,-88.81802 5.39249,-183.02853 7.67641,-277.36586 v -8.81836 a 20.681902,20.681902 0 0 1 0.63444,-4.885 18.461453,18.461453 0 0 1 4.31402,-7.99362 19.032424,19.032424 0 0 1 30.89593,4.37747 19.032424,19.032424 0 0 1 1.5226,4.31402 21.189433,21.189433 0 0 1 0.31717,2.28389 v 1.14195 2.03011 l 0.38065,17.50984 3.55272,137.54098 a 17.382946,17.382946 0 0 0 0,1.77641 16.55821,16.55821 0 0 0 19.03249,14.21085 c 4.314,-0.57099 10.27747,-0.82479 15.54312,-0.95164 5.26564,-0.12685 10.91193,0 16.30443,0 a 267.53245,267.53245 0 0 1 32.2282,3.93337 244.37633,244.37633 0 0 1 59.9522,19.03249 l 13.63988,7.04193 c 4.44086,2.47425 8.6915,5.26564 12.68823,7.80325 3.99684,2.5377 8.24739,5.70977 12.30771,8.50118 l 6.02694,4.31401 a 37.24011,37.24011 0 0 1 4.37739,3.86988 41.681009,41.681009 0 0 1 11.5464,25.3766 c 0,0.95163 0,1.83978 0,2.85489 v 3.74304 14.71846 l 1.01499,56.27253 v 13.32269 6.34412 5.70966 a 98.461074,98.461074 0 0 1 -3.61607,22.07769 121.23654,121.23654 0 0 1 -19.03248,38.06485 c -2.03011,2.72791 -3.99684,5.39248 -6.34412,7.86672 l -3.17206,3.67955 c -1.20544,1.26892 -2.66457,2.98173 -3.87,4.56782 a 55.19403,55.19403 0 0 0 -6.34412,10.21412 53.227346,53.227346 0 0 0 -2.15695,5.39249 l -1.45912,4.69467 a 9.008681,9.008681 0 0 0 5.77314,11.60976 9.1355636,9.1355636 0 0 0 10.65814,-5.83662 l 1.71293,-4.25054 a 36.225048,36.225048 0 0 1 1.71293,-3.42586 37.6842,37.6842 0 0 1 4.63118,-6.34412 c 0.95164,-1.07847 1.77643,-1.90326 2.98174,-3.04521 1.20543,-1.14197 2.66455,-2.60109 3.93337,-3.93336 2.60106,-2.66457 5.07531,-5.58282 7.61303,-8.56456 a 138.42916,138.42916 0 0 0 24.55181,-43.39396 119.58707,119.58707 0 0 0 5.83662,-27.21638 l 0.44401,-7.23226 v -6.34424 -13.32269 l 1.01513,-56.27253 v -14.71834 -3.99684 c 0,-1.52262 0,-3.10858 0,-4.63119 a 68.453288,68.453288 0 0 0 1.07847,-9.26249 z"
     id="path4-1"
     style="stroke-width:6.34414148" /><path
     inkscape:connector-curvature="0"
     d="m 398.32824,73.509676 c 0.8248,0 0.76131,0 0.76131,0 v 0 0 0 0 0 0 c 0,0 0,0 0,0.761292 0.38065,4.884994 0.88814,9.579649 1.64945,13.957109 a 65.154332,65.154332 0 0 0 6.34424,21.252873 36.859461,36.859461 0 0 0 9.32586,0.63442 30.642204,30.642204 0 0 0 8.12052,-0.63442 65.154332,65.154332 0 0 0 6.34412,-21.252873 c 0.69783,-4.37746 1.2688,-9.072115 1.64944,-13.957109 a 27.279808,27.279808 0 0 0 0,-2.9183 27.723898,27.723898 0 0 0 0,-3.552722 32.735771,32.735771 0 0 0 -1.77641,-7.042002 33.814273,33.814273 0 0 0 -20.17431,-20.11093 32.608887,32.608887 0 0 0 -7.04205,-1.712921 27.533573,27.533573 0 0 0 -3.55272,0 h -2.85477 c -4.88499,0.380651 -9.57964,0.95163 -13.95716,1.712921 a 64.964007,64.964007 0 0 0 -21.25291,6.66135 36.161606,36.161606 0 0 0 -0.57097,9.135562 29.690581,29.690581 0 0 0 0.57097,7.866742 64.964007,64.964007 0 0 0 21.25291,6.661349 c 5.90011,1.58603 10.27748,2.157008 15.16248,2.537659 z"
     id="path6"
     style="stroke-width:6.34414148" /><path
     inkscape:connector-curvature="0"
     d="m 75.792214,110.6229 a 36.161606,36.161606 0 0 0 9.135526,0.57097 29.690581,29.690581 0 0 0 7.866725,-0.57097 64.964007,64.964007 0 0 0 6.661289,-20.999107 c 0.761306,-4.37746 1.332276,-9.072128 1.712936,-13.957109 0,-0.824738 0,-0.761303 0,-0.761303 v 0 0 0 0 0 0 c 0,0 0,0 0.7613,0 4.88499,-0.380653 9.57966,-0.888171 13.95716,-1.649477 a 65.154332,65.154332 0 0 0 21.2529,-6.344142 36.859461,36.859461 0 0 0 0.63435,-9.325893 30.642204,30.642204 0 0 0 -0.63435,-8.120498 65.154332,65.154332 0 0 0 -21.2529,-6.344144 c -4.3775,-0.697857 -9.07217,-1.268823 -13.95716,-1.649475 h -2.918248 a 27.723898,27.723898 0 0 0 -3.552713,0 32.735771,32.735771 0 0 0 -7.042062,1.776357 33.814273,33.814273 0 0 0 -20.110951,20.174375 32.608887,32.608887 0 0 0 -1.71281,7.042002 27.533573,27.533573 0 0 0 0,3.552724 26.137863,26.137863 0 0 0 0,2.854852 c 0.380651,4.884994 0.951629,9.579661 1.71281,13.957109 a 64.964007,64.964007 0 0 0 7.486198,19.793729 z"
     id="path8"
     style="stroke-width:6.34414148" /><path
     inkscape:connector-curvature="0"
     d="m 67.354509,250.38434 a 27.723898,27.723898 0 0 0 0,3.55271 32.735771,32.735771 0 0 0 2.030104,6.97856 33.814273,33.814273 0 0 0 20.174311,20.11094 32.608887,32.608887 0 0 0 7.042062,1.71291 27.533573,27.533573 0 0 0 3.552714,0 h 2.85476 c 4.885,-0.38065 9.57966,-0.95163 13.95717,-1.71291 a 64.964007,64.964007 0 0 0 21.25291,-6.66135 36.161606,36.161606 0 0 0 0.57097,-9.13558 29.690581,29.690581 0 0 0 -0.57097,-7.86673 64.964007,64.964007 0 0 0 -21.25291,-6.66134 c -4.37751,-0.76131 -9.07217,-1.33227 -13.95717,-1.71293 -0.82466,0 -0.76118,0 -0.76118,0 v 0 0 0 0 0 0 c 0,0 0,0 0,-0.76128 -0.38065,-4.88501 -0.88827,-9.57968 -1.64957,-13.95712 a 65.154332,65.154332 0 0 0 -6.344118,-21.25288 36.859461,36.859461 0 0 0 -9.325852,-0.63441 30.642204,30.642204 0 0 0 -8.120537,0.63441 65.154332,65.154332 0 0 0 -6.344119,21.25288 c -0.69782,4.37744 -1.268797,9.07211 -1.64945,13.95712 a 27.343249,27.343249 0 0 0 -1.459125,2.157 z"
     id="path10"
     style="stroke-width:6.34414148" /><path
     inkscape:connector-curvature="0"
     d="m 363.11829,274.93616 a 65.154332,65.154332 0 0 0 21.25291,6.34414 c 4.37738,0.69785 9.07204,1.26883 13.95704,1.64948 h 2.91838 a 27.850781,27.850781 0 0 0 3.5527,0 32.735771,32.735771 0 0 0 7.04195,-1.77636 33.814273,33.814273 0 0 0 20.11095,-20.23781 32.608887,32.608887 0 0 0 1.52261,-6.97856 27.533573,27.533573 0 0 0 0,-3.55271 26.328187,26.328187 0 0 0 0,-2.85485 c -0.38066,-4.88501 -0.95165,-9.57967 -1.71294,-13.95713 a 64.964007,64.964007 0 0 0 -6.6614,-21.25288 36.161606,36.161606 0 0 0 -9.13553,-0.57096 29.690581,29.690581 0 0 0 -7.86673,0.57096 64.964007,64.964007 0 0 0 -6.34412,21.25288 c -0.76129,4.37746 -1.33228,9.07212 -1.71294,13.95713 0,0.82472 0,0.76128 0,0.76128 v 0 0 0 0 0 0 c 0,0 0,0 -0.76131,0 -4.88498,0.38065 -9.57966,0.88819 -13.95702,1.64947 a 65.154332,65.154332 0 0 0 -21.2529,6.34414 36.859461,36.859461 0 0 0 -0.63447,9.3259 30.578761,30.578761 0 0 0 -0.31718,9.32588 z"
     id="path12"
     style="stroke-width:6.34414148" /></svg>