<svg xmlns="http://www.w3.org/2000/svg" xmlns:xlink="http://www.w3.org/1999/xlink" version="1.0" x="0px" y="0px" viewBox="0 0 100 100" enable-background="new 0 0 100 100" xml:space="preserve"><path d="M93.8964767,57.5745087V8.0885572H22.4061165v14.0009813C12.2539978,25.8492813,4.9988632,35.6272926,5.0000005,47.0690002  c-0.0015435,7.1123962,2.7684641,13.7995071,7.7982984,18.8285294c5.0298338,5.0298309,11.7154016,7.8002472,18.8277168,7.7986221  c3.8438244,0.0016251,7.5614872-0.8155594,10.962965-2.3530045l23.5648499,23.5664673L79.467041,81.5979538L55.9009743,58.0314789  c0.0682411-0.1506996,0.126976-0.3054581,0.191967-0.4569702H93.8964767z M27.6704063,13.3524408h13.2711296v2.1943483h1.9742699  v-2.1943483h14.2481918v2.1943483h1.9742699v-2.1943483h13.6090851v2.1943483h1.9738617v-2.1943483h13.9109726v18.4255028  h-1.5172195v1.9738655h1.5172195v18.5580864H74.7212143v-1.2281723h-1.9738617v1.2281723H59.1382675v-1.2281723h-1.1904755  c0.1956215-1.2955208,0.3010712-2.6140289,0.3043213-3.9484634h0.8861542v-3.9485397H57.967289  c-1.316967-8.9679794-7.1207657-16.4945335-15.0514832-20.2240543v-3.4661465h-1.9742699v2.632309  c-2.9008865-1.0868988-6.0385818-1.685873-9.3138943-1.685873c-1.3447514,0-2.665617,0.1023598-3.9572353,0.2959538V13.3524408z   M31.3130836,67.688118c-11.4551926,0-20.7413845-9.2861099-20.7413845-20.74049  c0-8.2667198,4.8370543-15.4021091,11.8344173-18.7350216c1.6462269-0.7837944,3.4134197-1.3526306,5.2642899-1.6810799  c1.1833267-0.2094345,2.3990707-0.3252811,3.6426773-0.3252811c3.4764633,0,6.7506409,0.8599968,9.6284523,2.3713665  c0.680294,0.356966,1.3411751,0.7473183,1.9742699,1.1756916c5.5133705,3.7279778,9.1382561,10.0374908,9.1382561,17.1943245  c0,1.8548508-0.2471313,3.6509666-0.7037735,5.3622665c-0.5001907,1.8722343-1.2542496,3.6406441-2.225708,5.2646141  C45.5029449,63.6309624,38.8828545,67.688118,31.3130836,67.688118z"></path><rect x="57.1639977" y="19.4945183" width="1.9742713" height="3.9484613"></rect><polygon points="57.1639977,39.2362556 59.1382675,39.2362556 59.1382675,33.7518082 60.5730324,33.7518082 60.5730324,31.7779427   59.1382675,31.7779427 59.1382675,31.340065 59.1382675,27.3915234 57.1639977,27.3915234 57.1639977,31.340065   57.1639977,31.7779427 55.9255905,31.7779427 55.9255905,33.7518082 57.1639977,33.7518082 "></polygon><rect x="80.3147659" y="31.7779427" width="3.9484613" height="1.973865"></rect><rect x="64.521492" y="31.7779427" width="3.9485426" height="1.973865"></rect><rect x="72.7473526" y="19.4945183" width="1.973865" height="3.9484613"></rect><rect x="72.7473526" y="43.1847191" width="1.973865" height="3.9485426"></rect><polygon points="72.7473526,39.2362556 74.7212143,39.2362556 74.7212143,33.7518082 76.3666306,33.7518082 76.3666306,31.7779427   74.7212143,31.7779427 74.7212143,27.3915234 72.7473526,27.3915234 72.7473526,31.7779427 71.0507584,31.7779427   71.0507584,33.7518082 72.7473526,33.7518082 "></polygon></svg>