<?xml version="1.0"?><svg width="800" height="600" xmlns="http://www.w3.org/2000/svg" xmlns:xlink="http://www.w3.org/1999/xlink">
 <title>red love birds</title>
 <metadata id="metadata7">image/svg+xml</metadata>
 <g>
  <title>Layer 1</title>
  <defs>
   <filter id="svg_682">
    <feGaussianBlur stdDeviation="0.028007" id="svg_683"/>
   </filter>
   <symbol id="svg_25">
    <metadata id="svg_24">image/svg+xml</metadata>
    <g id="svg_5">
     <g id="svg_10">
      <path d="m113.172989,305.648987c-5.077988,-2.640991 -10.207993,-4.947021 -14.913986,-8.333008c-10.056999,-7.705963 -18.565002,-16.622955 -25.949005,-26.89801c-8.473019,-11.732971 -11.070988,-25.170944 -11.314999,-39.317978c1.427002,-14.806 9.026005,-26.431 19.117001,-36.821991c12.297989,-10.630035 26.76799,-18.044037 42.584,-21.563995c17.509995,-3.315033 34.810989,-0.540039 51.713989,4.226959c15.621017,5.003021 28.552994,14.250977 38.521011,27.124023c9.231995,14.171997 6.76001,28.649994 0.916992,43.476044c-9.062988,17.610977 -22.656006,32.241928 -35.162994,47.40593c-13.735001,15.31604 -24.492996,32.687012 -33.417007,51.128052c-3.054001,11.606995 -9.776993,24.222992 -8.121994,36.042969c0.139999,1 -1.278,1.197021 -1.414993,0.196014l0,0c-2.022003,-14.672028 -6.130005,-25.501007 3.08699,-39.514984c9.785995,-18.42804 22.734009,-34.793976 34.457001,-51.999023c10.872009,-15.281006 22.190002,-30.487 30.410004,-47.405014c4.799988,-11.294983 6.876984,-22.388977 1.282013,-33.912994c-7.424011,-12.871002 -18.485016,-21.391022 -32.374008,-26.71698c-15.756012,-5.42804 -32.136002,-7.564026 -48.702011,-4.687012c-15.166992,3.382996 -29.668991,7.33902 -40.667999,19.149017c-8.895988,9.634979 -15.779999,20.580017 -16.774994,33.999023c-0.888,13.134949 2.606995,25.209946 9.890991,36.23497c7.157013,9.531982 15.682014,18.161987 25.42601,25.062012c4.024994,2.995972 7.934998,7.368958 12.914001,8.440033c3.403,0.730957 1.582001,6.291992 -1.506012,4.685944z" stroke-width="1px" fill-rule="nonzero" fill="#000000" id="svg_23"/>
      <path d="m257.22699,34.416988c4.972992,-2.520988 10.335999,-3.692009 15.76001,-4.791008c11.285004,-1.807991 22.673004,-1.25901 33.88501,0.646999c10.961975,3.01001 18.968994,10.196991 26.357971,18.423019c6.508026,8.881992 8.394012,17.809998 4.310028,28.067024c-5.431,11.00695 -16.413025,17.080986 -26.374023,23.446953c-12.289978,7.348991 -24.938995,14.04998 -37.481995,20.945007c-14.445007,7.148987 -27.381989,16.518005 -39.960999,26.481995c-14.42099,11.945007 -26.036987,26.557983 -35.906982,42.365997c-9.792023,14.86203 -14.709015,31.666016 -17.641022,49.020996c-2.783997,13.042969 -0.153,25.414993 4.351013,37.659012c0.348999,0.948029 -0.993011,1.440979 -1.341003,0.492981l0,0c-4.563004,-12.450989 -6.791,-25.318008 -6.389999,-38.637985c2.166,-18.130005 8.556992,-34.789978 18.356003,-50.238007c10.388,-15.880005 21.283997,-31.567993 35.654999,-44.170013c12.319,-10.734985 25.598999,-20.366936 39.678986,-28.675972c12.227997,-6.997978 24.641998,-13.788017 36.117004,-21.989006c7.980011,-5.723999 15.871002,-11.775024 20.627014,-20.596985c2.261993,-6.58503 2.891998,-12.872986 -0.837006,-19.171017c-4.713989,-8.417 -12.321014,-14.169998 -21.166016,-17.90099c-10.142975,-4.54199 -20.688995,-6.051001 -31.651001,-3.519009c-5.106995,1.237999 -10.231995,2.685997 -14.942993,5.063988c-2.048004,1.034031 -3.450989,-1.88699 -1.404999,-2.923981z" stroke-width="1px" fill-rule="nonzero" fill="#000000" id="svg_22"/>
      <path d="m227.746002,189.703018c1.66098,-2.41806 4.789978,-3.422058 7.427002,-4.619019c7.371002,-3.456024 13.661987,-8.561035 19.539001,-14.109009c8.009979,-7.793976 13.854004,-17.13501 19.10199,-26.898987c4.393005,-9.653015 6.237,-20.260017 5.915985,-30.817993c-1.163971,-7.237 -2.570984,-14.545044 -9.194977,-18.434998c-0.871002,-0.512024 -0.143005,-1.746002 0.725983,-1.230042l0,0c8.56601,5.079041 16.641022,8.228027 15.792023,19.965996c-1.164001,11.39801 -5.922028,21.479988 -10.979004,31.651009c-4.831024,10.307983 -11.078003,19.876007 -18.762024,28.307007c-5.685974,6.281982 -11.645996,12.294983 -18.116974,17.776001c-2.087006,1.804016 -4.522003,4.251984 -7.206024,4.518005c-5.233978,0.52002 -7.220978,-1.77301 -4.242981,-6.107971z" stroke-width="1px" fill-rule="nonzero" fill="#000000" id="svg_21"/>
      <path d="m153.684998,318.083008c0.880997,-3.320007 4.056,-5.701019 6.278992,-8.368011c5.548004,-7.37204 8.772003,-15.71402 11.423004,-24.462982c1.919998,-10.176025 1.762009,-20.39502 -1.136002,-30.327042c-2.360992,-8.289948 -7.01799,-15.609985 -13.25,-21.501984c-6.660995,-6.011963 -14.57399,-6.776978 -23.125992,-5.737976c-5.893997,0.903015 -10.803009,3.485931 -15.804001,6.532928c-0.863007,0.525024 -1.606003,-0.695953 -0.742996,-1.220917l0,0c5.139,-3.123047 10.133987,-6.569031 15.752991,-8.800079c10.443008,-3.399933 20.645004,-4.148956 29.912003,2.842072c7.757996,7.240936 12.759003,15.937012 14.815994,26.451965c1.152008,11.103012 0.473999,22.046982 -3.526993,32.599014c-2.507996,9.076996 -5.453003,18.256989 -9.966995,26.53598c-1.762009,3.272034 -3.401001,7.325989 -6.915009,8.652039c-3.240997,1.223999 -4.602997,0.153992 -3.714996,-3.195007z" stroke-width="1px" fill-rule="nonzero" fill="#000000" id="svg_20"/>
      <path d="m199.608002,257.929993c2.466003,-2.000961 3.959991,-4.804977 5.595001,-7.470016c4.22998,-7.087952 9.269989,-13.621948 14.458984,-20.021973c7.447021,-9.286011 15.743011,-17.807983 24.289001,-26.072998c8.597992,-6.802979 15.251007,-14.994995 21.832001,-23.626038c6.024017,-9.34198 13.468018,-13.336975 24.147003,-9.553955c5.552002,2.825989 7.421997,8.099945 10.200012,13.250977c0.746002,0.600006 1.492004,1.200989 2.238983,1.800995c0.787018,0.633026 0.847015,0.876984 0,1.428009l0,0c-0.923004,0.601013 -1.845978,1.201996 -2.768982,1.802948c-5.538025,3.340057 -12.032013,3.103027 -17.811005,0.091034c-1.886017,-4.289001 -6.688019,-2.976013 -10.996002,-2.149017c-10.333008,3.811066 -18.371002,9.85202 -25.848999,17.982025c-8.505005,8.223999 -16.761017,16.705017 -24.173004,25.946045c-5.149994,6.350952 -10.152008,12.833984 -14.350006,19.867981c-1.609985,2.625977 -3.52298,5.17598 -4.30899,8.18895c-0.516998,1.985077 -4.097015,-0.172974 -2.503998,-1.464966z" stroke-width="1px" fill-rule="nonzero" fill="#000000" id="svg_19"/>
      <path d="m121.146988,178.605972c-2.375984,-0.205994 -4.770996,-0.494995 -7.168991,-0.662964c-7.419998,0.070984 -14.649994,2.274994 -21.673996,4.473999c-13.997009,5.703003 -26.403,14.376984 -38.455002,23.348999c-16.383999,12.583984 -30.689209,27.552002 -41.557619,45.120972c-8.04767,12.465012 -0.47198,26.270981 -3.45288,38.905991c1.12769,1.664001 2.25531,3.329041 3.383,4.993042c0.566489,0.836975 -0.621011,1.638 -1.1843,0.79895l0,0c-1.16949,-1.73999 -2.3389,-3.480957 -3.5083,-5.221985c-14.06851,-10.779968 -5.74161,-28.28302 3.2785,-40.431992c11.58548,-17.284973 25.512611,-32.739044 42.188599,-45.310974c12.155979,-9.046997 24.670994,-17.789001 38.789989,-23.535034c7.041,-3.287964 14.228004,-6.135986 21.892014,-7.606018c2.659996,-0.43399 5.487999,-0.889954 8.076988,-0.079987c3.53801,1.107025 3.085007,5.527039 -0.608002,5.207001z" stroke-width="1px" fill-rule="nonzero" fill="#000000" id="svg_18"/>
      <path d="m184.588989,305.326965c2.472992,-2.672974 5.071991,-5.263 7.809998,-7.679993c7.481995,-6.092957 13.931,-13.140961 20.619019,-20.073975c6.848999,-8.983978 15.606995,-16.382019 23.862,-24.064041c10.330994,-8.929962 19.510986,-11.265015 32.761993,-8.407928c1.868988,-1.40506 3.738007,-2.809021 5.606995,-4.21405c0.808014,-0.605957 1.666016,0.536011 0.858002,1.142975l0,0c-1.891998,1.420044 -3.783997,2.841034 -5.675995,4.262054c-3.178009,13.648972 -9.669006,20.417953 -22.772003,25.323959c-10.401001,3.380005 -20.352997,7.728027 -30.639008,11.39502c-8.548004,4.265045 -16.942993,8.653015 -23.613983,15.650024c-2.312012,2.587952 -4.580017,5.113953 -5.693024,8.459961c-0.803986,2.416992 -4.853973,0.075989 -3.123993,-1.794006z" stroke-width="1px" fill-rule="nonzero" fill="#000000" id="svg_17"/>
      <path d="m320.089996,42.453979c-2.166992,-1.163998 -4.28299,-2.494999 -6.464996,-3.672001c-4.994019,-3.491997 -10.471008,-6.219997 -15.983002,-8.783989c-5.45401,-2.76502 -11.194,-4.93799 -16.404999,-8.161009c-4.402008,-2.582981 -7.330017,-6.066991 -8.532013,-11.001991c0.813019,-7.46499 9.399994,-8.207 15.377014,-9.30401c8.074982,-1.844 16.320984,-1.68799 24.526001,-1.24299c5.720001,0.258 10.957001,1.422 15.248993,5.34c4.26001,5.85599 -1.066986,9.51599 -6.493011,10.728c-0.962982,0.38299 -1.925995,0.765991 -2.888,1.14999c-0.938995,0.37302 -1.465973,-0.95801 -0.526978,-1.327999l0,0c0.914978,-0.362 1.830994,-0.72299 2.746002,-1.08399c1.852997,-1.944 3.471985,-3.597011 3.417999,-6.29901c-2.831024,-3.89099 -6.852997,-5.876 -11.681,-6.75299c-7.981018,-1.18701 -16.096008,-0.724 -24,0.874c-4.449005,1.45999 -8.995026,2.81201 -11.127014,7.266989c0.681,3.724 2.625,6.434999 5.787994,8.789c4.95401,3.375 10.199005,6.262001 15.671021,8.712011c5.437988,2.744999 10.911987,5.47699 16.636993,7.57901c2.445007,1.151981 5.122986,1.975979 7.212006,3.732971c2.316986,1.948029 0.143982,4.891018 -2.52301,3.458008z" stroke-width="1px" fill-rule="nonzero" fill="#000000" id="svg_14"/>
     </g>
    </g>
   </symbol>
   <pattern xlink:href="#svg_511" patternTransform="translate(-84.1377 510.395)" id="svg_482"/>
   <pattern xlink:href="#svg_511" patternTransform="matrix(0.880062 0 0 0.880062 -58.8481 577.678)" id="svg_676"/>
   <pattern xlink:href="#svg_511" patternTransform="matrix(0.880062 0 0 0.880062 -58.8481 577.678)" id="svg_674"/>
   <pattern xlink:href="#svg_511" patternTransform="matrix(0.880062 0 0 0.880062 -58.8481 577.678)" id="svg_672"/>
   <pattern xlink:href="#svg_511" patternTransform="matrix(0.880062 0 0 0.880062 -58.8481 577.678)" id="svg_670"/>
   <pattern xlink:href="#svg_511" patternTransform="matrix(0.880062 0 0 0.880062 -58.8481 577.678)" id="svg_668"/>
   <pattern xlink:href="#svg_736" patternTransform="translate(0.0672191 0.0671756)" id="svg_681"/>
   <pattern xlink:href="#svg_684" patternTransform="translate(-79.9494 517.532)" id="svg_736"/>
   <pattern xlink:href="#svg_712" patternTransform="translate(-212.763 474.817)" id="svg_507"/>
   <pattern xlink:href="#svg_735" patternTransform="matrix(0.893653 0 0 0.815661 -53.4473 517.427)" id="svg_509"/>
   <pattern xlink:href="#svg_723" patternTransform="matrix(0.893653 0 0 0.815661 -50.3653 517.419)" id="svg_735"/>
   <pattern xlink:href="#svg_724" patternTransform="matrix(0.692326 0 0 0.69244 3.54248e-007 -1.90234e-005)" id="svg_723"/>
   <pattern xlink:href="#svg_727" patternTransform="matrix(0.73209 0 0 0.714954 -6.45752e-007 1.75391e-005)" id="svg_726"/>
   <pattern height="3.6359" width="3.55138" patternTransform="matrix(0.73209 0 0 0.714954 -50.3262 517.536)" patternUnits="userSpaceOnUse" id="svg_727">
    <path d="m2.19847,0.29226c0.28594,0.31889 0.36332,0.78009 0.17283,1.03011c-0.19049,0.25002 -0.57671,0.19418 -0.86265,-0.12472c-0.28594,-0.31889 -0.36332,-0.78008 -0.17283,-1.0301c0.19049,-0.25002 0.57671,-0.19419 0.86265,0.12471z" fill="#800000" id="svg_734"/>
    <path d="m1.25987,2.07843c-0.26906,0.3736 -0.68656,0.53954 -0.93251,0.37063c-0.24595,-0.16892 -0.22721,-0.60871 0.04186,-0.98231c0.26907,-0.3736 0.68656,-0.53954 0.93251,-0.37063c0.24595,0.16891 0.22721,0.6087 -0.04186,0.98231z" fill="#800000" id="svg_733"/>
    <path d="m2.09614,3.11828c-0.37625,0.13239 -0.73541,-0.03663 -0.80221,-0.37752c-0.06679,-0.3409 0.18409,-0.72455 0.56035,-0.85694c0.37626,-0.13238 0.73541,0.03664 0.80221,0.37753c0.06678,0.34089 -0.18409,0.72455 -0.56035,0.85693z" fill="#800000" id="svg_732"/>
    <path d="m0.90538,0.59997c-0.07413,0.34353 -0.33108,0.63208 -0.57393,0.64449c-0.24285,0.01241 -0.37962,-0.25602 -0.3055,-0.59955c0.07413,-0.34354 0.33108,-0.63209 0.57393,-0.6445c0.24285,-0.01241 0.37962,0.25602 0.3055,0.59956z" fill="#800000" id="svg_731"/>
    <path d="m3.12962,1.48654c-0.27786,0.13239 -0.5431,-0.03663 -0.59243,-0.37753c-0.04932,-0.34089 0.13595,-0.72454 0.41381,-0.85693c0.27787,-0.13238 0.54311,0.03664 0.59243,0.37753c0.04932,0.34089 -0.13594,0.72455 -0.41381,0.85693z" fill="#800000" id="svg_730"/>
    <path d="m3.51902,2.71922c0.03585,0.35104 -0.117,0.72001 -0.3414,0.8241c-0.2244,0.10409 -0.43537,-0.0961 -0.47122,-0.44715c-0.03585,-0.35104 0.117,-0.72 0.3414,-0.8241c0.2244,-0.10409 0.43537,0.0961 0.47122,0.44715z" fill="#800000" id="svg_729"/>
    <path d="m0.48139,3.62673c-0.32262,-0.05105 -0.53317,-0.30081 -0.47028,-0.55787c0.06288,-0.25705 0.37539,-0.42406 0.69801,-0.37302c0.32262,0.05105 0.53317,0.30081 0.47028,0.55787c-0.06289,0.25706 -0.37539,0.42406 -0.69801,0.37302z" fill="#800000" id="svg_728"/>
   </pattern>
   <pattern height="2.5995" width="2.59993" patternTransform="matrix(0.692326 0 0 0.69244 -50.3262 517.536)" patternUnits="userSpaceOnUse" id="svg_724">
    <rect height="2.5995" width="2.59993" y="0" x="0" fill="url(#svg_726)" id="svg_725"/>
   </pattern>
   <pattern height="1.8" width="1.8" patternTransform="translate(-50.3262 517.536)" patternUnits="userSpaceOnUse" id="svg_721">
    <rect height="1.8" width="1.8" y="0" x="0" fill="url(#svg_723)" id="svg_722"/>
   </pattern>
   <pattern height="2.17521" width="2.34123" patternTransform="translate(-50.4178 517.402)" patternUnits="userSpaceOnUse" id="svg_712">
    <path d="m0.64745,0.54334c-0.08455,0.11809 -0.21624,0.19802 -0.34541,0.20961c-0.12916,0.01161 -0.23614,-0.04686 -0.28059,-0.15336c-0.04447,-0.10649 -0.01961,-0.24482 0.06516,-0.36279c0.08454,-0.11808 0.21624,-0.19802 0.3454,-0.2096c0.12916,-0.01162 0.23615,0.04686 0.28059,0.15336c0.04447,0.10649 0.01961,0.24482 -0.06515,0.36278z" fill="#333333" id="svg_720"/>
    <path d="m0.80062,1.02685c0.08028,0.12676 0.09675,0.27154 0.04313,0.37971c-0.0536,0.10817 -0.16909,0.16329 -0.30292,0.14455c-0.13382,-0.01871 -0.26562,-0.10845 -0.34567,-0.23533c-0.08029,-0.12676 -0.09675,-0.27154 -0.04312,-0.37971c0.05359,-0.10818 0.16909,-0.16329 0.30291,-0.14455c0.13383,0.01871 0.26562,0.10845 0.34567,0.23533z" fill="#333333" id="svg_719"/>
    <path d="m1.50426,0.31448c0.10504,0.15122 0.14242,0.33267 0.09799,0.47589c-0.04439,0.14323 -0.16382,0.22645 -0.31321,0.21827c-0.14939,-0.00815 -0.30602,-0.10649 -0.41081,-0.25788c-0.10504,-0.15121 -0.14242,-0.33266 -0.09799,-0.47588c0.0444,-0.14323 0.16382,-0.22646 0.31321,-0.21828c0.14939,0.00815 0.30602,0.1065 0.41081,0.25788z" fill="#333333" id="svg_718"/>
    <path d="m0.41985,2.17521c-0.13756,0.00015 -0.26477,-0.05301 -0.3336,-0.13946c-0.06886,-0.08643 -0.0689,-0.19299 -0.00009,-0.27946c0.06878,-0.08649 0.19595,-0.13974 0.33351,-0.13967c0.13756,-0.00016 0.26477,0.05301 0.33361,0.13946c0.06886,0.08643 0.06889,0.19299 0.00009,0.27947c-0.06878,0.08649 -0.19596,0.13973 -0.33352,0.13966z" fill="#333333" id="svg_717"/>
    <path d="m1.53942,1.83097c-0.13687,0.10252 -0.30415,0.14336 -0.43873,0.10706c-0.13459,-0.03627 -0.21601,-0.14413 -0.21354,-0.28288c0.00244,-0.13876 0.08842,-0.2873 0.22546,-0.3896c0.13687,-0.10252 0.30416,-0.14335 0.43874,-0.10705c0.13459,0.03627 0.21601,0.14413 0.21353,0.28288c-0.00243,0.13875 -0.08842,0.28729 -0.22546,0.38959z" fill="#333333" id="svg_716"/>
    <path d="m2.21879,0.54951c-0.08196,0.11604 -0.20138,0.18919 -0.31323,0.19179c-0.11185,0.00263 -0.1991,-0.06564 -0.22884,-0.17907c-0.02977,-0.11342 0.00252,-0.25475 0.08466,-0.37064c0.08195,-0.11605 0.20139,-0.18919 0.31323,-0.19179c0.11185,-0.00263 0.19911,0.06564 0.22885,0.17907c0.02976,0.11342 -0.00253,0.25474 -0.08467,0.37064z" fill="#333333" id="svg_715"/>
    <path d="m2.30187,1.87822c-0.05208,0.1289 -0.14818,0.22612 -0.25206,0.25494c-0.10388,0.02884 -0.19974,-0.01507 -0.25141,-0.11518c-0.05168,-0.10009 -0.05131,-0.24116 0.00097,-0.36996c0.05207,-0.12891 0.14818,-0.22612 0.25207,-0.25494c0.10388,-0.02884 0.19974,0.01507 0.2514,0.11518c0.05169,0.10009 0.0513,0.24115 -0.00097,0.36996z" fill="#333333" id="svg_714"/>
    <path d="m2.03204,0.80549c0.11235,0.007 0.21344,0.05793 0.26511,0.13362c0.05168,0.07568 0.04611,0.16458 -0.01463,0.23317c-0.06072,0.0686 -0.16738,0.10644 -0.27972,0.09926c-0.11234,-0.00699 -0.21343,-0.05793 -0.2651,-0.13362c-0.05169,-0.07567 -0.04611,-0.16458 0.01463,-0.23317c0.06072,-0.0686 0.16738,-0.10643 0.27971,-0.09926z" fill="#333333" id="svg_713"/>
   </pattern>
   <pattern height="4" width="4" patternTransform="translate(-50.3935 512.782)" patternUnits="userSpaceOnUse" id="svg_497">
    <g transform="matrix(1.71954 0.0532923 -0.0494765 1.85216 117.386 -950.24)" fill="#800000" id="svg_703">
     <path d="m-52.7938,515.085999c-0.130798,0.182007 -0.362301,0.260986 -0.5172,0.177002c-0.1549,-0.085022 -0.1744,-0.301025 -0.043598,-0.484009c0.130699,-0.182007 0.362301,-0.260986 0.5172,-0.177002c0.1548,0.085022 0.1744,0.301025 0.043598,0.484009z" fill="#800000" id="svg_711"/>
     <path d="m-52.640598,515.56897c0.123798,0.196045 0.088699,0.420044 -0.078503,0.499023c-0.167198,0.080017 -0.403099,-0.013977 -0.527,-0.210022c-0.123798,-0.195984 -0.088699,-0.418945 0.078503,-0.498962c0.167198,-0.080017 0.403099,0.013977 0.527,0.209961z" fill="#800000" id="svg_710"/>
     <path d="m-51.937,514.856995c0.162102,0.234009 0.153301,0.520996 -0.0196,0.640991c-0.172798,0.121033 -0.444401,0.028992 -0.6064,-0.204956c-0.162102,-0.234009 -0.153301,-0.521057 0.0196,-0.641052c0.172798,-0.120972 0.444302,-0.028992 0.6064,0.205017z" fill="#800000" id="svg_709"/>
     <path d="m-53.0214,516.718018c-0.212498,0 -0.3848,-0.125 -0.384899,-0.280029c0,-0.153992 0.172199,-0.278992 0.384701,-0.278992c0.212498,0 0.3848,0.125 0.384899,0.278992c0,0.153992 -0.172199,0.280029 -0.384701,0.280029z" fill="#800000" id="svg_708"/>
     <path d="m-51.901798,516.372986c-0.211601,0.158997 -0.478703,0.160034 -0.5965,0.004028c-0.117901,-0.156006 -0.041901,-0.411011 0.169697,-0.569031c0.211502,-0.157959 0.478603,-0.159973 0.596401,-0.003967c0.117901,0.156006 0.041901,0.411011 -0.169598,0.56897z" fill="#800000" id="svg_707"/>
     <path d="m-51.2225,515.09198c-0.126701,0.179016 -0.331799,0.244019 -0.458099,0.14502c-0.1264,-0.098022 -0.125999,-0.323975 0.000698,-0.502991c0.126801,-0.179016 0.331902,-0.244019 0.458202,-0.14502c0.126297,0.098022 0.125999,0.324036 -0.000801,0.502991z" fill="#800000" id="svg_706"/>
     <path d="m-51.1394,516.421021c-0.080601,0.198975 -0.2584,0.30896 -0.397198,0.244995c-0.138702,-0.064026 -0.185902,-0.276001 -0.105301,-0.476013c0.080601,-0.198975 0.258499,-0.307983 0.397198,-0.244995c0.138802,0.063965 0.185902,0.276978 0.105301,0.476013z" fill="#800000" id="svg_705"/>
     <path d="m-51.409199,515.348022c0.1735,0.010986 0.307697,0.123962 0.299599,0.252991c-0.008099,0.127991 -0.1553,0.223999 -0.3288,0.213013c-0.173599,-0.011047 -0.307701,-0.124023 -0.299698,-0.253052c0.008099,-0.128967 0.155296,-0.223999 0.328899,-0.212952z" fill="#800000" id="svg_704"/>
    </g>
   </pattern>
   <pattern height="4.50855" width="4.53199" patternTransform="translate(-50.6334 507.297)" patternUnits="userSpaceOnUse" id="svg_494">
    <g id="svg_693">
     <path d="m0.79009,2.82555c-0.43626,0.00012 -0.78998,-0.23455 -0.79008,-0.52419c-0.00011,-0.28965 0.35345,-0.52451 0.7897,-0.52464c0.43626,-0.00012 0.78998,0.23455 0.79008,0.52419c0.00011,0.28965 -0.35345,0.52452 -0.7897,0.52464z" fill="#800000" id="svg_702"/>
     <path d="m3.82611,1.481c-0.45448,0.31616 -0.8984,0.29682 -0.99156,-0.04324c-0.09315,-0.34001 0.19974,-0.87197 0.65422,-1.18813c0.45447,-0.31616 0.89841,-0.29677 0.99156,0.04324c0.09316,0.34005 -0.19974,0.87197 -0.65422,1.18813z" fill="#800000" id="svg_701"/>
     <path d="m2.31355,1.64747c0.32663,0.02919 0.57908,0.33114 0.56388,0.67444c-0.01519,0.34331 -0.29228,0.59792 -0.61891,0.56873c-0.32662,-0.02919 -0.57908,-0.33112 -0.56388,-0.67444c0.01519,-0.34329 0.29228,-0.59792 0.61891,-0.56873z" fill="#800000" id="svg_700"/>
     <path d="m3.74229,2.77869c-0.43626,0.00012 -0.78998,-0.23455 -0.79008,-0.52419c-0.0001,-0.28965 0.35345,-0.52451 0.7897,-0.52464c0.43626,-0.00012 0.78998,0.23455 0.79008,0.52419c0.00011,0.28965 -0.35345,0.52452 -0.7897,0.52464z" fill="#800000" id="svg_699"/>
     <path d="m2.79041,0.7897c0.00012,0.43625 -0.23456,0.78997 -0.52419,0.79007c-0.28964,0.00011 -0.52452,-0.35345 -0.52464,-0.7897c-0.00012,-0.43626 0.23455,-0.78998 0.52419,-0.79008c0.28963,-0.0001 0.52451,0.35345 0.52464,0.78971z" fill="#800000" id="svg_698"/>
     <path d="m2.81383,3.71846c0.00013,0.43626 -0.23455,0.78998 -0.52418,0.79008c-0.28964,0.0001 -0.52452,-0.35345 -0.52464,-0.78971c-0.00012,-0.43625 0.23455,-0.78997 0.52419,-0.79007c0.28964,-0.00011 0.52451,0.35345 0.52464,0.7897l-0.00001,0z" fill="#800000" id="svg_697"/>
     <path d="m1.04964,4.2809c-0.45448,0.31616 -0.8984,0.29682 -0.99157,-0.04324c-0.09315,-0.34001 0.19974,-0.87197 0.65422,-1.18813c0.45448,-0.31616 0.89842,-0.29677 0.99157,0.04324c0.09316,0.34005 -0.19974,0.87197 -0.65422,1.18813z" fill="#800000" id="svg_696"/>
     <path d="m1.49665,0.72009c0.31616,0.45448 0.2968,0.89841 -0.04323,0.99157c-0.34006,0.09316 -0.87197,-0.19974 -1.18813,-0.65422c-0.31616,-0.45448 -0.29682,-0.89841 0.04323,-0.99157c0.34004,-0.09316 0.87197,0.19974 1.18813,0.65422z" fill="#800000" id="svg_695"/>
     <path d="m4.24969,3.4497c0.31616,0.45448 0.2968,0.89841 -0.04323,0.99156c-0.34006,0.09317 -0.87197,-0.19973 -1.18813,-0.65421c-0.31616,-0.45448 -0.29682,-0.89841 0.04323,-0.99157c0.34004,-0.09316 0.87197,0.19974 1.18813,0.65422z" fill="#800000" id="svg_694"/>
    </g>
   </pattern>
   <pattern height="5.60289" width="5.6" patternTransform="translate(-82.2386 518.899)" patternUnits="userSpaceOnUse" id="svg_684">
    <path d="m1.54863,1.40171c-0.20223,0.304 -0.51722,0.5098 -0.82617,0.53963c-0.30894,0.0299 -0.56484,-0.12065 -0.67114,-0.39483c-0.10637,-0.27416 -0.04692,-0.63028 0.15584,-0.93397c0.20222,-0.30401 0.51723,-0.50979 0.82617,-0.53962c0.30894,-0.0299 0.56484,0.12064 0.67115,0.39482c0.10636,0.27416 0.04689,0.63027 -0.15585,0.93397z" fill="#800000" id="svg_692"/>
    <path d="m1.98906,2.64646c0.19203,0.32635 0.23141,0.69908 0.10315,0.97755c-0.12819,0.27849 -0.40445,0.42039 -0.72454,0.37215c-0.3201,-0.04817 -0.63535,-0.2792 -0.82681,-0.60585c-0.19206,-0.32634 -0.23142,-0.69908 -0.10316,-0.97755c0.12819,-0.2785 0.40445,-0.4204 0.72454,-0.37216c0.3201,0.04818 0.63533,0.27922 0.82682,0.60586z" fill="#800000" id="svg_691"/>
    <path d="m3.59807,0.6644c0.25122,0.3893 0.34064,0.85643 0.23437,1.22515c-0.10619,0.36874 -0.39184,0.583 -0.74916,0.56193c-0.35732,-0.02098 -0.73199,-0.27415 -0.98262,-0.6639c-0.25125,-0.38929 -0.34065,-0.85644 -0.23438,-1.22515c0.1062,-0.36874 0.39184,-0.583 0.74916,-0.56193c0.35733,0.02098 0.73197,0.27417 0.98263,0.6639z" fill="#740000" id="svg_690"/>
    <path d="m1.00426,5.60289c-0.32903,0.00038 -0.6333,-0.13648 -0.79795,-0.35904c-0.16471,-0.22251 -0.16479,-0.49684 -0.00022,-0.71947c0.16452,-0.22267 0.46871,-0.35975 0.79774,-0.35957c0.32903,-0.0004 0.6333,0.13648 0.79795,0.35904c0.16471,0.22252 0.16479,0.49685 0.00022,0.71947c-0.16452,0.22267 -0.46871,0.35973 -0.79774,0.35957z" fill="#7b0000" id="svg_689"/>
    <path d="m3.68215,4.71665c-0.3274,0.26392 -0.72752,0.36907 -1.04942,0.27561c-0.32191,-0.09337 -0.51666,-0.37105 -0.51075,-0.72826c0.00583,-0.35722 0.21149,-0.73965 0.53928,-1.00299c0.32738,-0.26395 0.72752,-0.36906 1.04942,-0.27561c0.32192,0.09337 0.51666,0.37105 0.51075,0.72827c-0.00583,0.35721 -0.2115,0.73961 -0.53928,1.00298z" fill="#800000" id="svg_688"/>
    <path d="m5.30715,1.41758c-0.19604,0.29874 -0.48169,0.48704 -0.74922,0.49375c-0.26753,0.00678 -0.47624,-0.169 -0.54737,-0.46102c-0.0712,-0.29199 0.00604,-0.65583 0.20251,-0.9542c0.19602,-0.29876 0.48169,-0.48705 0.74922,-0.49375c0.26753,-0.00678 0.47624,0.169 0.54738,0.46101c0.07119,0.29199 -0.00607,0.65582 -0.20252,0.95421z" fill="#800000" id="svg_687"/>
    <path d="m5.50586,4.8383c-0.12457,0.33184 -0.35443,0.58212 -0.60292,0.65632c-0.24847,0.07426 -0.47775,-0.0388 -0.60133,-0.29651c-0.12363,-0.25768 -0.12273,-0.62086 0.00232,-0.95247c0.12455,-0.33185 0.35443,-0.58212 0.60292,-0.65631c0.24847,-0.07426 0.47775,0.03879 0.60133,0.29651c0.12363,0.25768 0.12271,0.62085 -0.00232,0.95246z" fill="#800000" id="svg_686"/>
    <path d="m4.86045,2.0766c0.26873,0.01801 0.51052,0.14914 0.63411,0.344c0.12363,0.19482 0.11029,0.42371 -0.03499,0.60028c-0.14524,0.17661 -0.40036,0.27404 -0.66905,0.25555c-0.26872,-0.01799 -0.51052,-0.14914 -0.63411,-0.34399c-0.12363,-0.19483 -0.11029,-0.42371 0.03499,-0.60029c0.14524,-0.17661 0.40036,-0.27401 0.66905,-0.25555z" fill="#800000" id="svg_685"/>
   </pattern>
   <pattern height="5.73733" width="5.73443" patternTransform="translate(-80.0166 517.465)" patternUnits="userSpaceOnUse" id="svg_511">
    <rect filter="url(#svg_682)" height="5.60289" width="5.6" y="0.067217" x="0.067217" fill="url(#svg_681)" id="svg_680"/>
   </pattern>
  </defs>
  <metadata id="svg_679">image/svg+xml</metadata>
  <g transform="matrix(0.649039 -1.5493 -3.61251 -1.51337 1591.96 903.161)" id="svg_991">
   <metadata id="svg_993">image/svg+xml</metadata>
   <g transform="matrix(0.441545 0 0 0.350201 2.01049 0.428472)" id="svg_994">
    <g id="svg_995">
     <path d="m238.011703,1176.919556c-5.078003,-2.640015 -10.207993,-4.950073 -14.914001,-8.330078c-10.056,-7.709961 -18.565002,-16.630005 -25.949005,-26.900024c-8.472992,-11.72998 -11.069992,-25.169922 -11.314987,-39.319946c1.426987,-14.800049 9.026001,-26.430054 19.116989,-36.820068c12.298004,-10.629883 26.768005,-18.039917 42.584,-21.559937c17.51001,-3.319946 34.811005,-0.540039 51.714996,4.219971c15.619995,5.01001 28.552002,14.25 38.519989,27.130005c9.231995,14.170044 6.76001,28.650024 0.916992,43.469971c-9.062988,17.610107 -22.655975,32.23999 -35.162994,47.410034c-13.733978,15.310059 -24.491974,32.690063 -33.415985,51.130005c-3.054993,11.599976 -9.777008,24.219971 -8.122986,36.040039c0.139984,1 -1.277008,1.199951 -1.415009,0.199951l0,0c-2.020996,-14.679932 -6.130005,-25.51001 3.087006,-39.52002c9.78598,-18.429932 22.733978,-34.789917 34.457001,-52c10.872986,-15.279907 22.190979,-30.48999 30.41098,-47.399902c4.799988,-11.300049 6.876007,-22.390015 1.282013,-33.920044c-7.425018,-12.869995 -18.486023,-21.390015 -32.373993,-26.709961c-15.757019,-5.430054 -32.137024,-7.570068 -48.703003,-4.690063c-15.167007,3.380005 -29.669006,7.339966 -40.667999,19.150024c-8.895996,9.630005 -15.779999,20.579956 -16.775009,34c-0.888,13.130005 2.60701,25.209961 9.891006,36.22998c7.156998,9.530029 15.682007,18.160034 25.425995,25.060059c4.025009,3 7.936005,7.369995 12.914001,8.439941c3.403,0.73999 1.582001,6.300049 -1.505997,4.690063z" stroke-width="1px" fill-rule="nonzero" fill="#000000" id="svg_996"/>
     <path d="m382.066681,905.688477c4.972015,-2.519958 10.335999,-3.690979 15.759003,-4.790955c11.285004,-1.808044 22.673004,-1.259033 33.886017,0.647949c10.960999,3.009033 18.967987,10.196045 26.356995,18.421997c6.507996,8.883057 8.393982,17.810059 4.309998,28.067017c-5.429993,11.007996 -16.412994,17.080994 -26.373993,23.447998c-12.290009,7.348022 -24.938019,14.049011 -37.482025,20.944031c-14.444977,7.148987 -27.381989,16.518005 -39.960999,26.482971c-14.419983,11.940002 -26.03598,26.559998 -35.906982,42.360046c-9.791992,14.869995 -14.709015,31.669922 -17.640015,49.029907c-2.785004,13.040039 -0.153992,25.410034 4.351013,37.650024c0.347992,0.950073 -0.994019,1.450073 -1.341003,0.5l0,0c-4.563995,-12.449951 -6.791992,-25.319946 -6.390991,-38.640015c2.166992,-18.130005 8.556976,-34.789917 18.356995,-50.23999c10.388,-15.880005 21.283997,-31.569946 35.654999,-44.169983c12.317993,-10.732971 25.598999,-20.36499 39.678986,-28.672974c12.22702,-6.999023 24.641022,-13.788025 36.117004,-21.98999c7.979004,-5.723999 15.871002,-11.775024 20.626007,-20.596985c2.263,-6.585022 2.891998,-12.873047 -0.837006,-19.171021c-4.713989,-8.416992 -12.320007,-14.169983 -21.165009,-17.901001c-10.143982,-4.541016 -20.688995,-6.051025 -31.651978,-3.518982c-5.106018,1.237976 -10.231995,2.686951 -14.942017,5.065002c-2.048981,1.032959 -3.451996,-1.888 -1.404999,-2.925049z" stroke-width="1px" fill-rule="nonzero" fill="#000000" id="svg_997"/>
     <path d="m352.584686,1060.969482c1.661011,-2.410034 4.790009,-3.420044 7.427002,-4.609985c7.372009,-3.459961 13.661987,-8.569946 19.539001,-14.109985c8.010986,-7.800049 13.854004,-17.140015 19.102997,-26.900024c4.391998,-9.653992 6.235992,-20.261963 5.915009,-30.820007c-1.164001,-7.237 -2.571014,-14.544983 -9.195007,-18.434998c-0.871002,-0.510986 -0.143005,-1.744995 0.726013,-1.22998l0,0c8.565979,5.080017 16.640991,8.227966 15.791992,19.966003c-1.162994,11.39801 -5.92099,21.47998 -10.977997,31.648987c-4.832001,10.310059 -11.07901,19.880005 -18.763,28.310059c-5.686005,6.279907 -11.645996,12.289917 -18.117004,17.769897c-2.087006,1.810059 -4.522003,4.26001 -7.205994,4.52002c-5.233002,0.52002 -7.220001,-1.77002 -4.243011,-6.109985z" stroke-width="1px" fill-rule="nonzero" fill="#000000" id="svg_998"/>
     <path d="m278.524689,1189.349487c0.880005,-3.319946 4.056,-5.699951 6.278015,-8.359985c5.548981,-7.380005 8.77298,-15.719971 11.423981,-24.469971c1.919006,-10.170044 1.761017,-20.390015 -1.135986,-30.320068c-2.362,-8.289917 -7.019012,-15.609985 -13.25,-21.51001c-6.661987,-6.01001 -14.574005,-6.769897 -23.127014,-5.72998c-5.892975,0.900024 -10.802979,3.47998 -15.803986,6.530029c-0.862,0.52002 -1.604996,-0.699951 -0.741989,-1.219971l0,0c5.138,-3.119995 10.132996,-6.570068 15.751999,-8.800049c10.442993,-3.400024 20.644989,-4.150024 29.912994,2.839966c7.756989,7.23999 12.757996,15.940063 14.814972,26.450073c1.152008,11.109985 0.475006,22.049927 -3.52597,32.599976c-2.509003,9.079956 -5.45401,18.26001 -9.968018,26.540039c-1.761993,3.27002 -3.401001,7.319946 -6.914978,8.649902c-3.240997,1.220093 -4.603027,0.150024 -3.71402,-3.199951z" stroke-width="1px" fill-rule="nonzero" fill="#000000" id="svg_999"/>
     <path d="m324.446686,1129.199463c2.466003,-2 3.960999,-4.799927 5.596008,-7.469971c4.22998,-7.089966 9.268982,-13.619995 14.458008,-20.02002c7.447998,-9.289917 15.742981,-17.809937 24.289978,-26.069946c8.597015,-6.810059 15.251007,-15 21.830994,-23.630005c6.024017,-9.339966 13.468018,-13.339966 24.147003,-9.550049c5.552002,2.820068 7.423004,8.099976 10.200012,13.25c0.746002,0.599976 1.493011,1.200073 2.239014,1.800049c0.786987,0.630005 0.846985,0.880005 0.000977,1.429932l0,0c-0.923004,0.600098 -1.846985,1.200073 -2.769989,1.800049c-5.537994,3.339966 -12.032013,3.099976 -17.811005,0.089966c-1.88501,-4.289917 -6.687988,-2.97998 -10.996002,-2.150024c-10.333008,3.810059 -18.371002,9.850098 -25.847992,17.980103c-8.506012,8.22998 -16.761993,16.709961 -24.173004,25.949951c-5.149994,6.349976 -10.152985,12.829956 -14.351013,19.869995c-1.609985,2.619995 -3.52298,5.170044 -4.307983,8.190063c-0.518005,1.97998 -4.097992,-0.180054 -2.505005,-1.470093z" stroke-width="1px" fill-rule="nonzero" fill="#000000" id="svg_1000"/>
     <path d="m245.98671,1049.879517c-2.376999,-0.209961 -4.772003,-0.5 -7.169998,-0.670044c-7.420013,0.080078 -14.650009,2.280029 -21.674011,4.47998c-13.996994,5.700073 -26.403,14.380005 -38.455002,23.350098c-16.384003,12.579956 -30.688995,27.549927 -41.557404,45.119995c-8.047699,12.459961 -0.472,26.269897 -3.452896,38.899902c1.127701,1.670044 2.255295,3.330078 3.382996,5c0.566513,0.830078 -0.620987,1.640015 -1.184296,0.800049l0,0c-1.169495,-1.73999 -2.338898,-3.47998 -3.508301,-5.22998c-14.068497,-10.780029 -5.7416,-28.280029 3.278503,-40.430054c11.585403,-17.279907 25.513397,-32.73999 42.1884,-45.309937c12.156006,-9.050049 24.671005,-17.790039 38.790009,-23.530029c7.041,-3.290039 14.228989,-6.140015 21.891998,-7.609985c2.659988,-0.430054 5.487991,-0.890015 8.078003,-0.079956c3.536987,1.109985 3.084991,5.529907 -0.608002,5.209961z" stroke-width="1px" fill-rule="nonzero" fill="#000000" id="svg_1001"/>
     <path d="m309.427704,1176.599487c2.473999,-2.670044 5.072998,-5.26001 7.810974,-7.679932c7.481018,-6.090088 13.931,-13.140015 20.618011,-20.080078c6.848999,-8.97998 15.606995,-16.380005 23.862,-24.059937c10.330994,-8.930054 19.510986,-11.26001 32.761993,-8.410034c1.869019,-1.400024 3.738007,-2.810059 5.606995,-4.209961c0.808014,-0.610107 1.666016,0.529907 0.858002,1.139893l0,0c-1.891998,1.420044 -3.783997,2.840088 -5.675995,4.26001c-3.177002,13.650024 -9.667999,20.420044 -22.770996,25.330078c-10.402008,3.380005 -20.354004,7.72998 -30.639008,11.390015c-8.548981,4.269897 -16.942993,8.659912 -23.61499,15.649902c-2.312012,2.590088 -4.579987,5.119995 -5.692993,8.460083c-0.804016,2.419922 -4.854004,0.079956 -3.123993,-1.790039z" stroke-width="1px" fill-rule="nonzero" fill="#000000" id="svg_1002"/>
     <path d="m444.929688,913.726501c-2.166992,-1.164001 -4.283997,-2.496033 -6.466003,-3.673035c-4.993988,-3.490967 -10.471008,-6.219971 -15.981995,-8.783997c-5.454987,-2.763977 -11.195007,-4.937988 -16.406006,-8.16095c-4.402008,-2.582031 -7.329987,-6.067017 -8.531982,-11.001038c0.812988,-7.464966 9.399994,-8.208008 15.376984,-9.304016c8.075012,-1.844971 16.321014,-1.688965 24.527008,-1.243958c5.720001,0.257996 10.955994,1.421997 15.247986,5.339966c4.261017,5.856018 -1.066986,9.516052 -6.492981,10.728027c-0.962006,0.383972 -1.925018,0.766968 -2.888,1.150024c-0.938995,0.372986 -1.466003,-0.957031 -0.527008,-1.328003l0,0c0.915985,-0.361023 1.830994,-0.723022 2.746002,-1.084045c1.852997,-1.94397 3.471985,-3.596985 3.417999,-6.297974c-2.830994,-3.892029 -6.852997,-5.877014 -11.681,-6.754028c-7.980988,-1.186951 -16.096008,-0.722961 -24,0.875c-4.449005,1.459045 -8.993988,2.811035 -11.127014,7.265991c0.681,3.723999 2.625,6.436035 5.789001,8.790039c4.95401,3.373962 10.199005,6.260986 15.671021,8.710999c5.436981,2.745972 10.911987,5.47699 16.635986,7.578979c2.446014,1.152039 5.123016,1.976013 7.213013,3.733032c2.315979,1.947998 0.143005,4.890991 -2.52301,3.458984z" stroke-width="1px" fill-rule="nonzero" fill="#000000" id="svg_1003"/>
    </g>
   </g>
  </g>
  <use xlink:href="#svg_25" y="-419.668508" x="-357.018487" transform="matrix(-0.705524 0.442653 -0.661787 -1.05479 -95.6341 107.831)" id="svg_26"/>
 </g>
</svg>